<?xml version="1.0" standalone="no"?>
<!DOCTYPE svg PUBLIC "-//W3C//DTD SVG 1.1//EN" "http://www.w3.org/Graphics/SVG/1.1/DTD/svg11.dtd" >
<svg>
<metadata>
Created by FontForge 20090914 at Thu Feb 23 21:40:33 2012
 By root
Generated by Fontographer 3.5
</metadata>
<defs>
<font id="FederationTNGTitle" horiz-adv-x="560" >
  <font-face 
    font-family="FederationTNGTitle"
    font-weight="500"
    font-stretch="normal"
    units-per-em="1000"
    panose-1="0 0 0 0 0 0 0 0 0 0"
    ascent="800"
    descent="-200"
    x-height="595"
    cap-height="595"
    bbox="-92 -233 1082 811"
    underline-thickness="20"
    underline-position="-123"
    unicode-range="U+0020-U+F000"
  />
<missing-glyph horiz-adv-x="811" 
d="M50 0v811h711v-811h-711zM711 50v711h-611v-711h611z" />
    <glyph glyph-name=".notdef" horiz-adv-x="811" 
d="M50 0v811h711v-811h-711zM711 50v711h-611v-711h611z" />
    <glyph glyph-name=".null" unicode="&#xd7;" horiz-adv-x="0" 
 />
    <glyph glyph-name=".null" unicode="&#x141;" horiz-adv-x="0" 
 />
    <glyph glyph-name=".null" unicode="&#xfd;" horiz-adv-x="0" 
 />
    <glyph glyph-name="nonmarkingreturn" horiz-adv-x="505" 
 />
    <glyph glyph-name="space" unicode=" " horiz-adv-x="505" 
 />
    <glyph glyph-name="exclam" unicode="!" horiz-adv-x="261" 
d="M151 250l153 345h142l-151 -345h-144zM41 0l62 140h142l-60 -140h-144z" />
    <glyph glyph-name="quotedbl" unicode="&#x22;" horiz-adv-x="142" 
d="M24 375l97 220h92l-97 -220h-92zM149 375l97 220h92l-97 -220h-92z" />
    <glyph glyph-name="dollar" unicode="$" horiz-adv-x="450" 
d="M18 0l64 140h127q53 0 81 15t28 60q0 42 -84.5 75.5t-84.5 122.5q0 74 33 128t126 54h52l27 63h155l-28 -63h55l-57 -125h-129q-41 0 -56.5 -9.5t-15.5 -42.5q0 -27 87 -53.5t87 -124.5q0 -97 -63.5 -168t-170.5 -71l-27 -63h-153l25 62h-78z" />
    <glyph glyph-name="percent" unicode="%" horiz-adv-x="647" 
d="M436 595h140l-263 -595h-138zM401 0q-6 0 -14 8q-3 4 -8 24l3 15l95 215q6 12 19 25l14 8q8 3 20 3h145q15 0 26 -11q12 -9 9 -25l-96 -219q-6 -17 -21 -30t-38 -13h-154zM61 298q-7 0 -16 8q-3 4 -8 24l3 15l95 215q6 15 20 25.5t35 10.5h143q15 0 27 -11q13 -9 10 -25
l-96 -219q-3 -8 -10 -17l-14 -14q-14 -12 -35 -12h-154zM183 368q13 0 22 8t15 21l48 108l2 9q0 18 -10 19h-35q-12 0 -21 -6l-14 -21l-49 -109l-3 -11q0 -18 11 -18h34zM523 70q12 0 23 8q9 9 15 21l47 108l2 9q0 18 -10 19h-33q-14 0 -23 -6l-14 -21l-47 -109l-3 -11
q0 -18 11 -18h32z" />
    <glyph glyph-name="ampersand" unicode="&#x26;" horiz-adv-x="726" 
d="M550 315l26 60h142l-60 -137l88 -64l-58 -131l-90 64q-18 -49 -70.5 -78t-119.5 -29h-331q-14 0 -29 12q-8 13 -8 35l1 21l3 20l9 24l12 28l48 110q21 50 62 76q39 27 80 27l-18 13l-10 10q-6 8 -6 25q0 14 7 32l22 52q22 47 69 78.5t98 31.5h333l-59 -140h-243
q-15 0 -28.5 -8.5t-13.5 -20.5q0 -6 4 -11zM290 328l-83 -188l343 1z" />
    <glyph glyph-name="parenleft" unicode="(" horiz-adv-x="405" 
d="M114 -140q-27 0 -48 25q-9 12 -14.5 30t-5.5 36l1 26q0 8 7 26l7 28l13 29l235 535q24 56 92 98t133 42h121l-60 -140h-48q-42 0 -81 -27q-34 -26 -53 -60l-185 -420q-8 -25 -10 -42q0 -21 10.5 -33.5t22.5 -12.5h81l-60 -140h-158z" />
    <glyph glyph-name="parenright" unicode=")" horiz-adv-x="465" 
d="M39 -140l63 140h73q34 0 64 26t44 59l188 428q8 19 8 36q0 22 -11 34t-37 12h-65l61 140h141q46 0 71.5 -20.5t25.5 -56.5l-3 -31q-3 -13 -18 -44l-257 -583q-23 -54 -83 -97t-116 -43h-149z" />
    <glyph glyph-name="plus" unicode="+" horiz-adv-x="321" 
d="M41 250l57 125h84l40 95h169l-42 -95h76l-54 -125h-76l-51 -110h-167l49 110h-85z" />
    <glyph glyph-name="comma" unicode="," horiz-adv-x="246" 
d="M95 -85h-77l88 86h-71l59 139h142l-59 -139z" />
    <glyph glyph-name="hyphen" unicode="-" horiz-adv-x="328" 
d="M103 375h323l-61 -140h-323z" />
    <glyph glyph-name="hyphen" unicode="&#xad;" horiz-adv-x="328" 
d="M103 375h323l-61 -140h-323z" />
    <glyph glyph-name="period" unicode="." horiz-adv-x="249" 
d="M36 0l62 140h147l-65 -140h-144z" />
    <glyph glyph-name="slash" unicode="/" horiz-adv-x="333" 
d="M385 595h164l-349 -595h-166z" />
    <glyph glyph-name="zero" unicode="0" horiz-adv-x="569" 
d="M613 595q41 0 69 -24t28 -60q0 -15 -9 -41l-147 -330q-24 -58 -85.5 -99t-119.5 -41h-241q-36 0 -65 28q-26 29 -26 68q0 23 10 44l146 330q21 51 83 88t116 37h241zM378 470q-32 0 -56 -20q-24 -18 -37 -50l-86 -195q-6 -12 -6 -23q0 -18 14 -31q16 -11 34 -11h97
q30 0 60 18q28 19 42 47l88 198q6 14 6 24q0 18 -13 30.5t-34 12.5h-109z" />
    <glyph glyph-name="one" unicode="1" horiz-adv-x="261" 
d="M19 0l206 470h-107l57 125h163q26 0 45 -11.5t19 -30.5q0 -10 -5 -20l-234 -533h-144z" />
    <glyph glyph-name="two" unicode="2" horiz-adv-x="564" 
d="M10 0l61 140h497l-66 -140h-492zM118 250q17 45 62.5 85t90.5 40h147q17 0 34 13q19 11 27 29l7 25q0 28 -36 28h-237l55 125h344q19 0 36.5 -11.5t17.5 -37.5q0 -19 -4 -30l-9 -24l-9 -22l-41 -95q-25 -55 -56 -90t-77 -35h-352z" />
    <glyph glyph-name="three" unicode="3" horiz-adv-x="537" 
d="M79 140h274q24 0 37 13.5t24 37.5l12 37q0 9 -6 15t-17 7h-157l193 125h113q30 0 44 -14q16 -13 16 -35q0 -8 -6 -26l-95 -215q-15 -36 -48.5 -60.5t-64.5 -24.5h-381zM224 470l56 125h498l-192 -125h-362z" />
    <glyph glyph-name="four" unicode="4" horiz-adv-x="545" 
d="M203 0l62 140h142l-62 -140h-142zM25 250l98 220h143l-43 -95h146l95 220h144l-97 -220h143l-55 -125h-574z" />
    <glyph glyph-name="five" unicode="5" horiz-adv-x="527" 
d="M735 595l-54 -125h-462l56 125h460zM535 375q32 0 51 -14.5t19 -40.5q0 -18 -9 -39l-93 -213l-7 -14l-10 -13l-28 -22q-36 -19 -60 -19h-387l67 140l281 1q19 0 31.5 14t24.5 39l10 31q0 11 -5.5 15.5t-24.5 9.5h-164q-33 0 -50.5 18.5t-17.5 47.5q0 23 15 59h357z" />
    <glyph glyph-name="six" unicode="6" horiz-adv-x="482" 
d="M206 470q24 51 74 88t106 37h314l-56 -125h-438zM116 0q-28 0 -50 22q-10 11 -14 24t-5 18t-1 17l3 29q6 21 12 30l104 235h347q28 0 46.5 -12.5t18.5 -33.5q0 -12 -2 -16q0 -6 -6 -18l-98 -220q-12 -34 -41 -54q-27 -21 -70 -21h-244zM250 250l-21 -50q-6 -14 -6 -24
q0 -18 16 -28q16 -8 36 -8h37q17 0 36 12t28.5 36t12.5 40q0 22 -28 22h-111z" />
    <glyph glyph-name="seven" unicode="7" horiz-adv-x="408" 
d="M30 470l56 125h552l-96 -125h-512zM13 0l282 375h177l-281 -375h-178z" />
    <glyph glyph-name="eight" unicode="8" horiz-adv-x="517" 
d="M627 595q15 0 33 -18q15 -18 15 -47q0 -18 -9 -42l-36 -80q-14 -30 -39 -58l-26 -19l-36 -13q18 -3 33 -15q12 -12 12 -33l-3 -27l-12 -30l-56 -128q-15 -34 -45.5 -59.5t-64.5 -25.5h-62h-120h-139q-19 0 -32.5 12.5t-13.5 35.5q0 18 7 35l58 130q20 46 52.5 72.5
t67.5 32.5l-9 6l-12 13q-3 6 -8 28q0 17 10 40l37 85q17 40 48 77q26 28 71 28h279zM332 140q13 0 32 15t26 34l7 32q0 30 -28 30h-76q-23 0 -44 -33l-10 -25l-4 -18q0 -35 28 -35h69zM403 470l-19 -3q-10 -4 -18 -11q-18 -12 -28 -32l-8 -23q0 -26 43 -26h40q33 0 50.5 9
t26.5 26l8 27q0 9 -8 19t-23 14h-64z" />
    <glyph glyph-name="nine" unicode="9" horiz-adv-x="492" 
d="M496 140l-27 -54l-16 -22l-22 -25q-38 -39 -85 -39h-347l65 140h432zM614 595q68 0 68 -42q0 -6 -6 -23l-128 -280h-357q-21 0 -35.5 12t-14.5 33q0 12 6 24l95 211q10 24 46 46q38 19 65 19h261zM465 376l22 48l4 21q0 25 -29 25h-49l-21 -3l-23 -11q-21 -11 -30 -28
l-5 -26q0 -26 41 -26h90z" />
    <glyph glyph-name="colon" unicode=":" horiz-adv-x="211" 
d="M13 0l62 140h137l-63 -140h-136zM121 250l56 125h140l-56 -125h-140z" />
    <glyph glyph-name="semicolon" unicode=";" horiz-adv-x="221" 
d="M67 -85h-77l88 86l-67 -1l63 140h138l-63 -140zM122 250l56 125h139l-55 -125h-140z" />
    <glyph glyph-name="equal" unicode="=" horiz-adv-x="351" 
d="M87 240h309l-63 -140h-308zM189 470h308l-56 -125h-308z" />
    <glyph glyph-name="question" unicode="?" horiz-adv-x="430" 
d="M18 0l61 140h142l-59 -140h-144zM183 375h172q43 0 56 32l10 45q0 18 -23 18h-316l54 125h431q45 0 45 -36q0 -15 -9 -39l-92 -210q-9 -24 -38 -43q-31 -17 -55 -17h-290z" />
    <glyph glyph-name="A" unicode="A" horiz-adv-x="579" 
d="M2 0l323 375h134l-202 -235h174l93 293q5 18 -11.5 27.5t-32.5 9.5h-160l56 125h295q17 0 28 -11t11 -31q0 -12 -4 -23l-170 -530h-534z" />
    <glyph glyph-name="B" unicode="B" horiz-adv-x="490" 
d="M19 0l63 140h219q42 0 55 25l19 39l3 10l1 10q0 25 -19 25h-231l57 125l232 1q29 0 45 23l18 40l2 9q0 8 -8.5 14t-26.5 9h-221l57 125h318q21 0 39.5 -15t23.5 -37l-4 -13l-97 -217q-9 -19 -28 -28l-25 -5h-19q15 -12 25 -31l7 -17l3 -18q0 -18 -10 -41l-56 -125
q-12 -24 -33.5 -36t-57.5 -12h-351z" />
    <glyph glyph-name="C" unicode="C" horiz-adv-x="418" 
d="M216 470l32 73q13 22 36 37t64 15h276l-54 -125h-354zM82 0q-17 0 -35 9q-13 10 -13 30q0 19 11 44l130 291h155l-104 -234h197l-60 -140h-281z" />
    <glyph glyph-name="D" unicode="D" horiz-adv-x="532" 
d="M669 595q36 0 36 -42q0 -13 -9 -40l-191 -433q-15 -34 -46.5 -57t-78.5 -23h-374l167 375h155l-104 -235h109q25 0 39 11.5t27 41.5l97 220q6 14 6 24q0 33 -74 33h-214l56 125h399z" />
    <glyph glyph-name="E" unicode="E" horiz-adv-x="420" 
d="M213 470l56 125h355l-54 -125h-357zM5 0l167 375h355l-54 -125h-201l-49 -110h200l-60 -140h-358z" />
    <glyph glyph-name="F" unicode="F" horiz-adv-x="423" 
d="M213 470l56 125h355l-54 -125h-357zM5 0l167 375h355l-54 -125h-201l-110 -250h-157z" />
    <glyph glyph-name="G" unicode="G" horiz-adv-x="507" 
d="M651 470h-461l25 58q15 35 36 51q14 9 24 12l23 4h409zM47 0q-36 0 -36 40q0 24 15 60l121 274h156l-85 -191l-4 -17q0 -8 9 -19q12 -7 28 -7h67q15 0 27 9l11 12l10 14l17 35l4 15q0 6 -6 17l-11 8h-39l56 125h223l-134 -305q-10 -25 -41 -50q-28 -20 -67 -20h-321z" />
    <glyph glyph-name="H" unicode="H" horiz-adv-x="490" 
d="M5 0l264 595h155l-98 -220h278l-57 -125h-275l-111 -252z" />
    <glyph glyph-name="I" unicode="I" horiz-adv-x="251" 
d="M16 0l264 595h155l-262 -595h-157z" />
    <glyph glyph-name="J" unicode="J" horiz-adv-x="423" 
d="M68 140h178q17 0 31 9t24 29l185 417h138l-233 -530q-14 -33 -35 -49q-26 -16 -58 -16h-293z" />
    <glyph glyph-name="K" unicode="K" horiz-adv-x="674" 
d="M269 595h155l-26 -60q27 27 90.5 48.5t145.5 21.5l50 -1h19l22 -2l37 -7l-130 -125h-419zM5 0l167 375h154q70 0 107.5 -25t73.5 -100l118 -250h-156l-79 170l-29 59q-14 21 -33 21h-56l-110 -250h-157z" />
    <glyph glyph-name="L" unicode="L" horiz-adv-x="410" 
d="M5 0l264 595h155l-201 -455h200l-60 -140h-358z" />
    <glyph glyph-name="M" unicode="M" horiz-adv-x="803" 
d="M270 595h257q42 0 64 -11t22 -29l-3 -12q24 35 41.5 43.5t42.5 8.5h194q32 0 51.5 -15.5t19.5 -50.5v-19l-5 -20q0 -7 -5 -17l-11 -27l-194 -446h-155l186 423l5 20q0 27 -59 27h-62l-208 -470h-155l191 433l4 17q0 20 -71 20h-206zM328 375l-165 -375h-157l167 375h155z
" />
    <glyph glyph-name="N" unicode="N" horiz-adv-x="530" 
d="M328 375l-165 -375h-157l167 375h155zM214 470l56 125h354q29 0 48.5 -15.5t19.5 -48.5l-1 -19q0 -11 -5 -24q-2 -10 -5 -17.5t-12 -27.5l-195 -443h-156l186 420l5 21q0 29 -56 29h-70h-169z" />
    <glyph glyph-name="O" unicode="O" horiz-adv-x="512" 
d="M195 470l24 54q14 32 40 51.5t67 19.5h288q24 0 50 -17t26 -40l-3 -15l-24 -53h-468zM622 375l-128 -290q-15 -36 -46 -61q-27 -24 -70 -24h-309q-14 0 -32 19q-15 20 -15 46q0 8 6 28l125 282h156l-79 -178l-4 -18q0 -16 7 -27q8 -9 16 -12h64q23 0 41.5 14.5t33.5 43.5
l79 177h155z" />
    <glyph glyph-name="P" unicode="P" horiz-adv-x="492" 
d="M187 375h236q25 0 41 25l20 45q6 12 -6 17.5t-25 7.5h-225l56 125h345q21 0 38 -12.5t17 -32.5l-3 -15l-103 -227q-11 -27 -26 -42q-13 -16 -65 -16h-200l-110 -250h-157z" />
    <glyph glyph-name="Q" unicode="Q" horiz-adv-x="602" 
d="M532 140h75l-65 -140h-149h-50h-259q-13 0 -31 19q-5 6 -9 14q-7 14 -7 32q0 8 6 28l191 431q12 30 39.5 50.5t67.5 20.5h288q24 0 50 -17t26 -40l-3 -15zM328 140q26 0 44 15t31 43l95 215l4 19q0 14 -4 23.5t-16 14.5h-69q-24 0 -42 -15l-15 -17q-5 -5 -14 -23
l-97 -218l-3 -10l-1 -10q0 -13 5 -23q6 -8 17 -14h65z" />
    <glyph glyph-name="R" unicode="R" horiz-adv-x="507" 
d="M187 375h236q25 0 41 25l20 45q6 12 -6 17.5t-25 7.5h-225l56 125h345q21 0 38 -12.5t17 -32.5l-3 -15l-103 -227q-12 -30 -39 -45q-2 -1 -18 -7t-26 -6q9 -5 19 -17.5t10 -29.5q0 -16 -7 -30l-79 -173h-156l99 218l2 9q0 8 -6 14t-17 9h-73l-110 -250h-157z" />
    <glyph glyph-name="S" unicode="S" horiz-adv-x="540" 
d="M77 140h209q48 0 81 15q28 16 28 60q0 42 -84.5 75t-84.5 123q0 78 34 130t125 52h257l-54 -125h-129q-39 0 -55 -9.5t-16 -42.5q0 -27 86.5 -53.5t86.5 -124.5t-69.5 -169t-178.5 -71h-301z" />
    <glyph glyph-name="T" unicode="T" horiz-adv-x="445" 
d="M105 0l167 375h154l-164 -375h-157zM212 470l57 125h373l-54 -125h-376z" />
    <glyph glyph-name="U" unicode="U" horiz-adv-x="475" 
d="M689 595l-226 -510q-18 -36 -45.5 -60.5t-72.5 -24.5h-262q-13 0 -31 19q-5 6 -9 14q-7 14 -7 32q0 8 6 28l224 502h155l-177 -398l-7 -30q0 -15 8 -22l20 -5h17q25 0 40.5 11.5t33.5 46.5l176 397h157z" />
    <glyph glyph-name="V" unicode="V" horiz-adv-x="525" 
d="M58 0l188 595h151l-103 -323l278 323h185l-512 -595h-187z" />
    <glyph glyph-name="W" unicode="W" horiz-adv-x="867" 
d="M619 277l276 318h187l-514 -595h-187l81 251l-218 -251h-187l188 595h151l-103 -323l278 323h185z" />
    <glyph glyph-name="X" unicode="X" horiz-adv-x="627" 
d="M403 173l-125 -120l-29 -23l-27 -18q-24 -12 -58 -12h-148l61 140h42q18 0 48 12q25 12 37 26l159 152l-70 265h147l40 -151l121 118q12 12 34 22q10 5 21 8t23 3h135l-55 -125h-21q-12 0 -28.5 -9t-31.5 -22l-157 -152l75 -287h-149z" />
    <glyph glyph-name="Y" unicode="Y" horiz-adv-x="550" 
d="M161 0l61 140h179l-61 -140h-179zM753 595l-126 -290q-9 -20 -48 -40q-39 -15 -87 -15h-268q-37 0 -60 9t-23 36q0 17 10 40l117 260h155l-63 -150l-13 -28l-4 -22q0 -20 22 -20l87 1q25 0 46 18t36 51l64 150h155z" />
    <glyph glyph-name="Z" unicode="Z" horiz-adv-x="530" 
d="M630 470h-416l56 125h474zM352 375h191l-214 -235h209l-61 -140h-470z" />
    <glyph glyph-name="backslash" unicode="\" horiz-adv-x="558" 
d="M13 595h166l349 -595h-163z" />
    <glyph glyph-name="a" unicode="a" horiz-adv-x="579" 
d="M2 0l323 375h134l-202 -235h174l93 293q5 18 -11.5 27.5t-32.5 9.5h-160l56 125h295q17 0 28 -11t11 -31q0 -12 -4 -23l-170 -530h-534z" />
    <glyph glyph-name="b" unicode="b" horiz-adv-x="490" 
d="M19 0l265 595h318q22 0 43 -17.5t21 -36.5q0 -6 -4 -13l-95 -218q-3 -11 -24 -23q-21 -7 -51 -7l25 -27q11 -13 11 -36q0 -15 -9 -39l-57 -130q-12 -24 -33.5 -36t-58.5 -12h-351zM301 140q39 0 56 24l20 41l4 18q0 26 -21 26h-74l-49 -109h64zM340 374h70l32 3
q16 3 25 23l17 45q3 12 -5.5 17.5t-25.5 7.5h-68z" />
    <glyph glyph-name="c" unicode="c" horiz-adv-x="425" 
d="M570 470h-197l-147 -330h197l-60 -140h-281q-17 0 -35 9q-13 10 -13 30q0 19 11 44l203 460q13 22 36 37t64 15h276z" />
    <glyph glyph-name="d" unicode="d" horiz-adv-x="525" 
d="M270 595h399q36 0 36 -42q0 -13 -9 -40l-191 -433q-15 -34 -46.5 -57t-78.5 -23h-374zM370 470l-146 -330h109q25 0 39 11.5t27 41.5l97 220q6 14 6 24q0 33 -74 33h-58z" />
    <glyph glyph-name="e" unicode="e" horiz-adv-x="472" 
d="M7 0l263 595h400l-56 -125h-243l-52 -115h246l-56 -125h-244l-41 -90h246l-63 -140h-400z" />
    <glyph glyph-name="f" unicode="f" horiz-adv-x="472" 
d="M5 0l264 595h355l-54 -125h-200l-44 -95h201l-54 -125h-201l-110 -250h-157z" />
    <glyph glyph-name="g" unicode="g" horiz-adv-x="507" 
d="M47 0q-36 0 -36 40q0 24 15 60l189 428q15 35 36 51q14 9 24 12l23 4h409l-56 -125h-241q-21 0 -31 -2t-24.5 -9.5t-29.5 -35.5l-107 -240l-4 -17q0 -8 9 -19q12 -7 28 -7h67q15 0 27 9l11 12l10 14l17 35l4 15q0 6 -6 17l-11 8h-39l56 125h223l-134 -305
q-10 -25 -41 -50q-28 -20 -67 -20h-321z" />
    <glyph glyph-name="h" unicode="h" horiz-adv-x="537" 
d="M7 0l263 595h155l-97 -220h158l97 220h155l-262 -595h-156l110 250h-156l-111 -250h-156z" />
    <glyph glyph-name="i" unicode="i" horiz-adv-x="251" 
d="M16 0l264 595h155l-262 -595h-157z" />
    <glyph glyph-name="j" unicode="j" horiz-adv-x="423" 
d="M68 140h178q17 0 31 9t24 29l185 417h138l-233 -530q-14 -33 -35 -49q-26 -16 -58 -16h-293z" />
    <glyph glyph-name="k" unicode="k" horiz-adv-x="555" 
d="M19 0l263 595h155l-97 -220l193 220h187l-275 -319l83 -276h-148l-83 276l-12 -26l-110 -250h-156z" />
    <glyph glyph-name="l" unicode="l" horiz-adv-x="410" 
d="M5 0l264 595h155l-201 -455h200l-60 -140h-358z" />
    <glyph glyph-name="m" unicode="m" horiz-adv-x="801" 
d="M163 0h-157l264 595h257q42 0 64 -11t22 -29l-3 -12q24 35 41.5 43.5t42.5 8.5h194q32 0 51.5 -15.5t19.5 -50.5v-19l-5 -20q0 -7 -5 -17l-11 -27l-194 -446h-155l186 423l5 20q0 27 -59 27h-62l-208 -470h-155l191 433l4 17q0 20 -71 20h-49z" />
    <glyph glyph-name="n" unicode="n" horiz-adv-x="530" 
d="M6 0l264 595h354q29 0 48.5 -15.5t19.5 -48.5l-1 -19q0 -11 -5 -24q-2 -10 -5 -17.5t-12 -27.5l-195 -443h-156l186 420l5 21q0 29 -56 29h-82l-208 -470h-157z" />
    <glyph glyph-name="o" unicode="o" horiz-adv-x="520" 
d="M74 0q-12 0 -32 19q-15 20 -15 46q0 8 6 28l191 431q12 32 40 51q26 20 67 20h288q24 0 50 -17t26 -40l-3 -15l-193 -438q-15 -36 -46 -61q-27 -24 -70 -24h-309zM318 140q23 0 41.5 14.5t33.5 43.5l95 215l4 19q0 14 -4 23.5t-16 14.5h-69q-23 0 -40 -14.5t-31 -40.5
l-97 -218l-3 -10l-1 -10q0 -11 6 -22t14 -15h67z" />
    <glyph glyph-name="p" unicode="p" horiz-adv-x="492" 
d="M187 375h236q25 0 41 25l20 45q6 12 -6 17.5t-25 7.5h-225l56 125h345q21 0 38 -12.5t17 -32.5l-3 -15l-103 -227q-11 -27 -26 -42q-13 -16 -65 -16h-200l-110 -250h-157z" />
    <glyph glyph-name="q" unicode="q" horiz-adv-x="602" 
d="M532 140h75l-65 -140h-149h-50h-259q-13 0 -31 19q-5 6 -9 14q-7 14 -7 32q0 8 6 28l191 431q12 30 39.5 50.5t67.5 20.5h288q24 0 50 -17t26 -40l-3 -15zM328 140q26 0 44 15t31 43l95 215l4 19q0 14 -4 23.5t-16 14.5h-69q-24 0 -42 -15l-15 -17q-5 -5 -14 -23
l-97 -218l-3 -10l-1 -10q0 -13 5 -23q6 -8 17 -14h65z" />
    <glyph glyph-name="r" unicode="r" horiz-adv-x="507" 
d="M19 0l263 595h340q14 0 38 -18q20 -18 20 -41q0 -10 -4 -18l-72 -163q-12 -28 -40 -50q-29 -17 -69 -17q15 0 32 -15.5t17 -39.5q0 -11 -4 -20l-94 -213h-154l86 195l4 16l4 17q0 21 -18 21h-83l-110 -249h-156zM420 374l25 3q10 3 19 13l22 50l3 10q0 20 -33 20h-73
l-44 -96h81z" />
    <glyph glyph-name="s" unicode="s" horiz-adv-x="525" 
d="M77 140h209q48 0 81 15q28 16 28 60q0 42 -84.5 75t-84.5 123q0 78 34 130t125 52h257l-54 -125h-129q-39 0 -55 -9.5t-16 -42.5q0 -27 86.5 -53.5t86.5 -124.5t-69.5 -169t-178.5 -71h-301z" />
    <glyph glyph-name="t" unicode="t" horiz-adv-x="527" 
d="M155 0l206 470h-158l56 125h467l-54 -125h-156l-208 -470h-153z" />
    <glyph glyph-name="u" unicode="u" horiz-adv-x="475" 
d="M689 595l-226 -510q-18 -36 -45.5 -60.5t-72.5 -24.5h-262q-13 0 -31 19q-5 6 -9 14q-7 14 -7 32q0 8 6 28l224 502h155l-177 -398l-7 -30q0 -15 8 -22l20 -5h17q25 0 40.5 11.5t33.5 46.5l176 397h157z" />
    <glyph glyph-name="v" unicode="v" horiz-adv-x="525" 
d="M58 0l188 595h151l-103 -323l278 323h185l-512 -595h-187z" />
    <glyph glyph-name="w" unicode="w" horiz-adv-x="867" 
d="M619 277l276 318h187l-514 -595h-187l81 251l-218 -251h-187l188 595h151l-103 -323l278 323h185z" />
    <glyph glyph-name="x" unicode="x" horiz-adv-x="627" 
d="M403 173l-125 -120l-29 -23l-27 -18q-24 -12 -58 -12h-148l61 140h42q18 0 48 12q25 12 37 26l159 152l-70 265h147l40 -151l121 118q12 12 34 22q10 5 21 8t23 3h135l-55 -125h-21q-12 0 -28.5 -9t-31.5 -22l-157 -152l75 -287h-149z" />
    <glyph glyph-name="y" unicode="y" horiz-adv-x="550" 
d="M598 595h155l-126 -290q-9 -20 -48 -40q-39 -15 -87 -15h-45l-112 -250h-174l110 250h-47q-37 0 -60 9t-23 36q0 17 10 40l117 260h155l-67 -152l-11 -25l-3 -22q0 -21 23 -21l87 1q26 0 46 18t33 51z" />
    <glyph glyph-name="z" unicode="z" horiz-adv-x="530" 
d="M7 0l432 470h-225l56 125h474l-415 -455h209l-61 -140h-452h-18z" />
    <glyph glyph-name="sterling" unicode="&#xa3;" horiz-adv-x="418" 
d="M363 0h-358l110 250h-57l54 125h59l58 133q17 40 40.5 63.5t61.5 23.5h156l-56 -125h-61l-44 -95h64l-57 -125h-61l-49 -110h202z" />
    <glyph glyph-name="notequal" unicode="&#x2260;" 
d="M421 336h93v-64h-151l-75 -72h226v-64h-287l-120 -118l-43 44l74 74h-93v64h154l75 72h-229v64h287l120 118l46 -44z" />
    <glyph glyph-name="infinity" unicode="&#x221e;" horiz-adv-x="727" 
d="M374 238q-36 -63 -75 -93.5t-86 -30.5q-65 0 -113 52q-45 53 -45 132q0 83 41 134.5t107 51.5q44 0 81.5 -29t68.5 -95q17 33 34 54q10 13 18.5 21.5t19.5 17.5q40 31 89 31q64 0 111 -53l20 -29l16 -31q12 -30 12 -71q0 -81 -41 -133.5t-108 -52.5q-41 0 -86 30
q-36 30 -64 94zM336 327q-25 46 -58.5 69.5t-78.5 23.5q-52 0 -85.5 -35t-33.5 -90q0 -54 29 -89q31 -34 79 -34q38 0 73 31q32 32 75 124zM391 271q21 -45 58 -70q38 -23 79 -23q54 0 86.5 35t32.5 90q0 54 -30.5 88.5t-81.5 34.5q-34 0 -67 -33t-77 -122z" />
    <glyph glyph-name="plusminus" unicode="&#xb1;" 
d="M516 19h-472v68h472v-68zM315 331h201v-68h-201v-122h-70v122h-201v68h201v122h70v-122z" />
    <glyph glyph-name="lessequal" unicode="&#x2264;" 
d="M516 18h-473v68h473v-68zM166 280l350 -107v-70l-472 145v65l472 145v-70z" />
    <glyph glyph-name="greaterequal" unicode="&#x2265;" 
d="M516 18h-473v68h473v-68zM516 248l-473 -145v70l352 107l-352 108v70l473 -145v-65z" />
    <glyph glyph-name="mu" unicode="&#xb5;" horiz-adv-x="588" 
d="M170 153q0 -71 14 -95t50 -24q56 0 96.5 82t40.5 203v130h94v-328q0 -45 9 -66t29 -21t31.5 20.5t11.5 61.5v14h23l1 -9v-13q0 -52 -24.5 -84.5t-67.5 -32.5q-47 0 -77 42q-27 42 -27 130q-21 -87 -61.5 -129.5t-100.5 -42.5q-43 0 -75 26q-27 27 -40 77l-1 -28
q0 -37 6.5 -69t25.5 -73q32 -78 34 -91q0 -18 -12 -30t-32 -12q-21 0 -33 18q-10 20 -10 52l2 58l2 89l-1 101l-2 95v245h94v-296z" />
    <glyph glyph-name="partialdiff" unicode="&#x2202;" horiz-adv-x="504" 
d="M366 287l6 28l3 31l3 89q0 88 -17 127.5t-48 39.5q-18 0 -51 -35t-57 -35q-14 0 -24 6t-13 26q0 25 30 48q15 11 33 17t41 6q78 0 112 -53q15 -24 27 -51q7 -15 13 -31q3 -11 7 -21q13 -55 13 -112q0 -161 -65.5 -270.5t-160.5 -109.5q-65 0 -109.5 51.5t-44.5 136.5
q0 81 53.5 143t126.5 62q46 0 72 -19.5t50 -73.5zM262 349q-51 0 -87.5 -60.5t-36.5 -160.5q0 -57 22 -89q23 -30 64 -30q53 0 88 64t35 151q0 57 -22 91t-63 34z" />
    <glyph glyph-name="summation" unicode="&#x3a3;" horiz-adv-x="727" 
d="M630 643l15 -129h-44q-30 105 -84.5 144t-175.5 39h-134l321 -431l-350 -394h191q126 0 174 32q51 27 85 116h47l-32 -130l-2 -7q-23 -99 -113 -99h-492l397 446l-383 514h470q63 0 84 -15q13 -8 26 -86z" />
    <glyph glyph-name="product" unicode="&#x220f;" horiz-adv-x="839" 
d="M120 -176v880h-90v40h783v-40h-90v-880h90v-40h-270v40h86v880h-415v-880h86v-40h-270v40h90z" />
    <glyph glyph-name="pi" unicode="&#x3c0;" 
d="M412 373l-1 -24l-3 -150v-40q0 -88 8 -107q10 -19 31 -19q26 0 44 30q8 15 12 36l4 52h25v-5q0 -80 -26 -118t-82 -38q-54 0 -82 40q-7 13 -17 60q-6 41 -6 104l1 78l3 104l-50 1l-79 2q0 -243 -23 -316t-82 -73q-35 0 -53.5 29t-18.5 86v19h24q0 -23 9 -40
q12 -12 30 -12q41 0 52 41.5t21 113.5l5 68l2 84h-24q-38 0 -58 -12t-31 -41h-23q0 22 1 31.5t7 23.5q10 22 38.5 45t116.5 23l104 -3l154 -3q33 0 49 6t19 22l23 1q0 -49 -23.5 -74.5t-76.5 -25.5h-14z" />
    <glyph glyph-name="integral" unicode="&#x222b;" horiz-adv-x="280" 
d="M289 757q36 0 58 -19q25 -19 25 -48q0 -20 -14 -34t-37 -14q-25 0 -44 31q-15 32 -31 33q-57 0 -57 -310l-3 -98v-15l-1 -39l-4 -66v-27l-4 -30l-11 -85q-6 -48 -30 -101q-20 -50 -63 -83q-39 -33 -82 -33q-37 0 -60 18.5t-23 48.5q0 21 13 34t38 13t41 -30t33 -33
q59 0 59 324l2 84l2 67l2 49l3 54l11 89q8 60 31 108q12 26 27 45.5t35 35.5q40 31 84 31z" />
    <glyph glyph-name="Omega" unicode="&#x3a9;" horiz-adv-x="784" 
d="M605 90q44 0 68 18q22 19 22 68h23v-176h-278v180q75 15 123.5 77t48.5 151q0 106 -60 168.5t-160 62.5q-93 0 -156.5 -62.5t-63.5 -168.5q0 -91 43.5 -149t126.5 -79v-180h-276v176h23q0 -48 19 -67t71 -19h125v59q-117 21 -185.5 90.5t-68.5 168.5q0 117 96 192t246 75
q152 0 246 -73t94 -194q0 -99 -63 -165.5t-189 -93.5v-59h125z" />
    <glyph glyph-name="radical" unicode="&#x221a;" 
d="M606 764h-59l-296 -784h-32l-158 431l-63 -22l-12 39l140 48l128 -346l257 681h95v-47z" />
    <glyph glyph-name="approxequal" unicode="&#x2248;" 
d="M15 100v77l45 25l44 19q40 14 76 14q40 0 113 -24t105 -24q24 0 59 15t87 52v-78l-41 -25l-36 -17l-31 -8q-20 -4 -29 -4.5t-14 -0.5q-24 0 -42 5l-64 18q-75 24 -118 24q-30 0 -57 -12l-23 -11l-24 -13l-25 -14zM15 219v77l45 25l51 21q31 11 68 11q38 0 115 -24
q36 -11 62.5 -17t41.5 -6q30 0 62 14q16 7 36.5 19.5t47.5 32.5v-77l-41 -24q-18 -11 -47 -21t-63 -10q-17 0 -24 1t-24 4.5t-59 17.5q-74 24 -112 24l-36 -3q-16 -3 -36 -12.5t-87 -52.5z" />
    <glyph glyph-name="Delta" unicode="&#x2206;" horiz-adv-x="624" 
d="M607 0h-586l282 672h22zM94 45h381l-190 459z" />
    <glyph glyph-name="nonbreakingspace" unicode="&#xa0;" horiz-adv-x="505" 
 />
    <glyph glyph-name="quotedblleft" unicode="&#x201c;" horiz-adv-x="239" 
d="M341 595h76l-87 -83l75 1l-56 -127h-143l57 127zM142 595h76l-87 -83l75 1l-56 -127h-143l57 127z" />
    <glyph glyph-name="quotedblright" unicode="&#x201d;" horiz-adv-x="241" 
d="M106 385h-76l87 86l-75 -1l56 125h143l-55 -125zM305 385h-76l87 86l-75 -1l56 125h143l-55 -125z" />
    <glyph glyph-name="quoteleft" unicode="&#x2018;" horiz-adv-x="40" 
d="M142 595h76l-87 -83l75 1l-56 -127h-143l57 127z" />
    <glyph glyph-name="quoteright" unicode="&#x2019;" horiz-adv-x="35" 
d="M106 385h-76l87 86l-75 -1l56 125h143l-55 -125z" />
    <glyph glyph-name="divide" unicode="&#xf7;" 
d="M281 158q24 0 40 -16t16 -41q0 -24 -17 -40q-15 -17 -39 -17q-26 0 -43 17q-16 19 -16 40q0 22 18.5 39.5t40.5 17.5zM516 202h-473v68h473v-68zM281 427q22 0 39 -18.5t17 -38.5q0 -24 -17 -40q-15 -17 -39 -17q-26 0 -43 16q-16 19 -16 41t18.5 39.5t40.5 17.5z" />
    <glyph glyph-name="lozenge" unicode="&#x25ca;" horiz-adv-x="504" 
d="M251 807l250 -518l-250 -522l-248 522zM251 688l-190 -399l190 -403l192 403z" />
    <glyph glyph-name="apple" unicode="&#xf000;" horiz-adv-x="806" 
d="M416 594l-1 7v11q0 60 45 111t121 65v-12l1 -18q0 -63 -51.5 -114t-102.5 -51h-4zM749 197q-25 -55 -54 -103q-22 -39 -49 -65q-46 -46 -101 -46q-25 0 -64 16q-48 16 -62 16q-23 0 -66.5 -15t-61.5 -17q-29 0 -65 21l-31 27l-50 60q-30 43 -60 121q-14 41 -21 76l-5 36
l-2 36q0 109 63 175.5t160 66.5l33 -3l26 -6l30 -12l26 -9l23 -4q19 0 63 17t73 17q60 0 99 -20q40 -16 80 -60q-46 -28 -73 -68.5t-27 -91.5q0 -53 29.5 -95.5t86.5 -69.5z" />
  </font>
</defs>
</svg>
