<?xml version="1.0" encoding="utf-8"?>
<!-- Generator: Adobe Illustrator 26.0.3, SVG Export Plug-In . SVG Version: 6.00 Build 0)  -->
<svg version="1.1" id="Layer_1" xmlns="http://www.w3.org/2000/svg" xmlns:xlink="http://www.w3.org/1999/xlink" x="0px" y="0px"
	 viewBox="0 0 405 140" style="enable-background:new 0 0 405 140;" xml:space="preserve">
<style type="text/css">
	.st0{fill:#99CCFF;}
</style>
<g>
	<path class="st0" d="M12.26,62l13.36-30h12.32L24.82,62H12.26z M20.82,24.4l4.56-10h29.84l-4.32,10H20.82z"/>
	<path class="st0" d="M40.02,62l21.04-47.6h32l-4.48,10H69.14l-4.16,9.2h19.68l-4.48,10H60.66l-3.28,7.2h19.68L72.02,62H40.02z"/>
	<path class="st0" d="M78.74,62l21.04-47.6h27.2c0.75,0,1.76,0.48,3.04,1.44c1.07,0.96,1.6,2.05,1.6,3.28
		c0,0.53-0.11,1.01-0.32,1.44l-5.76,13.04c-0.64,1.49-1.71,2.83-3.2,4c-1.55,0.91-3.39,1.36-5.52,1.36c0.8,0,1.65,0.41,2.56,1.24
		c0.91,0.83,1.36,1.88,1.36,3.16c0,0.59-0.11,1.12-0.32,1.6L112.9,62l-12.32,0l6.89-15.59l0.32-1.28l0.32-1.36
		c0-1.12-0.48-1.68-1.44-1.68h-6.64L91.22,62H78.74z M110.82,32.08l2-0.24c0.53-0.16,1.04-0.51,1.52-1.04l1.76-4l0.24-0.8
		c0-1.07-0.88-1.6-2.64-1.6h-5.84l-3.52,7.68H110.82z"/>
	<path class="st0" d="M119.3,62l21.04-47.6h27.2c0.75,0,1.76,0.48,3.04,1.44c1.07,0.96,1.6,2.05,1.6,3.28
		c0,0.53-0.11,1.01-0.32,1.44L166.1,33.6c-0.64,1.49-1.71,2.83-3.2,4c-1.55,0.91-3.39,1.36-5.52,1.36c0.8,0,1.65,0.41,2.56,1.24
		c0.91,0.83,1.36,1.88,1.36,3.16c0,0.59-0.11,1.12-0.32,1.6L153.46,62l-12.32,0l6.89-15.59l0.32-1.28l0.32-1.36
		c0-1.12-0.48-1.68-1.44-1.68h-6.64L131.78,62H119.3z M151.38,32.08l2-0.24c0.53-0.16,1.04-0.51,1.52-1.04l1.76-4l0.24-0.8
		c0-1.07-0.88-1.6-2.64-1.6h-5.84l-3.52,7.68H151.38z"/>
	<path class="st0" d="M159.62,62l21.12-47.6h12.4L172.18,62H159.62z"/>
	<path class="st0" d="M179.94,62l21.2-47.6h25.44c1.17,0,2.32,0.47,3.44,1.4c1.12,0.93,1.68,1.91,1.68,2.92
		c0,0.32-0.11,0.67-0.32,1.04l-7.6,17.44c-0.16,0.59-0.8,1.2-1.92,1.84c-1.12,0.37-2.48,0.56-4.08,0.56l2,2.16
		c0.59,0.69,0.88,1.65,0.88,2.88c0,0.8-0.24,1.84-0.72,3.12l-4.56,10.4c-0.64,1.28-1.53,2.24-2.68,2.88
		c-1.15,0.64-2.71,0.96-4.68,0.96H179.94z M202.5,50.8c2.08,0,3.57-0.64,4.48-1.92l1.6-3.28l0.32-1.44c0-1.39-0.56-2.08-1.68-2.08
		h-5.92l-3.92,8.72H202.5z M205.62,32.08h5.6l2.56-0.24c0.85-0.16,1.52-0.77,2-1.84l1.36-3.6c0.16-0.64,0.01-1.11-0.44-1.4
		c-0.45-0.29-1.13-0.49-2.04-0.6h-5.44L205.62,32.08z"/>
	<path class="st0" d="M218.02,62l21.12-47.6h12.4l-16.08,36.4h16l-4.8,11.2H218.02z"/>
	<path class="st0" d="M250.98,62l21.04-47.6h32l-4.48,10H280.1l-4.16,9.2h19.68l-4.48,10h-19.52l-3.28,7.2h19.68L282.98,62H250.98z"
		/>
</g>
<g>
	<path class="st0" d="M237.12,136.66l13.36-30h12.32l-13.12,30H237.12z M245.68,99.06l4.56-10h29.84l-4.32,10H245.68z"/>
	<path class="st0" d="M265.84,136.66l21.04-47.6h27.2c0.75,0,1.76,0.48,3.04,1.44c1.07,0.96,1.6,2.05,1.6,3.28
		c0,0.53-0.11,1.01-0.32,1.44l-5.76,13.04c-0.64,1.49-1.71,2.83-3.2,4c-1.55,0.91-3.39,1.36-5.52,1.36c0.8,0,1.65,0.41,2.56,1.24
		c0.91,0.83,1.36,1.88,1.36,3.16c0,0.59-0.11,1.12-0.32,1.6L300,136.66l-12.32,0l6.89-15.59l0.32-1.28l0.32-1.36
		c0-1.12-0.48-1.68-1.44-1.68h-6.64l-8.8,19.92H265.84z M297.92,106.74l2-0.24c0.53-0.16,1.04-0.51,1.52-1.04l1.76-4l0.24-0.8
		c0-1.07-0.88-1.6-2.64-1.6h-5.84l-3.52,7.68H297.92z"/>
	<path class="st0" d="M305.44,136.66l21.04-47.6h32l-4.48,10h-19.44l-4.16,9.2h19.68l-4.48,10h-19.52l-3.28,7.2h19.68l-5.04,11.2
		H305.44z"/>
	<path class="st0" d="M344.16,136.66l21.04-47.6h12.4l-7.76,17.6l15.44-17.6h14.96l-22,25.52l6.64,22.08h-11.84l-6.64-22.08
		l-0.96,2.08l-8.8,20H344.16z"/>
</g>
</svg>
