<?xml version="1.0" encoding="utf-8"?>
<!-- Generator: Adobe Illustrator 26.0.3, SVG Export Plug-In . SVG Version: 6.00 Build 0)  -->
<svg version="1.1" id="Layer_1" xmlns="http://www.w3.org/2000/svg" xmlns:xlink="http://www.w3.org/1999/xlink" x="0px" y="0px"
	 viewBox="0 0 476.33 631.53" style="enable-background:new 0 0 476.33 631.53;" xml:space="preserve">
<style type="text/css">
	.st0{fill:#FFFFFF;}
	.st1{fill:#394253;}
	.st2{fill:#EDD4BE;}
	.st3{fill:#3B4354;}
	.st4{fill:#3D4656;}
	.st5{fill:#8B725F;}
	.st6{fill:#F3E0CF;}
	.st7{fill:#D0C687;}
	.st8{fill:#CAB09D;}
	.st9{fill:#EFD5BF;}
	.st10{fill:#D5CB89;}
	.st11{fill:#666667;}
	.st12{fill:#7D3F3B;}
	.st13{fill:#555454;}
	.st14{fill:#B4A670;}
	.st15{fill:#CB453C;}
	.st16{fill:#969292;}
	.st17{fill:#E0D7AA;}
	.st18{fill:#EDDCCC;}
	.st19{fill:#DDC7B4;}
	.st20{fill:#3B4051;}
	.st21{fill:#A58C73;}
	.st22{fill:#BFAC9C;}
	.st23{fill:#B09C8D;}
	.st24{fill:#424A5A;}
	.st25{fill:#3D464C;}
	.st26{fill:#F3F102;}
	.st27{fill:#F8F64D;}
	.st28{fill:#E8E704;}
</style>
<rect x="197.13" y="137.2" class="st0" width="124.02" height="96.41"/>
<g>
	<g>
		<path class="st1" d="M89.14,337.16c0-1.5,0-3,0-4.48c0.36-0.53,0.76-0.95,1.06-1.57c3.33-7.1,7.42-13.71,12.28-19.9
			c3.19-4.06,6.35-8.1,9.9-11.88c3.47-3.71,6.38-7.91,9.21-12.14c5.51-8.25,12-15.44,21.35-20.03c1.16,0,2.69-0.19,4.14,0.06
			c1.2,0.21,2.17,1.41,3.88,0.81c0.77-6.02,3.86-11.51,5.47-17.63c0.75-0.55,1.77-0.1,2.71-0.24c-1.02,3.71-1.94,7.46-4.15,11.1
			c1.26,3.65-1.56,7.27-0.86,11.22c0.61,3.43-1.7,6.59-0.99,10.04c-1.86,1.95-0.61,4.38-1.01,6.55c-0.4,2.18-0.95,4.29-1.1,6.55
			c-0.23,3.32,1.94,6.14,1.01,9.47c0.57-0.08,0.75-0.06,0.8-0.13c4.02-5.5,7.64-11.29,12.27-16.33c0.25-0.27,0.03-0.97,0.03-1.46
			c2.56-2.3,5.43-0.79,7.53,0.24c6.7,3.26,13.8,4.66,21.04,5.76c2.07,1.77,5.11,0.1,7.14,2c2.48-0.85,4.7,2.33,7.28,0.5
			c-7.95-8.06-16.1-15.86-23-24.87c-3.95-5.16-8.06-10.16-11.62-15.62c-1.47-2.25-2.68-4.29-2.36-7.01c0.33,0,0.67,0,1,0
			c1.75,0.71,3.06,2.14,3.93,3.59c3.07,5.14,6.8,9.7,11.04,13.88c0.59,0.58,1.48,1.08,1.71,1.78c0.89,2.68,3.36,3.93,5,5.92
			c1.63,1.99,3.17,4.08,4.96,5.92c5.23,5.36,10.57,10.61,15.86,15.91c0.5,0,1,0,1.5,0c0.13,0.61-0.26,1.27,0.34,1.86
			c2.41,2.36,4.78,4.76,7.34,7.31c2.35-11.41,6.37-18.49,14.96-26.18c1,0,2,0.06,3-0.02c0.76-0.06,1.23,0.73,1.67,0.74
			c1.92,0.05,4.06,1.41,5.7-0.72c-0.12-0.61,0.29-1.31-0.58-2.05c-0.39,0.31-1.42-0.36-1.42,1.05c-0.31,0-0.75,0.13-0.92-0.02
			c-1.06-0.96-2.06-1.98-3.08-2.98c0-0.78,0-1.57,0-2.44c-1.2-1-1.86-2.9-4-2.56c0-1.64-1.8-0.79-2.46-1.86
			c-2.6-4.21-5.44-8.4-6.43-13.24c-1.04-5.11-2.47-10.23-2.12-15.56c0.06-0.95-0.5-1.87-0.65-2.67c-0.34-1.82-1.48-4.03,0.66-5.65
			c1.33,0,2.67,0,4,0c-0.17,1.77,1.51,3.16,1,5c-1.52,0-3.18-0.33-3.85,1.65c1.22,0.89,1.83,2.78,3.85,2.35c0,1,0,2,0,3
			c-0.16,0-0.46-0.04-0.47,0.01c-1.29,3.95-0.5,7.82,0.66,11.6c0.31,1.02,1.47,1.74,2.81,1.4c0.46,1.62,2.01,2.77,1.99,4.58
			c-0.03,2.23,2.15,3.01,3.15,4.56c2.94,4.58,6.15,9.17,11.86,10.86c0,1.28,0,2.55,0,3.11c1,1.58,2.79-0.07,3,1.89
			c-0.03,1.01,0.89,1.73,1.43,1.84c5.03,1.01,9.36,4.53,14.76,4.16c6.01,2.55,12.36,1.96,18.64,1.99c0.63,0,1.31-0.03,1.9-0.24
			c4.48-1.59,9.21-2.04,13.85-2.62c3.94-0.5,7.8-1.27,11.61-2.21c2.72-0.67,5.31-1.7,8.17-2c3.09-0.32,6.23-0.95,9.12-2.03
			c2.37-0.89,4.72-1.56,7.2-1.89c2.52-0.33,4.91-1.41,7.58-1.05c1.96,0.26,3.99,0.05,5.98,0.06c0.48,0,0.96,0.06,0.56,0.03
			c1.52,1.1,2.46,1.78,3.07,2.23c0.52,3.37-0.47,6.04-1.36,8.79c-1.15,3.56-3.11,6.97-2.51,10.95c-0.48-0.08-0.78,0.14-0.89,0.59
			c-0.02,0.08,0.22,0.31,0.29,0.29c0.46-0.1,0.68-0.41,0.59-0.89c4.11-3.59,8.21-7.17,12.58-10.98c-2.47-1.9-1.46-3.97-1.34-6.02
			c1.22,0,2.54-0.41,3.14,0.07c2.68,2.17,4.46,0.21,6.21-1.22c1.91-1.58,3.56-3.48,5.32-5.24c2.03-2.04,3.85-4,4.41-7.18
			c0.31-1.75,1.29-3.72,2.18-5.53c3.7-7.52,8.64-14.16,13.81-20.67c4.5-5.65,8.5-11.62,11.95-17.97c0.74-1.36,1.86-2.55,1.75-4.26
			c1.07-0.19,1.57-0.98,2.01-1.87c1.5-3.04,2.63-6.26,4.08-9.3c1.74-3.63,2.03-7.52,2.85-11.31c0.53-2.47-0.61-5.22,1.06-7.57
			c-0.7-5.26,1.54-10.32,1.02-15.58c-0.45-4.54,0.42-8.97,1.42-13.37c0.89,0,1.72,0,2.56,0c0,4.17-0.28,8.36,0.07,12.49
			c0.46,5.45-1.67,10.67-1.07,16.09c-1.59,3.06-0.39,6.47-1.11,9.56c-1.01,4.37-1.5,8.8-3.34,13.1c-2.2,5.16-5,9.93-7.58,14.85
			c-2.61,4.98-5.65,9.72-8.91,14.3c-2.85,4.02-5.76,8-8.84,11.83c-3.77,4.68-6.99,9.73-10.25,14.76c-1.45,2.23-2.6,4.54-3.59,7.02
			c-1.23,3.07-4.02,5.06-6.66,7.81c6.63-0.04,12.44,1.41,16.89,6.25c0.68,0,1.33,0,1.94,0c2.17,2.23,4.71,4.1,4.75,7.69
			c2.77-0.02,4.53,0.97,5.7,3.12c0.05,3.21-4.14,1.17-5.05,4.14c0.9,3.69-0.69,7.76-1.05,11.95c-0.18,2.09-1.14,4.27-2.04,6.11
			c-2.43,4.98-3.95,10.83-9.8,13.36c-1.85,2.57-5.09,3.56-6.97,6.04c-0.96,1.27-2.6,1.28-3.52,2.45c-7.06,0.21-14.2,0.83-20.54-4.06
			c-5.1,3.55-9.62,7.75-13.49,12.86c-2.02,2.67-3.98,5.55-6.57,7.83c-4.02,3.54-6.5,8.36-10,12.34c-2.37,2.69-5.65,4.22-8.66,6.02
			c-0.72,0.43-2.11,0.23-3.29-0.28c-2.97-1.27-6.08-2.23-9.16-3.23c-1.86-0.6-3.58-0.74-5.5,0.48c-1.17,0.74-2.75,1.86-5.17,0.65
			c-3.13-3.05-7.73-3.87-12.76-3.5c-0.9,1.1-0.34,2.47-0.42,3.73c-0.27,4.2-1.36,8.3-1.08,12.59c0.28,4.31-0.06,8.67,0.11,12.99
			c0.08,2.04-0.65,4.08,0.78,6.19c1.08,1.59-0.84,4.25,1.17,5.98c-0.1,5.64,2.19,10.7,4.04,15.83c2.31,6.41,5.84,12.26,9.05,18.25
			c3.27,1.21,2.78,5.63,5.93,6.75c0,1.21,0,2.2,0,3.35c3.48,1.84,6.05,4.83,8.78,7.64c4.94,5.08,10.88,9.07,15.5,14.49
			c3.42,4.01,6.89,7.99,9.7,12.47c1.02,1.62,2.31,3.14,3.52,4.47c2.41,2.65,4.23,5.78,6.89,8.24c4.17,3.85,7.83,8.18,11.02,12.9
			c0.55,0.81,1.39,1.43,2.1,2.14c6,6.04,10.85,12.97,15.49,20.07c2.13,3.26,4.56,6.33,5.99,10.02c0.43,1.1,1.39,1.43,2.44,1.98
			c5.5,2.86,10.73,6.2,16.65,8.95c3.42-2.39,7.49-3.37,11.92-3.07c2.32,0.15,4.66,0.07,7,0.02c6.51-0.13,12.43,2.12,17.7,5.48
			c3.29,2.1,6.68,4.14,9.91,6.41c4.48,3.15,8.74,6.23,11.43,11.19c1.28,2.36,3.23,4.35,4.92,6.56c0,1.56,0,3.23,0,4.85
			c-0.43,0.83-1.56,0.21-2,1.13c-4.06,8.47-11.49,14.06-17.78,20.61c-0.81,0.85-2.14,1.22-3.24,1.77c-2.2,1.11-4.63,1.63-6.8,2.93
			c-1.97,1.19-4.47,1.06-6.69,1.9c-2.14,0.8-4.81-0.2-7.02,1.17c-8.21-0.17-16.34,1.56-24.59,1.1c-2.14-0.12-3.86-1.47-6.09-1.18
			c-1.84,0.24-3.77,0.42-5.64-0.81c-0.93-0.61-2.6-0.14-3.93-0.1c-1.16,0.03-1.78-1.09-3.09-1.09c-5.41,0-10.15-2.89-15.34-3.93
			c-1.92-0.39-1.4-2.84-2.93-3.55c-7.26-2.09-14.58-3.96-22.19-4.48c-0.76,0.99-0.93,2.39-2.17,3.03c-5.53,0.37-10.2-1.61-14.3-5.26
			c-1.23-1.1-3.01-1.4-3.6-3.45c-0.26-0.91-0.8-1.9-0.54-2.72c1.76-5.47,1.8-11.4,4.48-16.64c0.7-1.36,1-2.92,1.52-4.46
			c-2.73-0.99-5.46-1.88-8.4-1.45c-3.32,0.48-6.41-0.72-9.11-2.12c-6.72-3.49-13.61-6.63-20.26-10.22
			c-3.58-1.94-6.95-4.41-10.06-7.06c-3.16-2.7-6.64-4.82-10.11-7.02c-4.9-3.1-9.87-6.09-14.56-9.51
			c-5.74-4.19-11.62-8.2-17.33-12.43c-1.72-1.27-3.07-3.05-4.63-4.55c-2.73-2.64-5.81-4.14-9.8-4.19
			c-3.35-0.04-6.64-1.43-10.43-0.68c-2.63,1.66-3.94,5.01-6.39,7.4c-8.83,8.61-17.48,17.4-26.2,26.11
			c-6.75,6.73-14.03,12.83-22.04,18c-3.78,2.44-7.75,4.58-11.92,7.02c3.53,6.07,7.88,12.05,7.17,19.45c-1.81,3.51-5.31,4.5-8.1,6.21
			c-3.12,1.9-6.06,4.37-9.86,5.11c-3.35,0.65-6.6,0.99-9.91-0.45c-1.4-0.61-2-1.43-2.34-3.05c-6.88-0.41-12.91,3.35-19.64,4.08
			c-2.08,3.82-4.15,7.56-7.12,10.67c-0.01,2.21-2.21,2.05-3.35,3c-3.86,3.21-8.46,5.43-13.1,6.9c-3.36,1.06-7.29,3.03-11.08,0.38
			c-0.45-0.31-1.32-0.13-1.97-0.03c-4.11,0.62-8.14-0.59-12.05-1.23c-5.32-0.88-11.07-0.57-15.9-3.73
			c-6.18-0.43-11.33-4.16-17.29-5.36c-3.02-0.6-5.92-1.78-8.87-2.7c-3.37-1.05-5.95-3.09-7.37-6.33c-1.29-2.94-3.54-5.85-1.03-9.24
			c0.09-5.36,2.9-9.75,4.92-14.46c1.03-2.39,2.69-4.31,4.18-6.23c4.4-5.64,9.21-11.03,15.89-14.16c1.73-0.81,3.16-2.02,4.75-2.97
			c3.37-2.03,7.2-2.77,10.68-4.44c0.81-0.39,1.94-0.15,2.93-0.16c3-0.01,6-0.01,8.81-0.01c8.12-5.93,15.09-13.1,23.73-18.19
			c0-2.37,0-4.68,0-6.54c3.42-7.53,7.88-13.94,12.15-20.44c2.78-4.23,6-8.17,8.92-12.32c3.71-5.28,7.99-10.3,10.8-16.03
			c3.31-6.75,7.81-12.71,11.23-19.37c-0.83-2.46-2.18-4.81-2.01-7.62c0.14-2.49,0.03-4.99,0.03-7.49c0.28-0.12,0.81-0.23,0.81-0.35
			c0.04-3.43,0.04-6.87,0-10.3c0-0.12-0.53-0.23-0.81-0.35c-1.59-4.24-0.85-8.65-1-13c1.26-0.07,1.05-0.87,0.77-2
			c-0.55,0-1.16,0-1.77,0c0-3.67,0-7.33,0-11c1.79-1.14,0.88-2.6,0.8-4c-0.82,0-1.31,0-1.8,0c0-3.33,0-6.67,0-10
			c0.61,0.11,0.92-0.26,0.98-0.76c0.07-0.67-0.04-1.31-0.98-1.24c0.47-1.55-1.33-2.47-1.05-4.05c0.23-1.28,0.05-2.63,0.05-3.95
			c1.26-0.07,1.05-0.87,0.77-2c-0.55,0-1.16,0-1.77,0c0-2,0-4,0-6c0.79,0,1.61,0.17,2.19-0.67c0.46-0.67,1.21-0.21,1.81-0.33
			c-0.52,1.3,0.99,1.97,0.99,3.08c-0.02,4.97,1.36,9.76,1.92,14.64c0.48,4.16,0.14,8.36,0.96,12.56c0.74,3.75-0.41,7.78,1.13,11.53
			c-0.64,7.55,1.49,14.96,1.06,22.53c-0.29,5.11-0.06,10.25-0.06,15.04c1.54,2.01,3.25,3.22,5.33,3.6
			c7.14,1.32,13.41,4.58,19.51,8.31c1.16,0.71,2.49,1.24,3.72,1.83c3.3,1.58,6.86,1.93,10.29,2.84c1.06,0.28,1.75,1.17,3.07,1.13
			c3.2-0.11,6.5-0.62,9.56,0.92c5.9-0.61,11.63,1.69,17.54,1c5.15,0,10.29,0.12,15.44-0.03c5.18-0.15,10.35,0.46,15.55-0.84
			c3.69-0.92,7.72,0.46,11.53-1.07c1.87-0.75,3.97,0.32,6.13-0.88c1.73-0.96,4.31-0.71,6.48-0.99c5.2-0.67,9.83-2.78,14.62-4.5
			c2.88-1.03,5.55-2.67,8.45-3.63c3.14-1.03,5.95-2.53,8.65-4.39c3.63-2.5,7.26-5.01,10.88-7.5c2.35-1.62,3.29-3.55,4.69-6.12
			c-1.62-0.5-0.68-2.58-2.43-3.05c0.37-1.6-0.69-2.89-1.47-3.84c-3.25-3.93-4.23-8.91-6.38-13.32c-1.03-2.1-1.87-4.52-2.24-7.05
			c-0.55-3.71-2.29-7.24-1.9-11.13c-1.92-2.12-1.01-4.73-0.89-7.05c0.14-2.66-1.14-4.93-1.22-7.55c-0.23-7.38,1.76-14.6,1.15-21.99
			c-0.27-3.26-0.05-6.56-0.05-9.65c0.83-0.79,1.43-1.36,2-1.9c0-2.21,0-4.37,0-6.53c1.42-1.64,0.27-4.04,1.17-5.43
			c1.28-1.99,0.49-3.65,0.84-5.57c-1.07,0-1.75,0.12-2.36-0.02c-3.67-0.83-7.25-2.03-11.08-2.02c-0.57,0-0.74-1.1-1.57-0.96
			c-2.58-1-5.22-1.88-7.74-3.02c-4.93-2.23-9.91-4.43-14.35-7.59c-5.85-4.16-10.51-9.68-16.07-14.22
			c-4.75-3.88-8.81-8.61-13.15-12.99c-0.78-0.78-1.89-1.37-1.81-2.76c0.01-0.12-0.51-0.28-0.79-0.41c-0.5,0-1.02-0.09-1.49,0.02
			c-0.61,0.15-0.77,1.11-2.06,0.9c-1.05-2.01-3.33-0.33-5.07-1.02c-6.44-2.53-13.32-3.22-19.97-4.86c-4.68-1.15-9.39-2.06-13.6-4.61
			c-1.3-0.79-2.63-1.89-4.41-1.43c-4.11,5.78-8.41,11.46-12.25,17.43c-1.18,1.83-2.84,3.92-2.23,6.55
			c-1.72,0.29-0.94,3.19-3.66,2.95c-0.18-0.35-0.55-1.09-1.16-2.28c0.34-0.8-0.53-2.46,0.65-4.3c1-1.55-0.55-3.96-0.69-5.93
			c-0.39-5.42-0.52-10.93-0.02-16.33c0.47-5.08,1.89-10.08,2.89-15.12c0.95-1.52,1.45-3.1,0.59-5.24c-1.08,1-2.82-0.97-3.59,1.24
			c-0.67,0-1.33,0-2,0c-0.76,0.15-1.91-0.5-2,1c-2.01,2.12-5.17,2.63-7,5c-0.69-0.03-1.03,0.31-1,1c-2.14,0.37-1.92,2.73-3.27,3.84
			c-1.53,1.25-2.84,2.77-4.23,4.18c-0.21,0.22-0.32,0.53-0.49,0.78c-2.23,3.37-4.33,6.87-6.66,10.11
			c-3.65,5.07-7.61,9.98-12.1,14.41c-1.49,1.47-3.36,2.64-4.24,4.68c-0.58,0-1.17,0-2,0c0,0.83,0,1.42,0,2
			c-1.65,0.18-0.74,1.48-1,2.27c-0.7,1.48-2.56,2.03-3,3.73c-0.49,0-0.98,0-1.94,0c0.98,1.58-1.82,1.95-0.72,4c0.76,0,1.71,0,2.66,0
			c2.22-0.27,3.98,0.69,5.59,2.08c3.79,3.27,6.11,7.54,8.48,11.86c2.52,4.62,4.25,9.58,5.62,14.52c0.93,3.38,1.59,6.98,2.41,10.46
			c0.32,1.35,1.07,2.6,0.91,4.07c0.16,2.08,0.16,2.08,2,1.48c0-0.49,0-0.98,0-1.48c9.05-7.19,15.78-16.37,21.91-26
			c0.86-1.35,2.02-1.79,3.15-2.63c0-0.62-0.28-1.56,0.05-1.89c2.02-2.06,3.28-4.63,4.84-6.99c1.31-1.98,2.64-3.8,5.05-4.49
			c0,0.67,0,1.33,0,2c-0.01,0.78-0.05,1.44-0.6,2.18c-1.79,2.41-4.05,4.59-4.4,7.86c-1.64-0.53-2.48,1.19-4.26,1.31
			c0.7,0.88-0.39,1.98,1.13,2.81c1.41-1.02,3.34-1.67,3.13-4.11c1.23-0.04,2.47-0.04,3.73-0.04c0.31,0.89,1.37,1.06,1.26,2.18
			c-0.29,0.53-0.64,1.17-0.99,1.82c-1.23,0.2-1.73,1.32-2.52,2.05c-1.57,1.45-3.35,2.15-5.48,1.95c-0.12-0.61,0.3-1.31-0.33-1.84
			c-1.95-0.65-1.65,0.74-1.67,1.84c-6.74,10.88-15.05,20.43-24.74,29c-0.95,0-2.1,0-3.26,0c-0.11-0.6,0.27-1.28-0.4-1.9
			c-0.66,0-1.43,0-2.19,0c-1.25,1.25-2.45,2.56-3.78,3.73c-0.74,0.65-0.62,1.39-0.63,2.17c-2.99,0.88-5,3.28-7.38,5.03
			c-5.14,3.77-10.49,6.32-17.04,6.02c-3.08-0.14-5.57-1.91-8.48-2.51c-6.57-1.35-12.44-4.56-18.31-7.62
			c-2.25-1.18-4.71-1.3-7.02-2.4c-5.06-2.41-8.16-6.18-10.86-10.85c-1.96-3.38-3.42-6.99-4.73-10.54c-1.75-4.73-4.16-9-6.8-13.17
			c-2.82-4.47-5.25-10.19-6.44-15.34c-0.65-2.82-1.49-5.87-3.18-8.12c-1.84-2.44-2.89-5.19-4.39-7.73c-1.12-1.9-1.92-3.91-3.54-5.55
			c-1.33-1.34-2.13-3.15-1.82-5.21c1,0,2,0,3,0c0.81-0.01,1.5,0.01,2.24,0.67c1.98,1.77,2.01,4.56,3.72,6.49
			c1.23,1.38,2.86,3.13,2.85,4.7c-0.02,2.28,1.48,3.46,2.17,5.17c0.69,1.71,1.55,3.33,2.17,5.1c1.77,5.06,3.01,10.4,5.89,15.01
			c2.14,3.43,4.48,6.67,6.18,10.42c1.77,3.91,3.04,8.1,5.52,11.69c0.17,0.24,0.24,0.58,0.26,0.88c0.29,3.47,3.59,5.44,4.36,8.68
			c0.1,0.41,0.61,0.86,1.03,1.04c2.14,0.9,4.12,2.59,6.21,2.99c4.86,0.95,8.84,3.64,13.22,5.51c7.25,3.11,14.42,6.37,21.83,5.67
			c9.33-3.78,15.99-9.98,22.36-16.56c0-1.83,0.49-3.84-0.09-5.46c-1.99-5.55-3.37-11.26-4.93-16.92c-0.2-0.73-0.59-1.43-0.99-2.08
			c-2.45-3.98-4.86-7.98-7.42-11.89c-0.8-1.23-1.99-2.2-2.82-3.09c-1.35,0-2.33,0-3.13,0c-2.35,1.58-3.49,3.98-5.04,5.97
			C90.8,337.16,89.97,337.16,89.14,337.16z M459.14,588.16c0.03-0.69-0.31-1.03-1-1c0.36-1.37-0.43-2.32-1.43-2.88
			c-2.95-1.64-5.61-3.65-7.98-6.05c-3.41-3.46-7.25-6.37-11.2-9.16c-4.52-3.19-9.69-5.07-15.05-5.77
			c-4.41-0.58-9.08-0.79-13.35,1.36c0,0.5,0,1,0,1.5c-1.14,0-2.28,0-3.22,0c-3.01,2.08-5.75,4.22-8.14,6.8
			c-0.66,0.71-0.63,1.41-0.64,2.2c-0.83,0-1.66,0-2.5,0c-4,4-7.91,8.1-12.03,11.98c-3.8,3.57-6.93,7.68-9.82,11.95
			c-2.6,3.85-4.76,7.98-4.65,12.7c1.16,0.73,2.13,0.19,3.09,0.83c1.24,0.82,2.88,1.49,4.33,1.47c5.02-0.08,9.62,2.52,14.66,2.08
			c1.83,1.53,4.02,0.81,6.08,1.01c2.21,0.22,4.39-0.46,6.65,0.87c1.83,1.08,3.98-0.63,6.02-0.84c1.98-0.21,4.02-0.27,5.98,0.01
			c2.21,0.32,3.9-1.45,6.09-1.09c4.24,0.69,8.26-0.79,12.1-2.13c2.33-0.81,5.16-0.75,7.01-2.84c2.43-0.08,4.56-1.28,5.55-3.22
			c1.17-2.3,2.94-3.92,4.74-5.47c4.46-3.84,7.09-9.06,10.81-13.16c-0.23-0.87-0.46-1.26-1.09-1.15
			C459.8,588.16,459.47,588.16,459.14,588.16z M86.14,594.16c2.62,3.81,5.02,7.8,8.8,11.25c7.6-1.85,15.38-3.96,23.2-6.42
			c0-3.95-0.68-7.92,0.2-11.51c0.83-3.43,0.52-6.69,0.87-10.11c-14.45-9.33-26.76-20.87-38.43-33.19c-1.59,1.13-2.58,2.88-4.56,3.48
			c-1.05,0.31-1.23,1.44-1.07,2.51c-0.83,0-1.67,0-2.31,0c-4.72,4.04-9.34,7.99-13.88,11.88c2,3.45,4.46,6.03,7.05,8.49
			c0.36,0.34,0.82,0.65,1.04,1.07c1.89,3.6,4.48,6.66,7.45,9.4C78.82,585,82.34,589.7,86.14,594.16z M385.14,575.16
			c0.5,0,1,0,1.51,0c1.99-1.99,4.23-3.8,5.9-6.04c1.61-2.14,4.89-2.51,5.74-5.53c-3.39-1.4-6.62-2.73-8.84-5.62
			c-0.86-1.12-1.93-0.94-3.06-0.57c-0.78,2.09-1.74,4.04-3.5,5.54c-1.26,1.07-2.48,2.24-3.51,3.53c-0.95,1.21-2.87,1.31-3.39,2.48
			c-0.84,1.9-3.36,0.2-3.86,2.21c-0.61,0.13-1.33-0.32-1.86,0.35c-1.13,1.43-2.86,1.87-4.39,2.67c-5.29,2.78-11.16,3.06-16.86,3.87
			c-3.75,0.54-7.63,0.1-11.4,0.1c-0.18,0.18-0.28,0.33-0.42,0.41c-0.68,0.36-1.37,0.71-2.28,1.17c1.29,2.35,1.28,5.1,2.26,7.53
			c1.01,2.51,0.91,5.04,0.94,7.61c0.03,2.77-0.06,5.55,0.07,8.53c8.88-1.36,16.6,2.2,25.03,4c-0.66-3.35,2.26-5.14,2.11-7.96
			c3.43-3.79,5.29-8.72,9.16-12.22c3.33-3.02,6.37-6.35,9.59-9.49C384.86,576.99,385.37,576.26,385.14,575.16z M315.14,371.16
			c-0.11,0.63,0.27,0.97,0.79,0.98c1.97,0.05,3.93,0.02,5.9,0.02c1.97-0.74,3.04-2.48,4.54-3.66c1.34-1.05,1.89-2.58,2.72-3.89
			c3.04-4.83,8.08-7.92,10.94-12.86c0.15-0.25,0.09-0.63,0.12-0.9c-0.24-1.14-1.57-0.3-1.89-1c-0.67-1.91,0.83-3.06,1.27-4.7
			c1.73,0,3.51,0,5,0c3.12-2.55,5.12-5.86,8.5-7.56c-3.53-0.93-3.53-0.93-3.73-4.02c0.97-1.46,2.72-1.53,3.96-2.52
			c0.59,0.41,1.08,1.04,1.61,1.07c2.91,0.2,5.45,0.94,7.82,2.88c0.98,0.8,2.73,1.68,4.44,1.16c0.12,0.28,0.17,0.76,0.36,0.82
			c2.92,0.95,5.91,1.35,9,1.22c2.02-0.09,3.75-0.57,5.16-2.05c2.32-2.45,5.15-4.22,7.94-6.08c1.41-0.94,2.62-2.33,3.59-3.93
			c4.77-7.88,6.23-16.59,7-25.57c-5.46-5.18-13.22-5.48-19.2-9.67c-4.83,4.49-10.98,7.35-14,13.48c0.8,0.81,1.16,1.67,2.35,1.83
			c7.12,0.99,13.84,3.65,20.89,5c3.01,0.57,3.77,1.86,3.51,4.85c-4.24,0.67-8.13-0.76-12.12-1.83c-4.5-1.2-9.19-1.79-13.47-3.64
			c-2.04-0.88-3.01-0.18-3.96,1.19c0,3.07,0,6.05,0,8.84c2.51,3.38,5.82,4.07,9.2,3.49c2.32-2.75,3.83-5.76,6.18-7.86
			c1.24,0,2.22,0,2.2,0c3.54,0.93,1.65,3.43,3.03,5.37c0.37,0.75,2.13,0.34,2.87,1.56c0.27,0.44,0.49,0.81,0.44,1.4
			c-0.83,0.9-1.71,1.84-2.33,2.51c-1.4,0-2.38,0-2.79,0c-1.52-0.62-1.85-2.11-3.4-1.89c-1.2,1.26-2.46,2.58-3.97,4.16
			c-1.55-1.27-2.38,0.87-3.74,0.5c-2.25-0.56-4.51-1.11-6.76-1.67c-2.21-1.08-4.76-1.41-6.76-3c-2.73-2.17-6.85-2.58-8.24-7.16
			c0-0.65,0.36-2.11-0.09-3.27c-0.57-1.49,2.48-1.96,0.08-3.98c-3.21,4.27-8.77,5.77-11.81,9.81c-0.2,1.46,0.02,2.75-0.52,3.31
			c-1.58,1.64-2.32,3.86-4.14,5.34c-2.26,1.83-4.17,4.01-6.61,5.72c-2.45,1.72-4.92,3.48-7.29,5.31c-1.55,1.2-3.83,2.26-3.61,4.91
			c-1.5,1.55-2.37,3.43-3.01,5.46c-0.95,3.02-1.82,6.09-3.81,8.78c-1.62-0.41-0.88-2.3-2.09-2.65c-0.54-4.43,0.48-8.43,2.82-12.27
			c0.88-1.45,2.16-3.37,0.59-5.32c-0.34,0-0.67,0-0.87,0c-2.82,4.53-4.81,9.41-6.42,14.38c-1.72,5.3-3.09,10.76-1.87,16.69
			C306.2,368.22,310.73,368.98,315.14,371.16z M78.14,593.16c-2-2.5-3.74-5.29-6.06-7.45c-5.32-4.96-9.39-11.04-14.79-15.9
			c-0.37-0.33-0.96-0.66-1.02-1.06c-0.44-2.65-2.85-3.22-4.87-4.6c-2.59,0.45-5.47-0.37-8.44,0.58c-5.04,1.63-9.85,3.87-14.22,6.61
			c-3.59,2.25-7.57,4.34-10.25,7.95c-2.18,2.94-4.82,5.62-6.61,8.78c-1.95,3.46-3.97,6.89-4.95,10.96c-0.75,3.12-0.49,6.1-0.8,9.13
			c0.63,2.33,2.96,2.74,4.54,3.98c1.86,1.47,4.3,0.69,6.38,1.42c5.21,1.84,10.48,3.53,15.67,5.45c4.18,1.55,8.4,3.66,13.15,3.14
			c2.38,1.41,5.32,0.22,7.47,1.19c2.49,1.12,5.1-0.13,7.07,0.95c2.45,1.35,4.78,0.57,7.14,0.83c1.64,0.18,3.32,0.06,4.98,0.02
			c0.8-0.02,1.79,0.11,2.35-0.3c3.14-2.33,7.66-2.18,9.71-5.63c1.04-0.07,1.67-0.1,2.11-0.13c3.02-2.77,5.14-5.84,6.53-9.19
			c-3-3.64-6.48-6.34-9.07-10.02C82.46,597.49,81.25,594.38,78.14,593.16z M302.14,460.16c-0.69-1.76-2.41-2.6-3.44-4
			c-2.71,2.46-5.08,5.11-8.11,7.15c-5.05,3.4-10.05,6.88-15.59,9.44c-3.91,1.8-8.02,3.17-11.91,5c-7.58,3.55-15.81,4.57-23.84,6.32
			c-2.77,0.6-5.69,0.21-8.6,0.93c-2.82,0.7-5.98,0.41-8.94,0.08c-3.01-0.34-5.61,1.42-8.59,1.13c-2.64-0.26-5.32-0.05-7.99-0.05
			c-7.18-0.49-14.38,0.77-21.59-0.86c-3.7-0.83-7.68-0.39-11.56-0.97c-4.39-0.66-8.81-1.05-13.13-2.15
			c-7.49-1.92-14.86-4.15-21.83-7.59c-4-1.97-7.91-4.16-12.26-5.43c-2.25,1.28-2.36,3.97-3.81,5.85c-2.46,3.19-4.72,6.66-6.32,10.33
			c-1.25,2.88-2.79,5.56-4.43,8.14c-3.55,5.57-7.47,10.9-11.22,16.34c-2.14,3.1-4.27,6.21-6.35,9.36c-1.38,2.1-2.67,4.24-4.18,6.28
			c-2.69,3.62-6,7.1-5.3,12.24c1.29,1.29,3.02,2.38,3.79,3.93c1.22,2.45,3.09,4.04,5.19,5.54c-0.12,0.84,0.69,1.05,1.06,1.55
			c1.66,2.26,4.45,3.14,6.33,5.22c1.93,2.13,4.27,3.94,6.43,5.84c4.23,3.71,8.52,7.27,12.98,10.39c1.21,0,2.2,0,3.2,0
			c0,0.5,0,1,0,1.5c1.35,1.08,3.27,1.12,4.5,2.5c1.63,0,3.29-0.08,4.95,0.02c3.92,0.22,7.32-1.02,10.89-2.69
			c9.73-4.58,18.08-11.14,25.84-18.24c11.29-10.33,21.78-21.53,32.6-32.38c0.64-0.64,1.75-1.15,0.83-2.72
			c-3.39,0.65-6.6-1.73-9.97-0.94c-1.52-0.95-1.89-2.12-1.6-3.57c0.46-0.46,0.93-0.93,1.46-1.46c2.76,0,5.62,0.29,8.39-0.08
			c3.03-0.41,5.65,1.23,8.59,1.12c2.71-0.1,5.51-0.58,7.9,0.99c1.01-0.46,0.18-1.78,1.95-2.18c4.18,1.62,7.92,6.08,13.88,5.09
			c-0.84,2.92,1.03,3.9,2.59,5.06c2.16,1.61,4.38,3.15,6.49,4.82c3.53,2.78,6.87,5.81,10.52,8.42c4.32,3.09,8.78,6.04,13.37,8.71
			c5.36,3.12,10.3,6.8,14.99,10.79c3.27,2.79,6.79,5.22,10.54,7.18c5.19,2.71,10.49,5.23,15.72,7.88c2.6,1.32,5.43,2.6,8.57,2.19
			c0.66,0,1.46-0.24,1.97,0.04c3.23,1.81,6.71,0.67,10.06,0.91c1.03,0.07,1.93-1.62,3.04-0.91c2.75,1.77,5.72,0.73,8.58,0.91
			c2.97,0.19,5.97,0,8.96,0.05c3.06,0.05,5.92-1.61,9.05-1.02c0.3,0.06,0.66,0.02,0.95-0.1c4.66-1.97,9.42-3.74,13.93-6.02
			c3.66-1.85,6.22-5.19,9.14-8.01c0.6-0.58,0.2-1.24,0.34-1.86c0.17-2.48-0.36-4.63-2.05-6.65c-1.57-1.89-2.62-4.22-3.96-6.31
			c-2.19-3.42-4.01-7.21-6.76-10.11c-3.83-4.04-6.87-8.78-11.17-12.38c-0.89-0.75-1.9-1.5-2.43-2.48c-2.6-4.77-7.3-7.7-10.41-12.09
			c-2.01-2.84-4.69-5.44-6.75-8.26c-3.39-4.65-7.27-8.88-10.81-13.39c-3.42-4.35-7.79-7.89-11.27-12.28
			C311.79,467.49,306.61,464.18,302.14,460.16z M354.36,282.16c-3.8,0-6.95,0-10.1,0c-1.5,1.78-4.21,0.11-5.67,2
			c-3.22-0.08-6.09,1.75-9.17,1.9c-3.87,0.19-7.47,1.29-11.01,2.49c-1.93,0.65-4.09,0.37-5.82,1.61c-3.62-0.65-6.97,1.51-10.58,1.02
			c-0.6-0.08-1.21,0.17-1.83,0.35c-3.44,1-6.9,2.01-10.43,2.54c-2.15,0.32-4.57,0.67-6.57-0.91c-5.2,0.45-10.14-1.05-15.18-1.9
			c-2.68-0.45-5.19-1.2-7.55-2.34c-6.64-3.21-13.48-5.34-21-4.68c-1.28,1.68-2.58,3.34-3.76,5.02c-3.37,4.8-6.3,9.87-5.58,16.17
			c0.2,1.79,0.03,3.61,0.03,5.35c3.26,2.73,5.85,5.87,9.23,8.31c3.41,2.45,6.13,5.81,9.49,8.46c3.99,3.14,8.44,5.43,12.93,7.48
			c3.69,1.69,8.05,3.37,12.04,1.96c3.59-1.27,7.45,0.31,10.73-1.82c4.98,0.08,9.63-1.56,14.23-3.07c6.43-2.11,13.01-3.91,19.03-7.12
			c5.05-2.69,10.14-5.32,15.11-8.15c4.08-2.32,8.44-4.25,11.86-7.63c0.25-0.24,0.97,0.04,1.28-0.48c1.02-2.91,1.85-5.87,2.96-8.76
			c1.04-2.72,1.78-5.62,2.49-8.49C352.25,288.51,353.5,285.64,354.36,282.16z M139.19,580.33c-5.01,0-9.46,0-13.71,0
			c-2.05,6.22-1.12,12.42-1.38,18.47c0.85,0.3,1.43,0.51,2.29,0.81c-0.55,1.46-2.08,2.75-0.83,4.49c3.73,0.39,7.01-0.88,10.12-2.94
			c2.44-1.62,5-3.07,7.01-4.29c1.18-2.19-0.19-3.68-0.58-5.03c0.59-1.08,2.01-0.17,2.04-1.69
			C142.55,587.01,140.88,583.7,139.19,580.33z M297.32,366.52c-1.29-6.34,0.86-12.24,3.05-17.72c1.84-4.62,3.57-9.74,8.15-13.43
			c-3.59-0.75-6.02,1.67-8.96,1.92c-3.05,0.25-5.81,2.43-9.42,1.75c-1.75,9.06-3.07,17.92-4.2,26.81c3.5,0.8,6.53,1.5,9.73,2.23
			C295.99,367.77,296.47,367.32,297.32,366.52z M324.1,600.63c2.81,2.65,6.46,4.59,10.56,5.42c-3.09-5.12-2.26-10.44-2.62-15.64
			c-0.15-2.24-0.55-4.61-1.79-6.7c-0.37-0.62-0.05-1.68-1.49-1.53C326.19,587.92,324.11,593.87,324.1,600.63z M359.14,321.09
			c0-1.41-0.11-2.42,0.02-3.39c0.32-2.35-0.2-4.64,0.76-7.13c0.85-2.21,0.4-4.95,2.14-7.1c0.26-0.32,0.79-2.02-0.32-2.23
			c-2.5,2.5-4.79,4.8-7.57,7.57c-0.19,2.34-1.83,5.55-1.01,8.36c1.45,1.57,2.56,2.78,3.61,3.92
			C357.48,321.09,358.13,321.09,359.14,321.09z M331.86,323.32c-5.05,2.43-9.85,5.11-14.71,7.3c-0.1,1.56,0.97,1.91,1.58,2.49
			c1.05,0,2.04,0,2.87,0C325.09,329.79,330.19,328.44,331.86,323.32z"/>
		<path class="st2" d="M89.14,337.16c0.83,0,1.66,0,2.59,0c1.54-1.99,2.69-4.38,5.04-5.97c0.8,0,1.79,0,3.13,0
			c0.82,0.89,2.01,1.87,2.82,3.09c2.55,3.91,4.97,7.91,7.42,11.89c0.4,0.65,0.79,1.35,0.99,2.08c1.56,5.66,2.94,11.37,4.93,16.92
			c0.58,1.62,0.09,3.63,0.09,5.46c-6.37,6.58-13.03,12.79-22.36,16.56c-7.41,0.69-14.58-2.56-21.83-5.67
			c-4.37-1.88-8.36-4.57-13.22-5.51c-2.09-0.41-4.07-2.1-6.21-2.99c-0.43-0.18-0.94-0.63-1.03-1.04c-0.77-3.24-4.07-5.21-4.36-8.68
			c-0.03-0.3-0.1-0.64-0.26-0.88c-2.47-3.59-3.74-7.78-5.52-11.69c-1.7-3.75-4.04-6.99-6.18-10.42c-2.88-4.61-4.11-9.95-5.89-15.01
			c-0.62-1.77-1.48-3.39-2.17-5.1c-0.69-1.71-2.18-2.89-2.17-5.17c0.01-1.57-1.62-3.33-2.85-4.7c-1.71-1.92-1.74-4.72-3.72-6.49
			c-0.74-0.65-1.42-0.68-2.24-0.67c-0.37-1.72,0.63-3.51-0.65-5.25c-1.12-1.53,0.49-3.94-1.35-5.42c-0.44-5.25-2.6-10.27-2.05-15.67
			c0.14-1.36,0.33-2.75-0.76-4.2c-0.68-0.92-0.73-3.01,0.17-4.21c1.19-1.57-0.14-3.6,0.76-4.66c1.45-1.72,0.43-3.5,1.05-5.3
			c1.51-0.64,1.58-2.55,2.72-3.69c6.61-6.58,13.02-13.39,19.89-19.69c2.7-2.48,6.14-4.04,10.38-2.03c3.46,1.64,7.41,2.25,11.5,3.41
			c3.05,2.98,5.93,8.1,5.86,10.8c-3.02-1.26-5.99-2.51-8.97-3.76c-1.56-0.76-3.52,0.4-5.03-1.21c-0.32-0.34-1.36-0.33-1.9-0.09
			c-3.24,1.43-6.55,2.77-9.59,4.57c-1.41,0.84-2.66,2.2-3.35,4.05c-0.45,1.21-1.65,2.44-2.2,3.59c-0.98,2.06-3.44,3.92-2.15,6.77
			c1.11-0.09,2.46,0.41,2.81-0.73c0.91-2.91,3.78-4.21,5.14-6.86c1.72-3.38,5.81-4.16,8.84-6.13c1.91-1.23,3.03,0.49,4.46,0.79
			c6.98,1.49,13.23,4.55,18.73,9.52c-1.03,2.23,0.38,4.5-1.04,6.78c-1.13,1.82,0.54,4.54-1.28,6.45c0.44,3.76-2,7.02-1.92,10.67
			c0.03,1.33-1.34,1.74-1.28,3.07c0.02,0.52-1.12,2.18-2.8,0.98c0-2.19-0.7-4.82,0.18-6.73c1.06-2.31,1.06-4.55,0.7-6.65
			c-0.56-3.32-0.85-6.8-3.61-9.5c-4.57-4.49-10.27-5.38-16.18-5.55c-1.16-0.03-2.59,0.87-3.31,1.01c-2.17,2.17-3.93,3.92-5.33,5.32
			c-2.27,5.85-1.17,11.58-1.51,17.2c0.94,0.44,1.18,1.49,2.75,1.27c0.19-0.32,0.62-1.03,1.27-2.12c-0.8-2.66,0.87-5.71,1.04-8.93
			c0.17-3.09,0.92-5.96,3.59-7.87c2.07,0,4.11-0.26,6.06,0.06c3.84,0.63,7.84,1.23,9.46,6.13c-0.86,4.92,1.16,10.44-1.31,15.54
			c-1.24,0.76-2.73-0.35-3.99,0.92c-1.03,1.15-1.92,2.61-1.8,4.83c0.46,1.02,1.73,1.37,3.2,2.05c-0.9,0.62-1.68,1.16-2.4,1.66
			c1.24,5.09-2.19,7.72-5.15,10.6c1.91,1.96,1.21,4.15,1.33,6.22c-2.39-0.11-3.16,1.22-2.97,3.77c-0.95,0.77-2.11,1.7-2.99,2.4
			c0,1.44,0,2.43,0,3.37c2.4,2.4,4.74,4.77,7.11,7.11c7.87,7.77,15.44,15.86,23.89,23.04c1.13,0.96,2.56,1.23,3.59,2.35
			c1.06,1.15,2.32,2.14,3.64,3.1c3.46,2.51,7.31,4.09,11.1,5.87c0.78,0.36,1.25,1.84,2.71,0.43c-0.7-1.51-1.46-3.15-2.15-4.63
			c0.3-0.8,1.22-0.96,1.06-1.8c1.99,2.15,3.51,4.79,6.15,6.16c1.37-0.84,1.03-2.07,0.79-2.81c-1.19-3.64-2.27-7.39-4.02-10.76
			c-1.94-3.72-4.58-7.08-6.91-10.59C88.83,338.19,89.16,337.85,89.14,337.16z"/>
		<path class="st3" d="M142.14,181.16c0,0.83,0,1.67,0,2.5c-0.61,0.85-1.52,0.37-2.58,0.55c-2.8-3.62-5.53-7.18-6.61-12.11
			c-0.81-3.69-2.6-7.28-3.35-11.06c-0.8-4-2.75-7.81-2.4-11.99c0.13-1.6-1.43-2.44-1.15-4.11c0.21-1.31,0.74-2.98-0.73-4.16
			c-0.18-0.15-0.21-0.61-0.16-0.91c0.74-4.77-1.61-9.34-0.98-14.08c0.5-3.8-1.19-7.34-1.06-11.09c0.13-3.83,0.03-7.66,0.03-11.5
			c0-1.33-0.38-2.81,0.07-3.97c1.5-3.89,0.71-8.19,2.35-12.02c0.67-1.56,0.99-3.29,1.82-4.74c2.23-3.91,3.9-8.13,6.66-11.75
			c2.73-3.58,5.09-7.45,8.5-10.47c1.71-1.51,2.33-3.85,4.23-5.26c7.08-5.26,13.61-11.19,21.8-14.97c5.03-2.32,9.5-5.88,14.54-8.35
			c4.28-2.1,16.87-6.01,21.85-7.62c6.62-2.14,13.32-4.01,19.94-6.14c5.15-1.66,10.39-3.06,15.52-4.78
			c7.33-2.46,15.11-3.49,22.14-6.9c3.86,0.09,7.29-1.9,11.13-2.2c3.2-0.25,6.33-1.52,9.45-2.44c0.42-0.12,0.81-0.47,1.31-0.44
			c7.23,0.48,14.36-1.88,21.57-0.94c3.38,0.44,6.67,1.59,10.01,2.33c3.34,0.74,6.7,1.66,9.86,2.79c4.19,1.5,8.38,3.13,12.6,4.55
			c7.53,2.54,13.76,7.28,20.19,11.54c7.05,4.67,14.27,9.31,19.88,15.7c5.17,0.5,9.82-1.97,14.94-2.06c2.02-1.39,4.28-2.51,6.71-1.78
			c1.96-0.84,1.76-2.97,3.23-3.92c1.32-0.13,0.17,1.41,1.36,1.71c0.42,0.05,1.2,0.13,1.95,0.21c0.68,0.77,0.23,1.62,0.34,2.4
			c-0.94,0.94-1.89,1.89-3.01,3c0.65,4.27-1.97,7.93-3,12.1c3.98-0.63,7.45-2.59,11.17-3.76c5.11-1.61,9.98-4.05,14.83-6.39
			c5.17-2.49,10-5.56,13.91-9.86c0.88-4.68,5.38-12.54,7.82-13.54c1.37,3.61-1.85,6.9-0.61,10.3c-3.99,5.16-4.49,11.35-6.32,16.91
			c0.36,0.36,0.47,0.57,0.6,0.59c0.64,0.09,1.3,0.12,2.14,0.19c1.72-2.55,4.78-3.61,6.92-5.9c3.73-3.99,6.77-8.41,9.59-13.05
			c2.23-3.67,4.3-7.49,7.99-10.52c-0.2-2.63,0.59-5.5-1.16-8c1.08-0.97,1.65-0.52,2.34,0.08c1.07,0.93,1.68,2.53,3.84,2.37
			c-0.29,3.79,0.94,7.2,1.76,10.71c0.61,2.63,0.55,5.67-0.45,8.67c-0.81,2.44-0.76,5.32-1.36,7.95c-1.28,5.64-1.71,11.46-3.76,16.94
			c-0.72,1.92,0.4,4.24-1.23,5.99c0.07,4.83-1.13,9.53-2.17,14.13c-1.13,4.98-1,10.33-3.68,14.94c-0.99,7.02-3.67,13.46-7.2,19.51
			c-3.05,5.23-5.21,10.96-8.95,15.8c-0.27,2.68-3.91,3.04-4,5.84c-5.72,4.46-9.01,11.29-15,15.5c-3.28,2.78-6.81,5.33-9.74,8.43
			c-1.64,1.73-4.33,2.14-5.26,4.57c-0.69-0.03-1.03,0.31-1,1c-0.5,0-1.12-0.19-1.48,0.03c-8.48,5.13-17.86,8.39-26.6,12.98
			c-3.83,2.01-7.75,3.79-11.92,4.99c-5.26,1.71-10.64,2.36-16.16,2.01c-2.72-0.17-5.37-0.06-8.13-0.85
			c-2.68-0.77-5.67-0.34-8.56-1.05c-4.98-1.22-10.03-2.45-14.7-4.37c-7.11-2.93-14.37-5.57-21.2-9.11c-1.16-0.6-2.16-0.48-3.25-0.63
			c-0.36-1.18-1.19-1.6-2.33-2.11c-1.38-0.62-2.69-1.6-3.97-2.55c-5.13-3.82-10.14-7.81-16.12-10.46c-3.65-1.62-7.29-3.3-10.94-4.95
			c-7.58-3.41-14.75-5.59-21.52-5.94c-0.63-0.03-1.37,0.02-1.87-0.28c-2.48-1.49-5.38-1.13-7.65-0.51
			c-2.93,0.81-6.12,1.19-8.79,2.82c-2.79,1.7-5.88,2.8-8.54,4.84c-1.12,0.86-2.39,1.67-3.29,2.72c-2.59,3.03-5.26,6.07-7.35,9.45
			c-1.1,1.79-2.68,3.11-3.68,4.94c-3.36,6.13-6.16,15.42-5.99,21.5c0.09,3.16,0.03,6.33,0.01,9.49c-0.02,3.17-0.94,5.97-3.5,8.03
			c-2.16,0-4.33,0-6.49,0c-1.74-1.58-3.51-3.12-5.22-4.73c-1.57-1.48-3.08-3.03-4.59-4.58c-1.34-1.37-2.76-2.56-4.63-2.72
			c-1.95,1.64-2.08,4.76-5.03,5.08c-2.07-3.13-2.21-6.2,0.14-9.18c0.51-0.64,0.19-1.25,0.32-1.87c0.33,0,0.67,0,1,0
			c2.33,0,4.67,0,7,0c1.36-0.11,0.65,1.46,1.22,1.66c2.83,0.96,3.94,4,6.33,5.24c2.59,1.34,3.62,3.88,5.52,5.7
			c0.34,0.32,0.48,0.46,0.72,0.11c0.35-0.35,0.71-0.71,1.23-1.23c-0.4-4.54,1.48-9.05,1.04-13.83c-0.52-5.64,1.79-10.75,3.68-15.92
			c1.28-3.51,3.76-6.19,6.07-8.95c2.29-2.73,4.65-5.46,6.87-8.21c2.55-3.16,4.84-6.23,8.83-7.64c1.15-0.4,2.09-1.37,3.13-2.07
			c5.16-3.47,10.95-5.11,17.04-5.85c0.96-0.12,2.35-0.34,2.87,0.17c1.33,1.32,2.87,0.93,4.19,0.73c3.33-0.5,6.31,1.53,9.58,1.07
			c1.11,2.02,3.26,0.96,4.86,1.48c6.91,2.24,13.34,5.58,20.04,8.29c5.12,2.07,9.3,5.72,13.85,8.76c4.25,2.85,8.34,5.75,13.28,7.72
			c5.24,2.08,10.92,3.45,15.32,6.75c1.34,0,2.34,0,3.34,0c-0.12,0.84,0.62,1.38,1.07,1.5c3.88,1.05,7.48,2.91,11.51,3.57
			c2.59,0.42,5.24,1.38,7.75,1.57c6.73,0.51,13.58,0.74,20.27,0.03c3.81-0.41,7.6-2.42,11.2-4.09c5.72-2.65,11.27-5.63,17.1-8.06
			c3.83-1.59,7.52-3.55,11.15-5.56c4.38-2.42,8.74-4.94,11.95-8.97c2.88-1.72,4.81-4.54,7.68-6.35c2.3-1.46,4-3.86,5.99-5.81
			c0.58-0.57,0.2-1.23,0.32-1.84c3.65-2.07,5.6-5.77,7.88-8.96c3.43-4.8,6.71-9.75,9.67-14.91c2.56-4.46,4.99-8.88,6.45-13.82
			c0.83-2.81,1.8-5.59,2.58-8.41c1.9-6.95,3.37-14.02,4.27-21.15c0.34-2.69,1.88-5.23,1.15-8.05c2.07-3.82,1.98-8.19,2.8-12.27
			c0.8-3.99,1.76-8.02,2.57-12.01c0.8-3.94,0.27-7.59,0.5-11.79c-0.65,0.65-0.94,0.84-1.11,1.12c-2.6,4.41-5.19,8.83-7.75,13.26
			c-0.14,0.25-0.02,0.65-0.02,0.99c-3.32,2.24-5.83,5.35-8.6,8.16c-4.19,4.24-9.18,7.35-14.31,10.17
			c-7.71,4.23-15.46,8.58-24.23,10.23c-3.19,0.6-6.36,2.08-9.81,1.22c1.12-2.11,3.06-2.86,4.87-3.78c3.98-2.03,8.37-3.19,12.16-5.62
			c0.47-0.3,0.92-0.23,1.34-0.4c5.28-2.04,10.31-4.52,14.71-8.46c-1.13-2.84,1.97-5.59,0.11-9.16c-2.81,3.57-6.67,4.7-10.06,6.6
			c-1.86,1.05-4.04,1.59-5.96,2.47c-6.61,3.03-13.47,5.31-20.32,7.7c-3.15,1.1-6.77,1.38-9.5,3.91c-1.73-0.27-3.7,0.4-5.86-0.68
			c1.15-1.6,2.07-2.68,3.67-3.41c4.76-2.16,7.23-6.19,8.93-11.03c0.53-1.52,0.28-3.4,1.71-4.6c-2.06-1.09-3.73,0.37-5.54,0.66
			c-2.03,0.32-4.04-0.23-6.16,0.87c-1.68,0.87-4.08-0.24-6.06,1.07c-0.69,0.46-2.13,0.42-2.92,0.01c-3.45-1.78-7.1-0.52-10.61-0.98
			c-0.8-0.1-1.92,0.73-2.66-1.08c2.63,0.34,5,0.19,7.24-1.48c-1.94-0.84-3.64-1.88-5.32-2.93c-5.35-3.33-10.51-6.93-15.55-10.7
			c-8.56-6.4-18.39-10.17-28.31-13.74c-4.51-1.62-9.31-2.3-13.89-3.86c-2.41-0.82-5.16-1.71-8.03-1.25
			c-2.11,0.34-4.32,0.13-6.49,0.05c-2.27-0.08-4.2,1.52-6.59,1.06c-5.4-1.04-10.31,2.08-15.61,2.09
			c-5.04,2.57-10.88,2.39-16.02,4.78c-2.91,1.36-6.23,1.89-9.41,2.61c-3.19,0.72-6.23,1.93-9.41,2.72
			c-3.82,0.95-7.56,2.61-11.41,3.74c-3.87,1.15-7.89,1.98-11.66,3.26c-10.35,3.51-20.72,7.03-30.6,11.79
			c-2.1,1.01-3.96,2.48-6.01,3.59c-3.4,1.84-6.73,3.9-10.33,5.23c-3.81,1.4-6.62,4.16-9.9,6.23c-4.11,2.59-7.79,5.85-10.62,9.92
			c-1.62,0.6-2.69,1.95-3.62,3.21c-3.07,4.17-6.21,8.34-8.79,12.81c-3.76,6.52-6.96,13.31-6.64,21.2c0.09,2.19,0.57,4.45-0.84,6.64
			c-0.57,0.89-0.43,2.86,0.21,3.76c0.81,1.13,0.6,2.16,0.67,3.24c0.39,6.01-0.76,12.07,0.94,18.06c0.64,2.25-0.61,4.88,1.07,7.05
			c-0.58,4.58,1.99,8.93,0.77,13.7c0.83,0.64,1.61,1.25,2.34,1.81c-0.51,3.14-0.1,6.08,1,8.72c0.91,2.2,1.4,4.48,1.8,6.71
			c0.79,4.36,3.61,7.86,4.62,12.08C141.67,181.19,141.97,181.16,142.14,181.16z"/>
		<path class="st4" d="M47.14,311.16c-0.12-2.06,0.58-4.26-1.33-6.22c2.96-2.88,6.39-5.51,5.15-10.6c0.72-0.5,1.5-1.04,2.4-1.66
			c-1.47-0.67-2.73-1.02-3.2-2.05c-0.11-2.22,0.77-3.68,1.8-4.83c1.27-1.27,2.76-0.16,3.99-0.92c2.47-5.1,0.45-10.62,1.31-15.54
			c-1.62-4.9-5.62-5.5-9.46-6.13c-1.95-0.32-3.99-0.06-6.06-0.06c-2.67,1.91-3.42,4.78-3.59,7.87c-0.17,3.21-1.84,6.27-1.04,8.93
			c-0.66,1.1-1.08,1.8-1.27,2.12c-1.57,0.23-1.81-0.82-2.75-1.27c0.34-5.63-0.76-11.36,1.51-17.2c1.4-1.4,3.15-3.15,5.33-5.32
			c0.72-0.13,2.16-1.04,3.31-1.01c5.9,0.17,11.61,1.06,16.18,5.55c2.75,2.71,3.05,6.18,3.61,9.5c0.35,2.1,0.36,4.33-0.7,6.65
			c-0.87,1.91-0.18,4.54-0.18,6.73c1.67,1.19,2.82-0.47,2.8-0.98c-0.05-1.33,1.31-1.73,1.28-3.07c-0.08-3.65,2.36-6.9,1.92-10.67
			c1.82-1.91,0.14-4.63,1.28-6.45c1.42-2.28,0.01-4.55,1.04-6.78c-5.5-4.97-11.75-8.03-18.73-9.52c-1.43-0.31-2.55-2.03-4.46-0.79
			c-3.03,1.96-7.12,2.75-8.84,6.13c-1.36,2.66-4.23,3.95-5.14,6.86c-0.36,1.14-1.71,0.64-2.81,0.73c-1.28-2.84,1.17-4.71,2.15-6.77
			c0.55-1.15,1.75-2.38,2.2-3.59c0.69-1.85,1.94-3.21,3.35-4.05c3.04-1.8,6.35-3.14,9.59-4.57c0.54-0.24,1.58-0.25,1.9,0.09
			c1.51,1.61,3.47,0.44,5.03,1.21c2.97,1.25,5.95,2.49,8.97,3.76c0.07-2.69-2.81-7.82-5.86-10.8c-4.09-1.17-8.04-1.77-11.5-3.41
			c-4.24-2.01-7.68-0.45-10.38,2.03c-6.87,6.3-13.28,13.11-19.89,19.69c-1.14,1.14-1.22,3.05-2.72,3.69
			c-0.61,1.8,0.41,3.58-1.05,5.3c-0.89,1.06,0.43,3.08-0.76,4.66c-0.9,1.19-0.86,3.29-0.17,4.21c1.08,1.45,0.9,2.85,0.76,4.2
			c-0.55,5.41,1.62,10.42,2.05,15.67c1.84,1.49,0.22,3.9,1.35,5.42c1.28,1.74,0.28,3.53,0.65,5.25c-1,0-2,0-3,0
			c-1.48-1.79-1.2-4.16-1.83-6.21c-0.58-1.9-1.17-3.86-1.73-5.8c-0.7-2.43-1.91-4.75-1.43-7.38c0.37-2.02-1.22-3.55-1.12-5.59
			c0.09-1.82,0.5-3.68-0.7-5.69c-0.75-1.26-0.07-3.65,0.36-5.61c0.66-3.06,2.02-6.09,1.46-8.96c2.99-5.89,6.77-10.79,11.52-14.58
			c4.4-3.51,8.12-7.63,12.2-11.42c2.98-2.77,6.69-4.69,10.51-4.53c3.25,0.14,6.73,0.89,9.93,2.34c2.66,1.21,5.58,1.82,9.02,2.89
			c3.85,4.68,7.17,10.26,8.2,17.45c1.31,1.31,2.96,2.95,4.51,4.49c0.36,2.8,1.98,5.32,0.89,7.94c3.95,3.35,5.07,7.45,5.28,12.15
			c0.22,5.06-1.08,9.87-2.24,14.61c-0.9,3.67-3.29,7-5.62,10.11c-0.51,0.69-1.54,1.02-2.37,1.43c-1.65,0.82-3.34,1.59-5.07,2.4
			c-2.98-0.82-5.92-1.98-9.4-2.14c-0.46,2.64-2.88,4.29-3.58,7.27c3.42,3.11,5.68,7.33,9.29,10.42c6.9,5.89,14.05,11.47,21.73,16.31
			c1.13,0.71,2.05,1.55,2.95,2.42c0.71,0.7,1.43,0.68,2.24,0.67c2.33,3.51,4.97,6.87,6.91,10.59c1.76,3.37,2.84,7.12,4.02,10.76
			c0.24,0.74,0.59,1.97-0.79,2.81c-2.63-1.37-4.16-4.01-6.15-6.16c-1.33-2.6-2.66-5.2-4-7.79c-1.41-2.71-2.95-5.48-5.51-7.12
			c-7.43-4.78-15.01-9.27-21.5-15.41c-1.58-1.49-3.97-2.5-5-4.38c-1.15-2.11-3.15-3.45-4.11-5.74c-0.69-1.65-2.83-2.58-3.39-4.56
			C48.13,311.16,47.63,311.16,47.14,311.16z M73.18,270.59c0.21,4.38-1.12,8.7-2.27,12.86c-1.13,4.09-3.67,7.86-8.82,8.89
			c-1.56,0.31-3.35,0.55-4.79,0.97c-0.56,1.57,0.61,1.97,1.35,2.93c2.76-1.2,5.26,1.72,8.15,0.75c0.75-0.75,1.39-1.54,2.17-2.14
			c2.76-2.14,3.64-5.5,5.02-8.38c1.7-3.54,1.51-11.09,0.7-17.32C74.21,269.62,73.75,270.05,73.18,270.59z"/>
		<path class="st5" d="M142.14,181.16c-0.17,0-0.47,0.03-0.48,0c-1.01-4.22-3.84-7.71-4.62-12.08c-0.4-2.23-0.89-4.51-1.8-6.71
			c-1.09-2.64-1.51-5.58-1-8.72c-0.73-0.56-1.51-1.17-2.34-1.81c1.22-4.77-1.35-9.12-0.77-13.7c-1.68-2.17-0.43-4.8-1.07-7.05
			c-1.7-5.98-0.55-12.05-0.94-18.06c-0.07-1.09,0.14-2.11-0.67-3.24c-0.64-0.89-0.78-2.87-0.21-3.76c1.42-2.18,0.93-4.45,0.84-6.64
			c-0.32-7.89,2.88-14.68,6.64-21.2c2.58-4.48,5.72-8.64,8.79-12.81c0.93-1.26,2-2.61,3.62-3.21c0.5,5.09-1.94,9.5-3.64,13.98
			c-1.69,4.44-2.6,9.01-3.25,13.6c-0.55,3.92-0.14,7.97-0.09,11.97c0.01,0.78-0.11,1.52,0.31,2.36c2.9,5.83,3.29,12.32,4.54,18.56
			c0.59,2.93,1.18,5.82,2.14,8.63c0.94,2.77,1.73,5.63,3.04,8.22c3.4,6.74,7.15,13.32,9.92,20.36c2.31,5.88,6.69,10.28,10.4,15.16
			c1.68,2.21,4.27,3.63,5.63,6.16c-2.33,0-4.67,0-7,0c0-0.83,0-1.65,0-2.55c-0.56-0.54-1.17-1.09-1.74-1.7
			c-1.85-1.98-4.01-2.87-6.81-2.81c-5.32,0.12-9.82,1.92-13.55,5.67c-0.82,0.83-1.55,1.74-2.9,1.39
			C144.14,181.16,143.14,181.16,142.14,181.16z"/>
		<path class="st6" d="M412.14,158.16c-0.03-0.69,0.31-1.03,1-1c1.08-0.15,2.09-0.01,3.23-0.58c2.17-1.07,4.19-2.61,6.39-2.67
			c2.08-1.64,3.27-3.72,5.38-4.75c0.28,0.11,0.78,0.19,0.8,0.33c0.37,3.01,1.17,5.9,2.18,8.75c0.2,0.57,0.03,1.28,0.03,1.92
			c-0.83,0-1.67,0-2.56,0c-1,4.39-1.87,8.83-1.42,13.37c0.52,5.26-1.73,10.32-1.02,15.58c-1.68,2.35-0.53,5.1-1.06,7.57
			c-0.82,3.79-1.11,7.67-2.85,11.31c-1.45,3.04-2.57,6.26-4.08,9.3c-0.44,0.9-0.93,1.68-2.01,1.87c-1.45-2.31-2.32-4.76-2.02-7.55
			c0.12-1.14,0.02-2.3,0.02-3.45c-0.52-1.41,1.35-2.18,0.86-3.85c-2.36-0.61-4.14,0.66-5.72,2.24c-2.17,2.17-4.68,3.89-7.18,5.59
			c-8.93,6.09-18.15,11.75-26.96,18.02c-4.15-2.77-7-6.2-5.85-11.57c1.45-3.29,4.42-5.22,6.67-7.76c0.75-0.84,1.86-1.39,2.18-2.59
			c1.41-5.38,5.69-8.68,9.58-11.9c3.63-3.02,7.03-6.04,9.74-9.92c2.85-4.08,5.63-8.23,9.43-11.6c1.69-1.5,4.12-2.04,5.25-4.45
			C412.14,166.47,412.14,162.32,412.14,158.16z"/>
		<path class="st4" d="M145.14,181.16c1.36,0.35,2.08-0.56,2.9-1.39c3.73-3.75,8.24-5.55,13.55-5.67c2.79-0.06,4.96,0.83,6.81,2.81
			c0.56,0.6,1.18,1.15,1.74,1.7c0,0.9,0,1.72,0,2.55c-0.33,0-0.67,0-1,0c-2.19,0.2-3.79-1.37-5.51-2.23c-1.47-0.74-2.8-1-4.09-0.6
			c-4.93,1.54-9.17,4.23-12.37,8.37c-0.24,0.31-0.03,0.97-0.03,1.46c-0.28,0.12-0.76,0.17-0.82,0.36
			c-1.96,5.55-2.15,11.43-3.14,17.16c-0.73,4.22,0.21,8.46,1.12,12.52c0.49,2.18,0.81,4.57,1.99,6.63
			c2.02,3.56,4.25,6.95,6.81,10.17c4.05,5.11,8.86,8.44,15.52,8c2.15-0.51,3.29-2.16,4.67-3.5c1.9-1.86,3.82-3.71,5.63-5.67
			c0.69-0.74,1.42-0.69,2.23-0.68c0,1,0,2,0,3c-0.61-0.11-0.78,0.3-1.01,0.75c-1.73,3.39-2.99,7.13-6.97,8.76
			c-1.03,0.42-1.16,1.46-1.02,2.49c-0.33,0-0.67,0-1,0c-2.33,0-4.67,0-7,0c-1.06-0.14-1.73-1.49-3-1
			c-5.79-2.47-9.64-7.01-13.52-11.78c-2.24-2.75-3.6-5.87-5.41-8.77c-1.71-2.74-1.64-6.22-3.02-9.18c-0.32-0.68-0.05-1.64-0.05-2.46
			c0-3.31-0.09-6.63,0.02-9.94c0.25-7.75,1.38-15.3,5.67-22C145.25,182.36,145,181.77,145.14,181.16z"/>
		<path class="st7" d="M161.14,247.16c1.27-0.49,1.94,0.86,3,1c0.47,1.28-0.91,1.97-1.04,3.45c1.46,0.51,1.02,1.93,1.03,3.2
			c0.02,4.32,0,8.64,0.01,12.96c0,0.99-0.13,2.01,0.09,2.96c1.19,5.16,1.15,7.51,0.15,11.76c-0.36,1.54-1.1,3.39,0.75,4.68
			c0,0.5,0.22,1.19-0.03,1.46c-4.64,5.04-8.26,10.83-12.27,16.33c-0.05,0.07-0.23,0.04-0.8,0.13c0.93-3.33-1.23-6.15-1.01-9.47
			c0.15-2.26,0.7-4.37,1.1-6.55c0.4-2.17-0.85-4.6,1.01-6.55c-0.71-3.45,1.6-6.61,0.99-10.04c-0.7-3.94,2.12-7.56,0.86-11.22
			c2.21-3.64,3.12-7.39,4.15-11.1c0.59,0,1.18,0,2,0C161.14,248.98,161.14,248.07,161.14,247.16z"/>
		<path class="st8" d="M428.14,149.16c-2.11,1.04-3.3,3.11-5.38,4.75c-2.2,0.05-4.22,1.59-6.39,2.67c-1.15,0.57-2.15,0.43-3.23,0.58
			c0.93-2.43,3.62-2.84,5.26-4.57c2.94-3.1,6.46-5.65,9.74-8.43C428.14,145.83,428.14,147.49,428.14,149.16z"/>
		<path class="st4" d="M117.14,381.16c-0.61,0.12-1.36-0.33-1.81,0.33c-0.57,0.84-1.39,0.66-2.19,0.67c0-0.33,0-0.67,0-1
			c0.01-0.78-0.11-1.52,0.63-2.17c1.32-1.17,2.52-2.48,3.78-3.73c0.76,0,1.53,0,2.19,0c0.68,0.62,0.29,1.3,0.4,1.9
			C117.36,377.58,117.18,377.82,117.14,381.16z"/>
		<path class="st4" d="M118.14,440.16c0.28,0.12,0.81,0.23,0.81,0.35c0.04,3.43,0.04,6.87,0,10.3c0,0.12-0.53,0.23-0.81,0.35
			c-0.28-0.12-0.81-0.23-0.81-0.35c-0.04-3.43-0.04-6.87,0-10.3C117.32,440.39,117.85,440.28,118.14,440.16z"/>
		<path class="st4" d="M115.14,410.16c0.49,0,0.99,0,1.8,0c0.08,1.4,0.98,2.86-0.8,4c-0.87,0.06-1-0.49-1-1.18
			C115.14,412.04,115.14,411.1,115.14,410.16z"/>
		<path class="st4" d="M113.14,388.16c0.61,0,1.22,0,1.77,0c0.28,1.13,0.49,1.93-0.77,2C112.64,390.08,113.29,388.92,113.14,388.16z
			"/>
		<path class="st4" d="M115.14,398.16c0.94-0.07,1.06,0.57,0.98,1.24c-0.06,0.5-0.37,0.87-0.98,0.76c-0.94,0.07-1.06-0.57-0.98-1.24
			C114.21,398.42,114.53,398.05,115.14,398.16z"/>
		<path class="st4" d="M116.14,425.16c0.61,0,1.22,0,1.77,0c0.28,1.13,0.49,1.93-0.77,2C115.64,427.08,116.29,425.92,116.14,425.16z
			"/>
		<path class="st9" d="M181.14,236.16c0-1,0-2,0-3c0.48,0.08,0.78-0.14,0.89-0.59c0.02-0.08-0.22-0.31-0.29-0.29
			c-0.46,0.1-0.68,0.41-0.59,0.89c-0.82-0.01-1.55-0.06-2.23,0.68c-1.8,1.95-3.72,3.8-5.63,5.67c-1.37,1.35-2.52,2.99-4.67,3.5
			c-6.67,0.44-11.47-2.89-15.52-8c-2.55-3.22-4.78-6.61-6.81-10.17c-1.18-2.07-1.5-4.46-1.99-6.63c-0.91-4.06-1.85-8.3-1.12-12.52
			c0.99-5.73,1.18-11.61,3.14-17.16c0.07-0.19,0.54-0.24,0.82-0.36c0.81,0.01,1.57,0.09,2.23-0.68c1.16-1.36,2.59-2.33,4.51-2.33
			c0.83,0,4.75,1.32,5.69,1.92c4.22,2.71,7.39,6.97,12.44,8.49c0.42,0.13,0.68,0.72,1.07,1.02c3.57,2.7,5.08,6.77,7.1,10.52
			c0.78,1.44,0.89,3.44,3.02,4.11c0.82-0.03,1.16-0.92,1.99-1.52c-0.5-3.82,0.51-7.39,2.95-10.53c2.16,0,4.33,0,6.49,0
			c2.57-2.07,3.49-4.86,3.5-8.03c0.02-3.16,0.08-6.33-0.01-9.49c-0.17-6.08,2.63-15.37,5.99-21.5c1-1.83,2.58-3.16,3.68-4.94
			c2.08-3.38,4.75-6.41,7.35-9.45c0.9-1.05,2.17-1.86,3.29-2.72c2.66-2.03,5.75-3.14,8.54-4.84c2.67-1.63,5.86-2.01,8.79-2.82
			c2.26-0.62,5.17-0.98,7.65,0.51c0.5,0.3,1.24,0.25,1.87,0.28c6.77,0.35,13.94,2.53,21.52,5.94c3.65,1.64,7.29,3.33,10.94,4.95
			c5.98,2.65,10.98,6.63,16.12,10.46c1.28,0.95,2.59,1.93,3.97,2.55c1.13,0.51,1.96,0.93,2.33,2.11c-0.12,0.28-0.24,0.82-0.35,0.81
			c-3.17-0.04-6.01,0.86-8.51,2.84c1.18,0.39,0.71,1.67,1.37,2.43c4.61,5.25,10.55,8.43,16.92,10.88c3.87,1.49,7.84,2.8,11.87,3.76
			c4.27,1.02,8.64,1.81,13.01,2.2c4.11,0.37,8.29,0.11,12.44,0.07c3.03-0.03,6.04-0.72,8.93-1.34c4.93-1.06,9.67-3.02,14.46-4.67
			c1.34-0.46,2.1-1.45,1.87-2.98c4.17-1.2,8.09-2.98,11.92-4.99c8.74-4.59,18.12-7.85,26.6-12.98c0.37-0.22,0.98-0.03,1.48-0.03
			c0,4.16,0,8.31,0,12.21c-1.13,2.42-3.56,2.96-5.25,4.45c-3.8,3.36-6.58,7.51-9.43,11.6c-2.72,3.88-6.11,6.9-9.74,9.92
			c-3.89,3.23-8.16,6.52-9.58,11.9c-0.31,1.19-1.43,1.74-2.18,2.59c-2.25,2.55-5.22,4.48-6.67,7.76c-1.15,5.38,1.7,8.8,5.85,11.57
			c0.1,1.55-1.43,0.92-2.11,1.51c-4.74,4.06-10.08,7.4-14.58,11.75c-0.89,0.86-1.76,0.68-2.81,0.75c-1.24-1.24-2.45-2.63-3.85-3.79
			c-1.34-1.12-2.06-3.07-4.06-3.29c-0.96,0.69-0.47,1.59-0.66,2.68c3.1,1.98,4.29,5.78,7.17,7.97c-0.59,6.36,0.85,11.85,3.76,17.23
			c1.51,2.8,3.06,5.02,5.99,6.2c0.83,0,1.67,0.01,2.5,0c6.54-0.07,11.89-2.79,16.48-7.3c1.41-1.38,1.82-3.26,2.79-4.85
			c3.16-5.18,6.45-10.3,9.31-15.64c2.47-4.61,4.54-9.44,6.57-14.27c1.97-4.68,3.82-9.43,5.38-14.26c0.39-1.21,0.84-2.34,1.75-2.72
			c2.15-0.9,3.32-3,5.36-3.96c0,1.15,0.1,2.31-0.02,3.45c-0.3,2.8,0.57,5.24,2.02,7.55c0.11,1.7-1.01,2.9-1.75,4.26
			c-3.45,6.34-7.46,12.31-11.95,17.97c-5.17,6.5-10.12,13.15-13.81,20.67c-0.89,1.81-1.87,3.78-2.18,5.53
			c-0.56,3.18-2.38,5.14-4.41,7.18c-1.76,1.76-3.4,3.67-5.32,5.24c-1.74,1.43-3.53,3.4-6.21,1.22c-0.6-0.48-1.92-0.07-3.14-0.07
			c-0.11,2.05-1.13,4.12,1.34,6.02c-4.37,3.81-8.47,7.4-12.57,10.98c-0.6-3.97,1.36-7.38,2.51-10.94c0.89-2.75,1.88-5.41,1.36-8.79
			c-0.62-0.45-1.56-1.13-3.07-2.23c0.4,0.03-0.08-0.03-0.56-0.03c-2-0.01-4.02,0.21-5.98-0.06c-2.67-0.36-5.05,0.72-7.58,1.05
			c-2.48,0.33-4.83,0.99-7.2,1.89c-2.89,1.09-6.03,1.71-9.12,2.03c-2.86,0.3-5.45,1.33-8.17,2c-3.81,0.94-7.67,1.71-11.61,2.21
			c-4.64,0.58-9.37,1.03-13.85,2.62c-0.59,0.21-1.26,0.24-1.9,0.24c-6.28-0.03-12.63,0.56-18.64-1.99
			c-5.41,0.37-9.73-3.15-14.76-4.16c-0.54-0.11-1.46-0.83-1.43-1.84c1.93,0,3.85,0,5.78,0c0.68,0,1.29-0.09,1.22-1
			c2.53,0.02,5.07,0.07,7-2c2.05-0.35,4.09-0.73,5-3c0.58,0,1.17,0,2,0c0-0.83,0-1.42,0-2c1.59-0.6,2.55-2.12,4.6-2.33
			c1.2-0.12,2.9-1.01,4.12-1.93c6.31-4.76,13.19-8.7,19.28-13.74c0.69,0.03,1.03-0.31,1-1c0.69,0.03,1.03-0.31,1-1
			c1,0.04,1.4-1.4,2.54-1.04c0.88-3.49,4.04-2.72,6.21-3.07c0.26-0.81,0.28-1.51,0.56-1.64c1.69-0.79,3.38-1.65,5.18-1.25
			c12.11-11.98,12.11-11.98,12.35-16c-1.29,0-2.57,0-3.84,0c-0.13-0.61,0.2-1.23-0.33-1.87c-3.52-4.21-8.36-5.58-13.47-6.07
			c-3.3-0.32-6.66,0.02-9.99-0.09c-2.38-0.08-4.69-0.01-7.14-0.78c-2.8-0.88-6.1,0.15-9.03-1.17c-0.28-0.12-0.74-0.15-0.98,0
			c-3.04,1.85-6.4,0.55-9.62,1.05c-0.88,1.11-2.74,0.96-3.26,2.09c0,1.8,0,3.26,0,4.32c0.73,1.54,2.29,1.16,2.93,2.15
			c0.83,1.27,2.32,0.98,3.37,1.51c4.77,2.38,10.06,3.03,15.03,4.73c1.01,0.34,1.65,1.61,3.05,1.17c2.46-0.78,4.53,1.37,7.08,1.04
			c2.62-0.34,5.32-0.06,7.99-0.08c1.43-0.01,2.89,0.26,4.13-0.94c0.35-0.33,1.32-0.04,1.24,0.95c0,0.49,0.07,1.39-0.01,1.4
			c-1.98,0.33-1.99,2.54-3.57,3.6c-2.98,0-6.2,0-9.42,0c-3.12,0.76-5.91-1.49-9-1c-0.95-2.32-1.89-0.15-3.25,0.06
			c-0.99-1.32-3.32-1.12-4.15-3.06c-1.29,0-2.45,0-3.6,0c-1.06-0.14-1.73-1.49-3-1c-0.09-1.5-1.24-0.85-2-1c-1,0-2,0-3,0
			c-0.12-0.28-0.19-0.78-0.36-0.82c-3.68-0.76-7.4-1.36-11.05-2.21c-3.31-0.77-6.53-1.89-9.84-2.69c-5.71-1.39-10.89-4.4-16.75-5.28
			c-0.09-1.5-1.24-0.85-2-1c-7.43-2.71-14.9-4.92-23.51-2.52c3.98,2.21,7.72,3.18,11.51,3.87c0,0.65,0,1.15,0,1.65c0,1,0,2,0,3
			c-2.14,1.63-1,3.84-0.66,5.65c0.15,0.81,0.71,1.72,0.65,2.67c-0.35,5.33,1.08,10.45,2.12,15.56c0.99,4.85,3.82,9.03,6.43,13.24
			c0.66,1.07,2.46,0.22,2.46,1.86c0.01,2.73,2.21,3.7,4,5c1.02,1,2.02,2.02,3.08,2.98c0.17,0.16,0.61,0.02,0.92,0.02
			c0.09,1.5,1.24,0.85,2,1c-1.64,2.14-3.78,0.77-5.7,0.72c-0.45-0.01-0.91-0.8-1.67-0.74c-0.99,0.07-2,0.02-3,0.02
			c-8.59,7.69-12.6,14.77-14.96,26.18c-2.55-2.55-4.92-4.96-7.34-7.31c-0.6-0.59-0.21-1.25-0.34-1.86c0.16-1.06-0.18-1.85-1.04-2.57
			c-3.73-3.15-6.86-6.91-9.06-11.2c-1.35-2.64-3.67-4.31-5.2-6.78c-2.48-4-4.58-8.41-8.3-11.55c-1.38-1.16-2.79-2.55-3.06-4.19
			c-0.5-3.02-2.42-5.33-3.39-8.1c-1.24-3.53-3.51-6.71-2.96-10.75C183.33,238.39,182.56,237.06,181.14,236.16z M271.14,164.16
			c0.23-3.18-2.8-3.43-4.38-4.81c-4.05-0.95-7.24,0.41-9.79,3.48c-0.52,0.63-1.22,0.2-1.83,0.33c-0.15-0.71,0.47-1.72-1.17-2.09
			c-0.64,0.26-1.74,0.92-1.75,1.75c-0.06,2.91-1.83,5.28-2.25,8.12c-0.33,2.25-0.82,5.13-3.66,6.14c-3.01,0.98-5.88-0.44-8.5-1.18
			c-2.38-0.67-5.2-0.06-7.17-1.82c-1.48-1.32-2.9-0.88-4.27-0.78c-1,2.06,1.28,3.17,0.78,4.86c-0.43,1.7-2.3,2.25-2.93,3.58
			c0,2.11,0,4.08,0,5.85c1.25,1.75,3.16,2.65,3.93,4.57c0.13,0.95-0.31,1.96,0.22,2.69c1.49,1.8,3.87,1.77,5.3,3.31
			c1.99,0,3.99,0,5.98,0c0.9,1.18,2.77,0.99,3.65,2.9c-1.27,5.66-3.19,11.68-1.81,18.14c1.54-0.09,2.48-0.69,2.67-2.26
			c0.08-0.72-0.38-1.77,1-1.79c2.59,1.02,5.11,1.99,8.02,2.12c2.19,0.1,3.94-1.11,5.98-1.12c3.52,1.67,3.82,1.47,5.03-1.92
			c1.4-3.91,2.78-7.86,5.42-11.09c4.46,0,8.78,0,13.08,0c0.39-0.61,1.29-0.86,1.24-1.69c-0.35-0.46-0.93-0.66-0.77-1.29
			c0.49,0,0.99,0,1.25,0c3.68-2.85,6.6-5.98,5.75-11c0.97,0.08,0.98-0.6,1.01-1.38c-3.95-2.53-8.23-4.45-11.2-5.41
			c-3.19-3.17-5.39-5.34-7.75-7.68c1.55-0.6,0.38-2.48,1.04-3.54c0.8-1.28,0.53-2.76,1.34-3.92c0.93-1.34,0.64-2.68,0.26-3.94
			C273.26,162.67,272.27,163.7,271.14,164.16z M156.81,232.39c1.11,1.02,2.06,1.89,2.97,2.72c1.34,0,2.65,0,3.96,0
			c4.56-1.19,4.38-5.79,6.39-8.79c0-1.33,0.08-2.67-0.02-3.99c-0.1-1.4,0.46-2.91-0.62-4.46
			C163.95,221.42,159.05,225.3,156.81,232.39z"/>
		<path class="st10" d="M99.14,323.16c0.43-1.7,2.3-2.25,3-3.73c0.26-0.79-0.65-2.09,1-2.27c0.58,0,1.17,0,2,0c0-0.83,0-1.42,0-2
			c0.88-2.04,2.75-3.21,4.24-4.68c4.49-4.43,8.46-9.34,12.1-14.41c2.33-3.24,4.43-6.74,6.66-10.11c0.17-0.26,0.28-0.57,0.49-0.78
			c1.39-1.42,2.71-2.93,4.23-4.18c1.35-1.1,1.13-3.47,3.27-3.84c0.69,0.03,1.03-0.31,1-1c1.83-2.37,4.99-2.88,7-5
			c0.76-0.15,1.91,0.5,2-1c0.67,0,1.33,0,2,0c1.05,1.3,0.9,3.49,3,4c-1,5.04-2.41,10.03-2.89,15.12c-0.5,5.4-0.37,10.91,0.02,16.33
			c0.14,1.96,1.69,4.37,0.69,5.93c-1.18,1.84-0.31,3.5-0.65,4.3c0.6,1.19,0.98,1.93,1.16,2.28c2.72,0.24,1.94-2.66,3.66-2.95
			c1.83,0,3.66,0,5.19,0c2.01-1.07,3.79-2.01,5.65-3c2.06,0,4.45,0.59,6.35-0.12c4.7-1.75,9.43-0.38,14.11-0.88
			c0.65-0.07,1.19,0.1,1.79,0.52c2.93,2.05,6.03,3.54,8.15,6.92c2.43,3.88,5.09,7.82,8.63,10.96c0.82,0.73,1.91,1.34,2.14,2.59
			c-1.87,0.57-3.25-1.31-5.27-0.96c-0.9,0.53-2.32,0.9-2.96,1.83c-1.3,1.88-2.33,4-3.2,6.13c-0.87,2.15-1.87,4.31-1.66,6.62
			c-1.32,1.14-2.24,2.21-4.15,2.55c-2.64,0.47-5.14,1.97-7.6,3.22c-4.61,2.34-9.53,4.38-10.98,10.24c-0.17,1.16,0.37,2.93-0.28,3.72
			c-1.41,1.7-1.08,3.54-0.78,5.14c0.41,2.23,0.93,4.62,2.4,6.44c1.09,1.35,2.98,1.55,4.52,2.23c2.09,0.92,4.39,0.11,6.06,0.99
			c2.55,1.33,5.29,0.01,7.52,1.11c2.75,1.36,5.47,0.5,8.18,0.7c2.81,0.21,5.68-0.21,8.46,0.12c2.85,0.34,5.37-0.87,8.05-1.2
			c2.35-0.29,4.65-1.08,7.08-0.87c2.31-2.29,4.51-0.73,6.45,0.45c1.93,1.17,3,0.36,4.15-0.95c0-1.66,0-3.32,0-5
			c0.81-0.81,1.67-1.61,2.45-2.46c1.17-1.29,1.09-3.28,2.55-4.52c0-2.08,0.02-4.23,0-6.38c-0.03-3.6-2.82-8.01-5.75-10.55
			c-1.65-1.43-3.96-1.74-5.24-3.58c1.43-2.04,3.69-1.19,5.23-0.85c2.71,0.6,5.29,1.81,8.15,1.85c2.88,0.04,5.72,0.49,8.56,0.81
			c4.09,0.45,8.34,0.74,12.52-0.72c3.27-1.14,6.71-1.66,8.54-5.09c0.82-0.14,1,0.97,1.57,0.96c3.83-0.01,7.42,1.19,11.08,2.02
			c0.62,0.14,1.29,0.02,2.36,0.02c-0.36,1.91,0.44,3.58-0.84,5.57c-0.9,1.39,0.25,3.79-1.17,5.43c-1.95-1.32-3.9-2.65-5.6-3.8
			c-4.84-0.93-8.58,0.47-11.4,4.56c-0.15,3.9-0.29,8.07-0.81,12.28c-0.76,6.23-0.03,12.63-0.24,18.95
			c-0.21,6.23,1.79,12.31,1.05,18.56c-0.04,0.32-0.12,0.84,0.04,0.96c1.58,1.1,1.12,2.81,0.85,4.1c-0.34,1.7,1.15,2.6,1.13,4.1
			c-0.04,3.88,0.26,7.71,0.77,11.59c0.48,3.64,1.49,7.09,2.24,10.62c0.25,1.16,0.99,2.27,1.67,3.29c3.03,4.51,7.12,8.06,10.69,11.73
			c1.27,0,2.25,0,3.27,0c2.11-2.68,4.93-4.56,7.31-6.93c1.75,0.47,0.81,2.55,2.43,3.05c-1.4,2.57-2.34,4.5-4.69,6.12
			c-3.62,2.49-7.25,5-10.88,7.5c-2.7,1.86-5.51,3.36-8.65,4.39c-2.9,0.95-5.57,2.59-8.45,3.63c-4.79,1.72-9.42,3.83-14.62,4.5
			c-2.17,0.28-4.75,0.03-6.48,0.99c-2.17,1.2-4.27,0.14-6.13,0.88c-3.81,1.52-7.84,0.15-11.53,1.07
			c-5.21,1.29-10.37,0.69-15.55,0.84c-5.14,0.15-10.29,0.03-15.44,0.03c0-0.5,0-1,0-1.64c-2.35-0.65-4.75-1.25-7.12-1.99
			c-5.34-1.67-10.73-3.12-16.18-4.41c-4.37-1.03-8.59-2.67-12.97-3.64c-3.67-0.82-6.71-3.3-10.73-3.5c0-1.9,0.09-3.71-0.02-5.51
			c-0.37-6.36,0.49-12.71-0.82-19.12c-0.93-4.54-0.54-9.36-1.01-14.07c-1-10.14,0.73-20.39-1.05-30.59
			c-0.68-3.88-0.13-7.98-0.09-11.98c0.01-0.78-0.26-1.58,0.28-2.38c1.92-2.83,3.12-6.05,4.88-8.99c3.82-6.37,7.39-12.91,10.57-19.61
			c1.2-2.52,2.5-5.66,0.24-8.56c0.35-0.64,0.7-1.28,0.99-1.82c0.11-1.13-0.96-1.29-1.26-2.18c-1.26,0-2.49,0-3.73,0
			c0.35-3.23,2.61-5.41,4.4-7.82c0.55-0.75,0.59-1.4,0.6-2.18c1.26-0.4,2.14-1.08,1.96-2.58c-0.92-0.6-1.69-0.85-1.96,0.58
			c-2.41,0.69-3.74,2.51-5.05,4.49c-1.56,2.36-2.82,4.93-4.84,6.99c-0.33,0.33-0.05,1.26-0.05,1.89c-1.13,0.84-2.29,1.28-3.15,2.63
			c-6.14,9.63-12.86,18.81-21.91,26c-0.67,0-1.33,0-2,0c0.16-1.47-0.59-2.72-0.91-4.07c-0.82-3.48-1.48-7.08-2.41-10.46
			c-1.36-4.94-3.09-9.9-5.62-14.52c-2.36-4.33-4.69-8.59-8.48-11.86c-1.61-1.39-3.37-2.35-5.59-2.08
			C99.14,325.83,99.14,324.49,99.14,323.16z"/>
		<path class="st11" d="M381.14,556.16c-0.13,0.61,0.26,1.28-0.34,1.86c-2.92,2.83-5.48,6.17-9.14,8.01
			c-4.51,2.28-9.27,4.05-13.93,6.02c-0.28,0.12-0.65,0.16-0.95,0.1c-3.12-0.59-5.98,1.07-9.05,1.02c-2.99-0.05-5.98,0.14-8.96-0.05
			c-2.86-0.18-5.83,0.86-8.58-0.91c-1.1-0.71-2.01,0.98-3.04,0.91c-3.35-0.24-6.83,0.9-10.06-0.91c-0.51-0.28-1.31-0.04-1.97-0.04
			c0.23-1.54-0.63-2.3-1.86-3.02c-4.43-2.6-8.79-5.33-13.2-7.97c-6.74-4.03-12.82-8.97-18.58-14.23
			c-9.04-8.25-16.89-17.73-26.43-25.48c-2.58-2.1-5.13-4.2-8.28-6.21c3.09-3.44,7.91-3.2,11.38-5.77c-0.87-0.22-1.01-1.55-2.03-1.28
			c-2.22,0.58-4.03-0.83-6.08-1.1c-3.57-0.47-6.97-1.74-10.58-2.24c-3.09-0.43-6.08-1.63-9.27-1.68c-0.83-0.02-2.04,0.35-2.44-0.06
			c-2.29-2.4-5.31-0.07-7.93-1.52c-2.39-1.33-5.49-0.22-7.54-0.39c-3.86,1.44-6.55,3.39-8.9,6.34c-3.83-1.78-8.05-1.96-11.94-1.21
			c-5.4,1.04-10.75,0.64-16.12,0.84c-1,0.04-2.02-0.11-3,0.03c-2.76,0.39-5.51,0.89-9.43,1.53c5.19,2.62,7.13,7.65,12.18,8.72
			c0,0.78,0,1.44,0,2.38c-4.36,3.45-7.79,8.09-11.47,12.46c-4.72,5.61-9.1,11.51-13.46,17.41c-2.89,3.91-6.18,7.56-8.19,12.1
			c-1.44,3.26-3.52,6.12-6.52,8.37c-4.32,0-8.82,0-13.32,0c-1,0-1.99,0-3.2,0c-4.45-3.13-8.75-6.68-12.98-10.39
			c-2.16-1.9-4.5-3.71-6.43-5.84c-1.89-2.08-4.67-2.96-6.33-5.22c-0.37-0.5-1.18-0.71-1.06-1.55c0.25-2.43-0.89-4.27-2.45-5.99
			c-0.95-1.05-2.48-1.71-2.63-3.42c14.54-14.6,29.25-28.94,43.13-44.1c2.36-2.58,4.93-4.96,7.42-7.45c2.39-0.07,4.7-0.01,7.07,0.88
			c2.29,0.86,4.96,1.29,6.97,2.4c2.45,1.35,5.34-0.56,7.32,1.69c2.36-0.76,4.31,1.07,6.58,1.02c3-0.06,6.01,0.18,8.99-0.07
			c2.7-0.23,5.34,0.52,8.17-0.75c2.48-1.12,5.8,0.52,8.49-1.19c4.92,0.68,9.26-1.87,13.95-2.24c0-0.76,0-1.26,0-1.76
			c2.66,0,5.35-0.2,7.99,0.05c2.98,0.29,5.58-1.46,8.59-1.13c2.96,0.33,6.12,0.62,8.94-0.08c2.9-0.73,5.82-0.33,8.6-0.93
			c8.03-1.75,16.26-2.76,23.84-6.32c3.89-1.83,8-3.2,11.91-5c5.54-2.56,10.53-6.04,15.59-9.44c3.03-2.04,5.4-4.7,8.11-7.15
			c1.04,1.4,2.75,2.24,3.44,4c0.16,0.63-0.38,0.88-0.71,1.2c-4.26,4.09-8.28,8.4-12,12.99c-0.37,0.46-0.26,0.89-0.24,1.36
			c2.61,1.77,4.89-0.77,7.62-0.53c1.23,2.76,3.64,4.73,5.78,6.92c2.96,3.04,6.44,5.5,9.59,8.32c2.02,1.81,3.91,3.96,6.21,5.35
			c4.47,2.71,7.73,6.66,11.08,10.4c3.98,4.44,7.46,9.34,11.74,13.55c0.47,0.47,1.02,0.88,1.4,1.42c4.26,6.07,9.81,11.06,14.15,17.07
			c2.62,3.63,5.88,6.82,8.29,10.56c2.26,3.51,5.18,6.08,8.62,8.38c1.25,0,2.58-0.11,3.89,0.03
			C378.94,557.35,379.71,555.67,381.14,556.16z"/>
		<path class="st12" d="M354.36,282.16c-0.86,3.48-2.11,6.35-2.84,9.3c-0.71,2.87-1.45,5.77-2.49,8.49
			c-1.11,2.89-1.94,5.86-2.96,8.76c-0.32,0.51-1.04,0.23-1.28,0.48c-3.42,3.38-7.77,5.31-11.86,7.63
			c-4.97,2.83-10.06,5.46-15.11,8.15c-6.03,3.21-12.6,5.02-19.03,7.12c-4.6,1.51-9.25,3.15-14.23,3.07
			c-3.28,2.13-7.14,0.54-10.73,1.82c-3.98,1.41-8.35-0.27-12.04-1.96c-4.49-2.06-8.94-4.34-12.93-7.48c-3.36-2.65-6.09-6-9.49-8.46
			c-3.38-2.43-5.97-5.57-9.23-8.31c0-1.74,0.17-3.57-0.03-5.35c-0.71-6.3,2.21-11.37,5.58-16.17c1.18-1.67,2.48-3.34,3.76-5.02
			c7.53-0.66,14.36,1.47,21,4.68c2.36,1.14,4.87,1.89,7.55,2.34c5.04,0.85,9.98,2.35,15.18,1.9c2,1.59,4.42,1.23,6.57,0.91
			c3.53-0.53,6.99-1.54,10.43-2.54c0.62-0.18,1.23-0.43,1.83-0.35c3.61,0.49,6.96-1.67,10.58-1.02c1.73-1.24,3.89-0.96,5.82-1.61
			c3.54-1.2,7.14-2.3,11.01-2.49c3.08-0.15,5.95-1.98,9.17-1.9c1.46-1.89,4.17-0.22,5.67-2
			C347.42,282.16,350.57,282.16,354.36,282.16z"/>
		<path class="st13" d="M122.14,570.16c4.5,0,9,0,13.32,0c3-2.26,5.07-5.11,6.52-8.37c2.01-4.54,5.3-8.19,8.19-12.1
			c4.36-5.9,8.74-11.8,13.46-17.41c3.68-4.38,7.11-9.02,11.47-12.46c0-0.94,0-1.6,0-2.38c-5.05-1.07-6.99-6.1-12.18-8.72
			c3.91-0.65,6.66-1.14,9.43-1.53c0.98-0.14,2,0.01,3-0.03c5.37-0.2,10.72,0.2,16.12-0.84c3.9-0.75,8.12-0.57,11.94,1.21
			c2.34-2.95,5.04-4.9,8.9-6.34c2.05,0.17,5.15-0.93,7.54,0.39c2.61,1.45,5.64-0.87,7.93,1.52c0.4,0.42,1.61,0.05,2.44,0.06
			c3.19,0.06,6.18,1.25,9.27,1.68c3.61,0.5,7.02,1.78,10.58,2.24c2.05,0.27,3.87,1.67,6.08,1.1c1.01-0.26,1.16,1.07,2.03,1.28
			c-3.47,2.57-8.29,2.33-11.38,5.77c3.15,2.01,5.7,4.11,8.28,6.21c9.54,7.76,17.4,17.23,26.43,25.48
			c5.77,5.27,11.84,10.2,18.58,14.23c4.41,2.64,8.77,5.37,13.2,7.97c1.23,0.72,2.1,1.49,1.86,3.02c-3.14,0.41-5.97-0.87-8.57-2.19
			c-5.23-2.65-10.53-5.17-15.72-7.88c-3.75-1.96-7.27-4.39-10.54-7.18c-4.69-3.99-9.63-7.67-14.99-10.79
			c-4.59-2.68-9.05-5.62-13.37-8.71c-3.65-2.61-6.99-5.64-10.52-8.42c-2.12-1.67-4.33-3.21-6.49-4.82
			c-1.56-1.16-3.43-2.13-2.59-5.06c-5.96,0.99-9.71-3.47-13.88-5.09c-1.78,0.4-0.95,1.73-1.95,2.18c-2.39-1.57-5.19-1.09-7.9-0.99
			c-2.94,0.11-5.56-1.53-8.59-1.12c-2.77,0.37-5.63,0.08-8.39,0.08c-0.53,0.53-1.01,1.01-1.46,1.46c-0.3,1.45,0.08,2.62,1.6,3.57
			c3.37-0.79,6.58,1.6,9.97,0.94c0.93,1.57-0.19,2.09-0.83,2.72c-10.82,10.84-21.32,22.04-32.6,32.38
			c-7.76,7.1-16.12,13.67-25.84,18.24c-3.56,1.68-6.96,2.91-10.89,2.69c-1.66-0.09-3.32-0.02-4.95-0.02
			c-1.23-1.38-3.16-1.42-4.5-2.5C122.14,571.16,122.14,570.66,122.14,570.16z"/>
		<path class="st14" d="M158.14,344.16c2.26,2.91,0.96,6.05-0.24,8.56c-3.18,6.7-6.76,13.25-10.57,19.61
			c-1.77,2.94-2.96,6.16-4.88,8.99c-0.54,0.8-0.27,1.6-0.28,2.38c-0.05,4-0.59,8.1,0.09,11.98c1.77,10.19,0.04,20.45,1.05,30.59
			c0.47,4.71,0.08,9.53,1.01,14.07c1.31,6.41,0.45,12.76,0.82,19.12c0.1,1.8,0.02,3.61,0.02,5.51c4.02,0.2,7.06,2.68,10.73,3.5
			c4.38,0.97,8.6,2.61,12.97,3.64c5.45,1.29,10.84,2.74,16.18,4.41c2.36,0.74,4.77,1.34,7.12,1.99c0,0.64,0,1.14,0,1.64
			c-5.9,0.69-11.64-1.61-17.54-1c-3.06-1.54-6.36-1.03-9.56-0.92c-1.32,0.05-2-0.85-3.07-1.13c-3.43-0.91-6.99-1.26-10.29-2.84
			c-1.23-0.59-2.56-1.12-3.72-1.83c-6.1-3.73-12.37-7-19.51-8.31c-2.08-0.38-3.79-1.59-5.33-3.6c0-4.79-0.24-9.93,0.06-15.04
			c0.43-7.56-1.69-14.98-1.06-22.53c-1.54-3.75-0.39-7.78-1.13-11.53c-0.83-4.21-0.48-8.41-0.96-12.56
			c-0.56-4.88-1.95-9.66-1.92-14.64c0.01-1.11-1.51-1.77-0.99-3.08c0.05-3.34,0.23-3.59,3-4c1.16,0,2.31,0,3.26,0
			c9.68-8.57,18-18.12,24.74-29c0.67,0,1.33,0,2,0c2.13,0.2,3.91-0.5,5.48-1.95C156.41,345.48,156.91,344.36,158.14,344.16z"/>
		<path class="st14" d="M205.14,332.16c-0.23-1.25-1.32-1.86-2.14-2.59c-3.54-3.13-6.2-7.07-8.63-10.96
			c-2.12-3.38-5.22-4.88-8.15-6.92c-0.6-0.42-1.14-0.59-1.79-0.52c-4.68,0.5-9.41-0.88-14.11,0.88c-1.9,0.71-4.28,0.12-6.35,0.12
			c-1.86,0.99-3.64,1.93-5.65,3c-1.53,0-3.36,0-5.19,0c-0.61-2.63,1.05-4.72,2.23-6.55c3.83-5.98,8.13-11.65,12.25-17.43
			c1.78-0.46,3.11,0.64,4.41,1.43c4.21,2.56,8.92,3.46,13.6,4.61c6.65,1.64,13.53,2.33,19.97,4.86c1.75,0.69,4.02-1,5.07,1.02
			c1.3,0.21,1.46-0.75,2.06-0.9c0.47-0.12,0.99-0.02,1.49-0.02c0.28,0.14,0.8,0.29,0.79,0.41c-0.08,1.39,1.04,1.98,1.81,2.76
			c4.34,4.38,8.4,9.11,13.15,12.99c5.55,4.54,10.21,10.06,16.07,14.22c4.44,3.16,9.41,5.36,14.35,7.59
			c2.52,1.14,5.16,2.02,7.74,3.02c-1.83,3.43-5.27,3.95-8.54,5.09c-4.18,1.45-8.43,1.17-12.52,0.72c-2.84-0.31-5.68-0.76-8.56-0.81
			c-2.86-0.04-5.44-1.25-8.15-1.85c-1.54-0.34-3.8-1.2-5.23,0.85c-1.84,0.51-3.23-1.17-5-1c0-0.49,0.2-1.13-0.03-1.43
			c-1.26-1.58-2.62-3.05-3.81-4.73c-1.68-2.38-4.02-4.34-7.16-4.84C207.8,334.16,206.47,333.16,205.14,332.16z"/>
		<path class="st13" d="M440.14,611.16c-1.85,2.09-4.68,2.03-7.01,2.84c-3.83,1.34-7.86,2.82-12.1,2.13
			c-2.2-0.36-3.88,1.41-6.09,1.09c-1.96-0.28-4-0.22-5.98-0.01c-2.03,0.21-4.19,1.91-6.02,0.84c-2.25-1.33-4.44-0.65-6.65-0.87
			c-2.05-0.2-4.25,0.51-6.08-1.01c-5.04,0.44-9.64-2.16-14.66-2.08c-1.45,0.02-3.09-0.64-4.33-1.47c-0.96-0.64-1.93-0.1-3.09-0.83
			c-0.1-4.72,2.05-8.85,4.65-12.7c2.89-4.27,6.01-8.37,9.82-11.95c4.12-3.87,8.03-7.98,12.03-11.98c0.83,0,1.67,0,2.5,0
			c4.19,0.3,8.34-0.01,12.6,0.83c7.88,1.55,14.69,4.65,20.13,10.49c2.03,2.18,4.17,4.62,5.09,7.34c0.94,2.79,2.82,5.3,3.08,8.19
			C438.33,605.2,439.81,608.03,440.14,611.16z"/>
		<path class="st11" d="M6.14,608.16c0.3-3.03,0.04-6.01,0.8-9.13c0.99-4.08,3-7.51,4.95-10.96c1.78-3.16,4.42-5.83,6.61-8.78
			c2.68-3.61,6.65-5.7,10.25-7.95c4.38-2.74,9.18-4.99,14.22-6.61c2.96-0.96,5.84-0.13,8.44-0.58c2.01,1.38,4.43,1.95,4.87,4.6
			c0.07,0.4,0.65,0.73,1.02,1.06c5.39,4.86,9.47,10.95,14.79,15.9c2.32,2.16,4.06,4.95,6.06,7.45c-0.81-0.01-1.49,0.05-2.24,0.66
			c-2.31,1.89-3.29,4.65-4.61,6.74c-0.99,0.94-1.98,0.26-2.62,0.63c-3.49,2.03-7.63,1.54-11.26,2.97
			c-9.05-0.53-17.98,1.65-27.05,1.05c-4.31-0.29-8.65-0.08-12.98-0.03c-1.25,0.02-2.69-0.55-3.63,0.87
			C10.85,605.45,8.84,608.05,6.14,608.16z"/>
		<path class="st15" d="M253.14,275.16c-5.71-1.69-8.92-6.28-11.86-10.86c-1-1.56-3.18-2.33-3.15-4.56
			c0.02-1.81-1.53-2.96-1.99-4.58c-0.88-4.05-2.49-7.97-2.03-12.26c0.05-0.46-0.37-0.86-0.97-0.74c0-1,0-2,0-3c0-1.33,0-2.67,0-4
			c0.51-1.84-1.17-3.23-1-5c0-0.67,0-1.33,0-2c-0.11-0.63,0.37-1.12,0.77-0.96c2.61,1.02,5.53,1.29,7.98,2.4
			c5.22,2.38,10.75,3.77,16,5.95c1.15,0.48,2.16,0.45,3.24,0.6c0.47,1.93,2.02,0.62,3,1c2.05,0.01,3.83,1.7,6,1
			c1.24,1.56,3.15,1.72,4.84,1.94c4.96,0.64,9.78,1.93,14.57,3.22c1.18,0.32,2.33,0.79,3.59,0.84c1.81,1.47,3.96,0.92,6,1
			c-0.06,0.89,0.51,1,1.2,1c1.27,0,2.54,0,3.8,0c0.09,1.5,1.24,0.85,2,1c0,0.33,0,0.67,0,1c-2.93,2.54-6.32,4.5-9.47,6.71
			c-8.06,5.66-16.66,10.57-24.64,16.36c-2.47,1.79-5.47,2.21-7.89,3.93C259.8,275.16,256.47,275.16,253.14,275.16z"/>
		<path class="st16" d="M381.14,556.16c-1.42-0.49-2.2,1.19-3.58,1.03c-1.31-0.15-2.64-0.03-3.89-0.03
			c-3.44-2.29-6.36-4.87-8.62-8.38c-2.41-3.75-5.67-6.94-8.29-10.56c-4.34-6.01-9.89-11.01-14.15-17.07
			c-0.38-0.54-0.92-0.95-1.4-1.42c-4.28-4.2-7.76-9.1-11.74-13.55c-3.35-3.74-6.61-7.7-11.08-10.4c-2.3-1.39-4.2-3.54-6.21-5.35
			c-3.15-2.83-6.63-5.29-9.59-8.32c-2.14-2.2-4.55-4.17-5.78-6.92c-2.73-0.24-5.01,2.3-7.62,0.53c-0.02-0.47-0.13-0.9,0.24-1.36
			c3.72-4.59,7.74-8.9,12-12.99c0.33-0.32,0.87-0.56,0.71-1.2c4.47,4.02,9.66,7.33,13.4,12.05c3.48,4.4,7.85,7.93,11.27,12.28
			c3.54,4.51,7.41,8.74,10.81,13.39c2.06,2.82,4.74,5.42,6.75,8.26c3.11,4.39,7.81,7.32,10.41,12.09c0.53,0.98,1.55,1.73,2.43,2.48
			c4.29,3.61,7.34,8.34,11.17,12.38c2.75,2.9,4.57,6.69,6.76,10.11c1.34,2.09,2.39,4.42,3.96,6.31
			C380.77,551.53,381.31,553.68,381.14,556.16z"/>
		<path class="st17" d="M292.14,447.16c-2.38,2.36-5.2,4.25-7.31,6.93c-1.02,0-2,0-3.27,0c-3.57-3.67-7.66-7.22-10.69-11.73
			c-0.68-1.02-1.43-2.12-1.67-3.29c-0.75-3.53-1.76-6.98-2.24-10.62c-0.51-3.88-0.82-7.71-0.77-11.59c0.02-1.5-1.48-2.4-1.13-4.1
			c0.26-1.29,0.73-3-0.85-4.1c-0.16-0.11-0.08-0.63-0.04-0.96c0.74-6.24-1.26-12.33-1.05-18.56c0.21-6.32-0.52-12.72,0.24-18.95
			c0.52-4.21,0.66-8.38,0.81-12.28c2.82-4.09,6.56-5.49,11.4-4.56c1.7,1.15,3.65,2.48,5.6,3.8c0,2.16,0,4.31,0,6.53
			c-0.57,0.54-1.17,1.11-2,1.9c0,3.09-0.22,6.39,0.05,9.65c0.61,7.39-1.38,14.61-1.15,21.99c0.08,2.62,1.35,4.89,1.22,7.55
			c-0.12,2.31-1.03,4.92,0.89,7.05c-0.38,3.89,1.35,7.42,1.9,11.13c0.37,2.53,1.22,4.95,2.24,7.05c2.15,4.41,3.13,9.39,6.38,13.32
			C291.45,444.27,292.5,445.56,292.14,447.16z"/>
		<path class="st13" d="M205.14,486.16c0,0.5,0,1,0,1.76c-4.69,0.37-9.03,2.92-13.95,2.24c-2.69,1.72-6.01,0.08-8.49,1.19
			c-2.83,1.27-5.47,0.52-8.17,0.75c-2.98,0.25-5.99,0.01-8.99,0.07c-2.26,0.05-4.22-1.78-6.58-1.02c-1.98-2.25-4.87-0.34-7.32-1.69
			c-2.01-1.11-4.68-1.54-6.97-2.4c-2.37-0.89-4.68-0.95-7.07-0.88c-2.49,2.49-5.06,4.87-7.42,7.45
			c-13.88,15.16-28.59,29.5-43.13,44.1c0.15,1.71,1.68,2.38,2.63,3.42c1.56,1.72,2.7,3.56,2.45,5.99c-2.09-1.5-3.97-3.09-5.19-5.54
			c-0.77-1.55-2.49-2.64-3.79-3.93c-0.7-5.14,2.61-8.62,5.3-12.24c1.51-2.03,2.8-4.18,4.18-6.28c2.08-3.15,4.21-6.25,6.35-9.36
			c3.75-5.44,7.68-10.77,11.22-16.34c1.64-2.58,3.18-5.26,4.43-8.14c1.59-3.68,3.86-7.15,6.32-10.33c1.45-1.88,1.57-4.57,3.81-5.85
			c4.34,1.27,8.26,3.45,12.26,5.43c6.97,3.44,14.33,5.68,21.83,7.59c4.32,1.11,8.74,1.5,13.13,2.15c3.89,0.58,7.86,0.14,11.56,0.97
			C190.76,486.93,197.96,485.67,205.14,486.16z"/>
		<path class="st13" d="M6.14,608.16c2.7-0.11,4.71-2.71,7.61-2.11c0.93-1.42,2.38-0.85,3.63-0.87c4.33-0.05,8.67-0.26,12.98,0.03
			c9.07,0.6,18-1.58,27.05-1.05c3.63-1.43,7.76-0.94,11.26-2.97c0.65-0.38,1.64,0.31,2.62-0.63c1.32-2.09,2.3-4.85,4.61-6.74
			c0.75-0.61,1.43-0.67,2.24-0.66c3.11,1.22,4.32,4.33,6,6.72c2.58,3.68,6.07,6.38,9.07,10.02c-1.38,3.35-3.51,6.42-6.53,9.19
			c-0.43,0.03-1.07,0.07-2.11,0.13c-2.04,3.45-6.57,3.3-9.71,5.63c-0.55,0.41-1.55,0.28-2.35,0.3c-1.66,0.04-3.34,0.16-4.98-0.02
			c-2.36-0.26-4.69,0.52-7.14-0.83c-1.97-1.08-4.58,0.17-7.07-0.95c-2.15-0.96-5.1,0.23-7.47-1.19c-4.75,0.52-8.97-1.6-13.15-3.14
			c-5.19-1.92-10.45-3.61-15.67-5.45c-2.08-0.73-4.51,0.05-6.38-1.42C9.1,610.9,6.77,610.49,6.14,608.16z"/>
		<path class="st2" d="M316.14,345.16c-0.22-2.66,2.06-3.72,3.61-4.91c2.38-1.83,4.84-3.59,7.29-5.31c2.43-1.71,4.35-3.89,6.61-5.72
			c1.82-1.48,2.57-3.7,4.14-5.34c0.54-0.56,0.32-1.85,0.52-3.31c3.04-4.04,8.61-5.54,11.81-9.81c2.4,2.02-0.66,2.49-0.08,3.98
			c0.45,1.16,0.09,2.62,0.09,3.27c1.39,4.58,5.51,4.99,8.24,7.16c2,1.59,4.54,1.91,6.76,3c0.12,0.61-0.03,1.19,0.28,1.85
			c0.9,1.94,1.91,3.89,1.72,6.15c-1.71,0.52-3.47-0.37-4.44-1.16c-2.37-1.94-4.92-2.68-7.82-2.88c-0.53-0.04-1.02-0.66-1.61-1.07
			c-1.24,1-3,1.07-3.96,2.52c0.2,3.1,0.2,3.1,3.73,4.02c-3.39,1.71-5.38,5.02-8.5,7.56c-1.49,0-3.26,0-5,0
			c-0.44,1.64-1.94,2.79-1.27,4.7c0.32,0.7,1.65-0.15,1.89,1c-0.03,0.28,0.03,0.65-0.12,0.9c-2.87,4.94-7.9,8.03-10.94,12.86
			c-0.82,1.31-1.38,2.84-2.72,3.89c-1.5,1.17-2.57,2.91-4.54,3.66c-1.97,0-3.93,0.03-5.9-0.02c-0.51-0.01-0.9-0.35-0.79-0.98
			c0.35-1.95,1.85-0.87,2.79-0.95c2.19-0.19,4.54,0.35,6.28-1.79c-0.17-2.65-0.88-5.07-2.59-7.37c-2.49-3.35-4.08-7.14-3.5-11.52
			c0.13-0.97,0.02-1.97,0.02-2.94C317.36,346.18,317.16,345.11,316.14,345.16z"/>
		<path class="st13" d="M385.14,575.16c0.23,1.1-0.27,1.83-1.04,2.58c-3.22,3.14-6.26,6.47-9.59,9.49
			c-3.86,3.5-5.73,8.44-9.16,12.22c0.15,2.81-2.77,4.61-2.11,7.96c-8.43-1.8-16.15-5.36-25.03-4c-0.13-2.98-0.04-5.76-0.07-8.53
			c-0.03-2.57,0.07-5.1-0.94-7.61c-0.98-2.43-0.97-5.19-2.26-7.53c0.91-0.46,1.6-0.8,2.28-1.17c0.14-0.08,0.24-0.23,0.42-0.41
			c3.76,0,7.65,0.43,11.4-0.1c5.7-0.81,11.58-1.1,16.86-3.87c1.53-0.8,3.25-1.24,4.39-2.67c0.53-0.67,1.24-0.22,1.86-0.35
			c-0.08,0.98,0.61,1.04,1.29,0.99C377.67,571.82,381.33,573.77,385.14,575.16z"/>
		<path class="st11" d="M86.14,594.16c-3.8-4.47-7.32-9.17-11.65-13.17c-2.96-2.74-5.55-5.79-7.45-9.4
			c-0.22-0.42-0.68-0.72-1.04-1.07c-2.6-2.46-5.05-5.03-7.05-8.49c4.55-3.89,9.16-7.84,13.88-11.88c0.64,0,1.47,0,2.31,0
			c1.26,2.14,1.67,4.92,3.9,6.33c2.98,1.88,5.55,4.31,8.4,6.26c5.42,3.72,10.18,8.08,14.53,12.88c2.84,3.13,5,6.86,3.95,11.26
			c-3.19,1.2-6.36,1.18-9.11,2.99c-2.29,1.5-5.08,2.23-7.43,3.66C88.24,594.24,87.22,594.01,86.14,594.16z"/>
		<path class="st18" d="M367.14,336.16c0.19-2.26-0.82-4.21-1.72-6.15c-0.31-0.66-0.15-1.24-0.28-1.85
			c2.25,0.56,4.51,1.11,6.76,1.67c1.36,0.37,2.18-1.77,3.74-0.5c1.51-1.58,2.77-2.9,3.97-4.16c1.55-0.22,1.87,1.28,3.4,1.89
			c0.42,0,1.39,0,2.79,0c0.62-0.67,1.5-1.62,2.33-2.51c0.05-0.59-0.18-0.96-0.44-1.4c-0.74-1.22-2.5-0.81-2.87-1.56
			c-1.37-1.94,0.51-4.44-3.03-5.37c0.01,0-0.96,0-2.2,0c-2.35,2.1-3.86,5.1-6.18,7.86c-3.37,0.58-6.68-0.1-9.2-3.49
			c0-2.8,0-5.78,0-8.84c0.95-1.37,1.91-2.07,3.96-1.19c4.29,1.85,8.98,2.44,13.47,3.64c3.99,1.07,7.88,2.5,12.12,1.83
			c0.26-2.99-0.51-4.27-3.51-4.85c-7.04-1.35-13.77-4.01-20.89-5c-1.19-0.17-1.56-1.03-2.35-1.83c3.01-6.13,9.17-8.98,14-13.48
			c5.98,4.19,13.73,4.49,19.2,9.67c-0.77,8.98-2.23,17.7-7,25.57c-0.97,1.6-2.18,3-3.59,3.93c-2.8,1.86-5.62,3.63-7.94,6.08
			c-1.41,1.49-3.13,1.97-5.16,2.05c-3.1,0.13-6.08-0.27-9-1.22C367.31,336.92,367.25,336.45,367.14,336.16z"/>
		<path class="st13" d="M86.14,594.16c1.09-0.15,2.11,0.08,3.25-0.62c2.35-1.43,5.14-2.16,7.43-3.66c2.75-1.81,5.92-1.79,9.11-2.99
			c1.05-4.4-1.11-8.13-3.95-11.26c-4.35-4.8-9.12-9.16-14.53-12.88c-2.85-1.95-5.42-4.38-8.4-6.26c-2.23-1.41-2.64-4.19-3.9-6.33
			c-0.16-1.07,0.02-2.19,1.07-2.51c1.98-0.59,2.96-2.34,4.56-3.48c11.67,12.31,23.99,23.86,38.43,33.19
			c-0.35,3.43-0.03,6.68-0.87,10.11c-0.87,3.59-0.2,7.56-0.2,11.51c-7.83,2.46-15.6,4.58-23.2,6.42
			C91.16,601.96,88.76,597.97,86.14,594.16z"/>
		<path class="st14" d="M165.14,287.16c-1.85-1.29-1.12-3.14-0.75-4.68c1-4.24,1.04-6.6-0.15-11.76c-0.22-0.94-0.09-1.97-0.09-2.96
			c-0.01-4.32,0.01-8.64-0.01-12.96c-0.01-1.27,0.43-2.69-1.03-3.2c0.12-1.48,1.5-2.16,1.04-3.45c2.33,0,4.67,0,7,0
			c-0.32,2.72,0.89,4.76,2.36,7.01c3.56,5.46,7.67,10.46,11.62,15.62c6.9,9.01,15.05,16.8,23,24.87c-2.57,1.83-4.8-1.35-7.28-0.5
			c-2.03-1.9-5.07-0.23-7.14-2c-7.23-1.11-14.33-2.51-21.04-5.76C170.57,286.38,167.7,284.86,165.14,287.16z"/>
		<path class="st11" d="M440.14,611.16c-0.33-3.13-1.8-5.96-2.09-9.15c-0.26-2.89-2.14-5.4-3.08-8.19
			c-0.92-2.72-3.07-5.16-5.09-7.34c-5.44-5.84-12.25-8.95-20.13-10.49c-4.26-0.84-8.41-0.52-12.6-0.83c0-0.79-0.03-1.48,0.64-2.2
			c2.39-2.58,5.13-4.73,8.14-6.8c0.94,0,2.08,0,3.22,0c1.86,1.1,3.76,2.18,5.58,3.29c3.08,1.88,6.53,2.71,9.67,4.36
			c6.38,3.34,12.94,6.33,19.7,8.86c2.86,1.07,6.09,1.3,8.51,3.46c1.97-0.3,3.53,1.55,5.54,1.04c-0.03,0.69,0.31,1.03,1,1
			c0.11,0.28,0.17,0.76,0.34,0.79c0.6,0.14,0.7-0.31,0.66-0.79c0.63-0.11,0.86,0.27,1.09,1.15c-3.72,4.1-6.35,9.32-10.81,13.16
			c-1.79,1.55-3.56,3.16-4.74,5.47C444.69,609.88,442.57,611.08,440.14,611.16z"/>
		<path class="st8" d="M181.14,236.16c1.42,0.9,2.19,2.22,1.97,3.86c-0.55,4.04,1.72,7.22,2.96,10.75c0.97,2.77,2.89,5.08,3.39,8.1
			c0.27,1.65,1.69,3.03,3.06,4.19c3.73,3.14,5.82,7.55,8.3,11.55c1.53,2.47,3.85,4.13,5.2,6.78c2.2,4.29,5.33,8.05,9.06,11.2
			c0.86,0.72,1.2,1.51,1.04,2.57c-0.5,0-1,0-1.5,0c-5.3-5.29-10.63-10.55-15.86-15.91c-1.79-1.84-3.33-3.93-4.96-5.92
			c-1.63-1.99-4.11-3.24-5-5.92c-0.23-0.71-1.12-1.2-1.71-1.78c-4.24-4.18-7.97-8.75-11.04-13.88c-0.87-1.45-2.18-2.88-3.93-3.59
			c-0.14-1.03,0-2.07,1.02-2.49c3.98-1.63,5.24-5.37,6.97-8.76C180.35,236.46,180.52,236.05,181.14,236.16z"/>
		<path class="st16" d="M458.14,587.16c-2.01,0.52-3.57-1.34-5.54-1.04c-2.42-2.16-5.65-2.39-8.51-3.46
			c-6.77-2.53-13.33-5.51-19.7-8.86c-3.14-1.65-6.59-2.47-9.67-4.36c-1.81-1.11-3.72-2.19-5.58-3.29c0-0.5,0-1,0-1.5
			c4.27-2.15,8.94-1.94,13.35-1.36c5.35,0.7,10.53,2.58,15.05,5.77c3.95,2.79,7.79,5.71,11.2,9.16c2.36,2.39,5.02,4.4,7.98,6.05
			C457.71,584.84,458.49,585.79,458.14,587.16z"/>
		<path class="st8" d="M316.14,345.16c1.02-0.05,1.22,1.01,2,1.43c0,0.97,0.11,1.97-0.02,2.94c-0.57,4.38,1.02,8.16,3.5,11.52
			c1.71,2.3,2.42,4.73,2.59,7.37c-1.75,2.14-4.09,1.6-6.28,1.79c-0.94,0.08-2.44-1-2.79,0.95c-4.4-2.18-8.93-2.94-13.66-0.93
			c-1.22-5.93,0.16-11.39,1.87-16.69c1.61-4.97,3.6-9.85,6.42-14.38c0.2,0,0.53,0,0.87,0c1.57,1.95,0.29,3.87-0.59,5.32
			c-2.34,3.84-3.36,7.84-2.82,12.27c1.2,0.35,0.47,2.24,2.09,2.65c2-2.68,2.86-5.76,3.81-8.78
			C313.77,348.6,314.64,346.71,316.14,345.16z"/>
		<path class="st13" d="M139.19,580.33c1.69,3.37,3.36,6.68,4.94,9.82c-0.03,1.51-1.44,0.61-2.04,1.69
			c0.39,1.35,1.76,2.83,0.58,5.03c-2.01,1.22-4.57,2.67-7.01,4.29c-3.11,2.06-6.39,3.33-10.12,2.94c-1.25-1.75,0.29-3.04,0.83-4.49
			c-0.86-0.3-1.43-0.51-2.29-0.81c0.26-6.05-0.67-12.24,1.38-18.47C129.73,580.33,134.18,580.33,139.19,580.33z"/>
		<path class="st14" d="M297.32,366.52c-0.86,0.8-1.33,1.25-1.67,1.56c-3.2-0.73-6.23-1.43-9.73-2.23
			c1.14-8.89,2.45-17.76,4.2-26.81c3.62,0.68,6.37-1.49,9.42-1.75c2.95-0.25,5.38-2.66,8.96-1.92c-4.58,3.69-6.31,8.8-8.15,13.43
			C298.18,354.29,296.03,360.18,297.32,366.52z"/>
		<path class="st11" d="M385.14,575.16c-3.8-1.39-7.46-3.34-11.71-3.01c-0.67,0.05-1.36-0.01-1.29-0.99
			c0.5-2.01,3.01-0.31,3.86-2.21c0.52-1.17,2.44-1.28,3.39-2.48c1.02-1.29,2.24-2.46,3.51-3.53c1.76-1.5,2.72-3.45,3.5-5.54
			c1.12-0.37,2.19-0.55,3.06,0.57c2.21,2.88,5.45,4.22,8.84,5.62c-0.85,3.03-4.13,3.39-5.74,5.53c-1.68,2.24-3.92,4.05-5.9,6.04
			C386.13,575.16,385.63,575.16,385.14,575.16z"/>
		<path class="st13" d="M324.1,600.63c0.01-6.76,2.09-12.71,4.67-18.45c1.43-0.15,1.12,0.91,1.49,1.53c1.23,2.09,1.63,4.46,1.79,6.7
			c0.36,5.2-0.47,10.52,2.62,15.64C330.56,605.22,326.9,603.29,324.1,600.63z"/>
		<path class="st19" d="M359.14,321.09c-1.01,0-1.65,0-2.36,0c-1.05-1.14-2.16-2.34-3.61-3.92c-0.82-2.82,0.82-6.02,1.01-8.36
			c2.77-2.78,5.07-5.07,7.57-7.57c1.11,0.21,0.58,1.9,0.32,2.23c-1.75,2.15-1.29,4.89-2.14,7.1c-0.96,2.49-0.43,4.78-0.76,7.13
			C359.02,318.67,359.14,319.68,359.14,321.09z"/>
		<path class="st6" d="M331.86,323.32c-1.68,5.12-6.77,6.47-10.26,9.79c-0.83,0-1.81,0-2.87,0c-0.61-0.59-1.68-0.93-1.58-2.49
			C322.01,328.43,326.81,325.75,331.86,323.32z"/>
		<path class="st20" d="M253.14,275.16c3.33,0,6.67,0,10,0c0,1.33,0,2.67,0,4c0.07,0.91-0.54,1-1.22,1c-1.93,0-3.85,0-5.78,0
			c-0.21-1.96-2-0.31-3-1.89C253.14,277.71,253.14,276.44,253.14,275.16z"/>
		<path class="st20" d="M233.14,242.16c0.6-0.11,1.02,0.29,0.97,0.74c-0.46,4.28,1.15,8.21,2.03,12.26
			c-1.34,0.34-2.49-0.38-2.81-1.4c-1.16-3.78-1.96-7.65-0.66-11.6C232.68,242.12,232.97,242.16,233.14,242.16z"/>
		<path class="st4" d="M151.14,274.16c-2.1-0.51-1.95-2.7-3-4c0.77-2.21,2.51-0.24,3.59-1.24
			C152.58,271.07,152.09,272.64,151.14,274.16z"/>
		<path class="st20" d="M233.14,235.16c0,1.33,0,2.67,0,4c-2.02,0.42-2.64-1.46-3.85-2.35
			C229.96,234.83,231.62,235.17,233.14,235.16z"/>
		<path class="st4" d="M154.14,340.24c0.21,2.4-1.73,3.06-3.13,4.07c-1.52-0.82-0.43-1.93-1.13-2.81
			C151.65,341.38,152.5,339.67,154.14,340.24z"/>
		<path class="st20" d="M243.14,274.16c-1.79-1.3-3.99-2.27-4-5c2.14-0.34,2.8,1.56,4,2.56
			C243.14,272.59,243.14,273.38,243.14,274.16z"/>
		<path class="st20" d="M232.14,228.16c0,0.67,0,1.33,0,2c-1.33,0-2.67,0-4,0c0-1,0-2,0-3c0.79,0,1.61-0.17,2.19,0.67
			C230.78,228.5,231.53,228.04,232.14,228.16z"/>
		<path class="st4" d="M99.14,323.16c0,1.33,0,2.67,0,4c-0.95,0-1.9,0-2.66,0c-1.1-2.05,1.7-2.42,0.72-4
			C98.15,323.16,98.65,323.16,99.14,323.16z"/>
		<path class="st4" d="M159.14,328.16c0.27-1.43,1.04-1.18,1.96-0.58c0.18,1.5-0.7,2.18-1.96,2.58
			C159.14,329.49,159.14,328.83,159.14,328.16z"/>
		<path class="st4" d="M150.14,348.16c-0.67,0-1.33,0-2,0c0.02-1.1-0.27-2.48,1.67-1.84C150.43,346.85,150.01,347.55,150.14,348.16z
			"/>
		<path class="st4" d="M122.14,370.16c0.67,0,1.33,0,2,0c0,0.49,0,0.98,0,1.48C122.3,372.24,122.3,372.24,122.14,370.16z"/>
		<path class="st4" d="M105.14,315.16c0,0.58,0,1.17,0,2c-0.83,0-1.42,0-2,0c0-0.58,0-1.17,0-2
			C103.97,315.16,104.55,315.16,105.14,315.16z"/>
		<path class="st20" d="M249.14,278.16c-0.76-0.15-1.91,0.5-2-1c0-1.41,1.02-0.74,1.42-1.05
			C249.43,276.85,249.02,277.55,249.14,278.16z"/>
		<path class="st4" d="M146.14,270.16c-0.09,1.5-1.24,0.85-2,1C144.22,269.67,145.38,270.31,146.14,270.16z"/>
		<path class="st4" d="M137.14,276.16c0.03,0.69-0.31,1.03-1,1C136.11,276.47,136.44,276.14,137.14,276.16z"/>
		<path class="st16" d="M459.14,588.16c-0.69,0.03-1.03-0.31-1-1C458.83,587.14,459.16,587.47,459.14,588.16z"/>
		<path class="st16" d="M460.14,588.16c0.04,0.49-0.06,0.93-0.66,0.79c-0.16-0.04-0.23-0.52-0.34-0.79
			C459.47,588.16,459.8,588.16,460.14,588.16z"/>
		<path class="st9" d="M356.13,298.17c0.09,0.48-0.13,0.78-0.59,0.89c-0.08,0.02-0.31-0.22-0.29-0.29
			C355.35,298.3,355.65,298.08,356.13,298.17z"/>
		<path class="st6" d="M47.14,311.16c0.5,0,0.99,0,1.49,0c0.56,1.98,2.7,2.9,3.39,4.56c0.95,2.29,2.96,3.63,4.11,5.74
			c1.03,1.88,3.42,2.89,5,4.38c6.49,6.14,14.08,10.63,21.5,15.41c2.56,1.65,4.1,4.41,5.51,7.12c1.34,2.59,2.67,5.19,4,7.79
			c0.15,0.83-0.77,0.99-1.06,1.8c0.69,1.48,1.45,3.12,2.15,4.63c-1.46,1.41-1.93-0.07-2.71-0.43c-3.79-1.77-7.64-3.36-11.1-5.87
			c-1.32-0.95-2.58-1.95-3.64-3.1c-1.03-1.12-2.45-1.39-3.59-2.35c-8.46-7.18-16.02-15.27-23.89-23.04
			c-2.37-2.34-4.71-4.71-7.11-7.11c0-0.94,0-1.93,0-3.37c0.88-0.71,2.03-1.64,2.99-2.4C43.98,312.38,44.74,311.05,47.14,311.16z"/>
		<path class="st21" d="M177.14,181.16c-1.36-2.53-3.94-3.95-5.63-6.16c-3.71-4.88-8.09-9.27-10.4-15.16
			c-2.77-7.04-6.52-13.62-9.92-20.36c-1.31-2.59-2.1-5.46-3.04-8.22c-0.96-2.81-1.55-5.7-2.14-8.63
			c-1.25-6.24-1.64-12.73-4.54-18.56c-0.42-0.84-0.3-1.59-0.31-2.36c-0.05-3.99-0.46-8.05,0.09-11.97c0.65-4.59,1.56-9.16,3.25-13.6
			c1.7-4.47,4.13-8.88,3.64-13.98c2.83-4.06,6.5-7.32,10.62-9.92c3.29-2.07,6.09-4.84,9.9-6.23c3.6-1.32,6.93-3.39,10.33-5.23
			c2.05-1.11,3.92-2.59,6.01-3.59c9.88-4.75,20.26-8.28,30.6-11.79c3.77-1.28,7.79-2.11,11.66-3.26c3.85-1.14,7.59-2.8,11.41-3.74
			c3.18-0.79,6.22-2,9.41-2.72c3.18-0.72,6.5-1.26,9.41-2.61c5.14-2.4,10.98-2.21,16.02-4.78c5.3,0,10.21-3.13,15.61-2.09
			c2.39,0.46,4.32-1.14,6.59-1.06c2.16,0.08,4.38,0.29,6.49-0.05c2.87-0.47,5.62,0.43,8.03,1.25c4.58,1.56,9.38,2.24,13.89,3.86
			c9.91,3.57,19.75,7.34,28.31,13.74c5.04,3.77,10.19,7.36,15.55,10.7c1.68,1.05,3.38,2.09,5.32,2.93
			c-2.24,1.67-4.61,1.82-7.24,1.48c0.74,1.82,1.86,0.98,2.66,1.08c3.51,0.46,7.16-0.8,10.61,0.98c0.79,0.41,2.23,0.45,2.92-0.01
			c1.97-1.32,4.38-0.2,6.06-1.07c2.12-1.1,4.13-0.55,6.16-0.87c1.82-0.29,3.48-1.74,5.54-0.66c-1.42,1.19-1.17,3.08-1.71,4.6
			c-1.71,4.84-4.17,8.86-8.93,11.03c-1.61,0.73-2.53,1.81-3.67,3.41c2.16,1.08,4.12,0.41,5.86,0.68c2.73-2.53,6.35-2.81,9.5-3.91
			c6.85-2.39,13.7-4.67,20.32-7.7c1.92-0.88,4.1-1.43,5.96-2.47c3.39-1.9,7.25-3.03,10.06-6.6c1.85,3.57-1.25,6.33-0.11,9.16
			c-4.41,3.95-9.44,6.42-14.71,8.46c-0.42,0.16-0.88,0.1-1.34,0.4c-3.79,2.43-8.18,3.59-12.16,5.62c-1.81,0.92-3.75,1.67-4.87,3.78
			c3.44,0.86,6.62-0.63,9.81-1.22c8.78-1.65,16.52-6,24.23-10.23c5.13-2.81,10.12-5.92,14.31-10.17c2.77-2.81,5.28-5.93,8.6-8.16
			c-0.18,3.64-1.85,6.88-2.83,10.3c-1.31,4.6-2.86,9.16-4.04,13.76c-1.95,7.67-4,15.3-6.16,22.91c-2.36,8.32-7.21,19.41-12.1,25.35
			c-3.09,3.75-5.93,7.89-9.78,10.89c-2.18,1.7-4.23,3.49-6.2,5.4c-1.49,1.45-3.03,2.65-5.04,3.49c-2.1,0.88-4.39,1.67-6.03,3.53
			c-2.13,2.4-4.97,3.84-7.74,5.36c-4.2,2.31-8.58,4.22-12.69,6.8c-2.94,1.85-5.98,3.92-9.3,5.13c-5.21,1.91-10.63,3.22-15.83,5.14
			c-2.36,0.87-5.16,0.6-7.19,2.54c0.35,0.15,0.64,0.26,0.92,0.38c-0.13,0.61,0.31,1.34-0.57,2.03c-3.86-0.69-7.67,1.7-11.77,0.97
			c-1.45,1.56-3.42,0.59-5.05,1.06c-1.85,0.53-3.63,0.97-5.59,0.98c-2.76,0-5.99,1.73-8.02,3.96c-1,0-2,0-3.34,0
			c-4.41-3.31-10.08-4.67-15.32-6.75c-4.94-1.96-9.03-4.87-13.28-7.72c-4.54-3.04-8.73-6.69-13.85-8.76
			c-6.7-2.71-13.13-6.05-20.04-8.29c-1.6-0.52-3.76,0.54-4.86-1.48c-3.27,0.46-6.25-1.58-9.58-1.07c-1.32,0.2-2.86,0.58-4.19-0.73
			c-0.52-0.51-1.9-0.29-2.87-0.17c-6.09,0.74-11.88,2.37-17.04,5.85c-1.04,0.7-1.99,1.67-3.13,2.07c-3.99,1.41-6.28,4.47-8.83,7.64
			c-2.22,2.75-4.58,5.48-6.87,8.21c-2.31,2.75-4.79,5.43-6.07,8.95c-1.88,5.17-4.2,10.27-3.68,15.92c0.44,4.78-1.43,9.29-1.04,13.83
			c-0.52,0.52-0.88,0.88-1.23,1.23c-0.24,0.34-0.38,0.21-0.72-0.11c-1.9-1.82-2.93-4.36-5.52-5.7c-2.39-1.24-3.5-4.28-6.33-5.24
			C177.79,182.62,178.5,181.05,177.14,181.16z"/>
		<path class="st22" d="M357.14,156.16c-0.28-0.12-0.57-0.23-0.92-0.38c2.03-1.94,4.82-1.67,7.19-2.54
			c5.2-1.92,10.62-3.23,15.83-5.14c3.32-1.22,6.36-3.28,9.3-5.13c4.1-2.58,8.48-4.49,12.69-6.8c2.77-1.52,5.61-2.96,7.74-5.36
			c1.64-1.86,3.93-2.65,6.03-3.53c2.01-0.84,3.55-2.04,5.04-3.49c1.97-1.91,4.02-3.69,6.2-5.4c3.85-3.01,6.69-7.15,9.78-10.89
			c4.89-5.94,9.74-17.03,12.1-25.35c2.16-7.61,4.21-15.24,6.16-22.91c1.17-4.61,2.72-9.17,4.04-13.76c0.98-3.42,2.65-6.66,2.83-10.3
			c0-0.33-0.13-0.74,0.02-0.99c2.56-4.43,5.15-8.85,7.75-13.26c0.16-0.28,0.46-0.48,1.11-1.12c-0.23,4.2,0.29,7.84-0.5,11.79
			c-0.81,3.99-1.77,8.01-2.57,12.01c-0.82,4.08-0.73,8.46-2.8,12.27c0.73,2.82-0.81,5.37-1.15,8.05c-0.9,7.13-2.37,14.2-4.27,21.15
			c-0.77,2.83-1.74,5.6-2.58,8.41c-1.46,4.94-3.89,9.36-6.45,13.82c-2.96,5.16-6.24,10.11-9.67,14.91
			c-2.28,3.19-4.23,6.89-7.88,8.96c-1.95-0.15-3.81,0.11-5.55,1.05c-9.23,4.98-18.55,9.77-28.18,13.93
			c-5.65,2.44-11.3,4.9-17.27,6.34c0,0.67,0,1.17,0,1.67c-3.59-0.54-6.91,1.49-10.54,1.06c-2.45-0.29-4.97-0.06-7.46-0.06
			c-0.76,0.15-1.91-0.5-2,1C359.8,156.16,358.47,156.16,357.14,156.16z"/>
		<path class="st5" d="M363.14,155.16c2.49,0,5.01-0.24,7.46,0.06c3.63,0.43,6.95-1.59,10.54-1.06c4.58,0.76,8.92-1.72,13.48-0.93
			c2.21-2.72,5.28-1.93,7.58-2.06c3.94-1.81,7.48-3.29,10.87-5.06c1.67-0.88,3.33-0.95,5.08-0.95c-3.2,4.03-7.56,6.54-11.95,8.97
			c-3.63,2.01-7.32,3.97-11.15,5.56c-5.84,2.42-11.39,5.41-17.1,8.06c-3.6,1.67-7.39,3.68-11.2,4.09
			c-6.69,0.72-13.54,0.49-20.27-0.03c-2.51-0.19-5.16-1.15-7.75-1.57c-4.03-0.66-7.63-2.52-11.51-3.57
			c-0.45-0.12-1.19-0.66-1.07-1.5c2.04-2.23,5.26-3.96,8.02-3.96c1.95,0,3.74-0.45,5.59-0.98c1.64-0.47,3.61,0.5,5.05-1.06
			c4.1,0.73,7.91-1.66,11.77-0.97c0.88-0.69,0.44-1.41,0.57-2.03c1.33,0,2.67,0,4,0c0.07,1.26,0.87,1.05,2,0.77
			C363.14,156.38,363.14,155.77,363.14,155.16z"/>
		<path class="st8" d="M372.14,176.16c0.23,1.53-0.52,2.52-1.87,2.98c-4.8,1.64-9.53,3.6-14.46,4.67c-2.89,0.62-5.9,1.31-8.93,1.34
			c-4.15,0.04-8.32,0.3-12.44-0.07c-4.37-0.39-8.74-1.18-13.01-2.2c-4.03-0.96-8-2.27-11.87-3.76c-6.36-2.45-12.31-5.62-16.92-10.88
			c-0.67-0.76-0.2-2.05-1.37-2.43c2.5-1.97,5.34-2.87,8.51-2.84c0.11,0,0.23-0.53,0.35-0.81c1.09,0.15,2.09,0.03,3.25,0.63
			c6.84,3.55,14.1,6.18,21.2,9.11c4.67,1.93,9.72,3.15,14.7,4.37c2.9,0.71,5.88,0.28,8.56,1.05c2.75,0.79,5.41,0.67,8.13,0.85
			C361.49,178.52,366.88,177.87,372.14,176.16z"/>
		<path class="st8" d="M188.14,199.16c-2.45,3.14-3.46,6.7-2.95,10.53c-0.83,0.6-1.17,1.49-1.99,1.52
			c-2.13-0.67-2.24-2.67-3.02-4.11c-2.02-3.75-3.53-7.82-7.1-10.52c-0.39-0.3-0.65-0.89-1.07-1.02c-5.05-1.52-8.22-5.78-12.44-8.49
			c-0.94-0.6-4.86-1.92-5.69-1.92c-1.91,0-3.35,0.97-4.51,2.33c-0.66,0.77-1.41,0.69-2.23,0.68c0-0.5-0.21-1.15,0.03-1.46
			c3.2-4.14,7.44-6.83,12.37-8.37c1.3-0.4,2.62-0.14,4.09,0.6c1.71,0.86,3.31,2.43,5.51,2.23c-0.13,0.61,0.18,1.23-0.32,1.87
			c-2.35,2.97-2.21,6.05-0.14,9.18c2.95-0.32,3.08-3.44,5.03-5.08c1.87,0.16,3.29,1.35,4.63,2.72c1.51,1.54,3.02,3.09,4.59,4.58
			C184.62,196.04,186.39,197.59,188.14,199.16z"/>
		<path class="st23" d="M418.14,145.16c-1.75-0.01-3.4,0.07-5.08,0.95c-3.39,1.78-6.93,3.25-10.87,5.06
			c-2.3,0.13-5.37-0.66-7.58,2.06c-4.56-0.79-8.9,1.69-13.48,0.93c0-0.5,0-1,0-1.67c5.97-1.45,11.62-3.9,17.27-6.34
			c9.63-4.16,18.95-8.96,28.18-13.93c1.74-0.94,3.61-1.21,5.55-1.05c-0.13,0.61,0.26,1.27-0.32,1.84c-1.99,1.95-3.69,4.35-5.99,5.81
			C422.95,140.63,421.01,143.44,418.14,145.16z"/>
		<path class="st19" d="M73.18,270.59c0.57-0.54,1.02-0.97,1.51-1.44c0.82,6.23,1,13.78-0.7,17.32c-1.38,2.88-2.26,6.24-5.02,8.38
			c-0.78,0.6-1.42,1.39-2.17,2.14c-2.89,0.97-5.39-1.95-8.15-0.75c-0.74-0.96-1.91-1.37-1.35-2.93c1.44-0.42,3.23-0.66,4.79-0.97
			c5.15-1.03,7.69-4.8,8.82-8.89C72.06,279.29,73.39,274.97,73.18,270.59z"/>
		<path class="st3" d="M414.14,208.16c-2.03,0.97-3.2,3.06-5.36,3.96c-0.91,0.38-1.36,1.51-1.75,2.72
			c-1.56,4.83-3.41,9.58-5.38,14.26c-2.03,4.82-4.1,9.66-6.57,14.27c-2.86,5.34-6.15,10.46-9.31,15.64
			c-0.97,1.59-1.39,3.47-2.79,4.85c-4.59,4.51-9.94,7.23-16.48,7.3c-0.83,0.01-1.67,0-2.5,0c-2.93-1.18-4.47-3.41-5.99-6.2
			c-2.91-5.38-4.35-10.87-3.76-17.23c-2.88-2.19-4.07-5.98-7.17-7.97c0.19-1.08-0.29-1.99,0.66-2.68c1.99,0.22,2.71,2.17,4.06,3.29
			c1.4,1.16,2.6,2.55,3.85,3.79c1.05-0.06,1.92,0.11,2.81-0.75c4.5-4.35,9.84-7.69,14.58-11.75c0.68-0.58,2.2,0.05,2.11-1.51
			c8.81-6.27,18.03-11.93,26.96-18.02c2.5-1.71,5.01-3.42,7.18-5.59c1.58-1.58,3.35-2.84,5.72-2.24
			C415.49,205.98,413.62,206.76,414.14,208.16z M399.09,220.57c-2.32-1.43-3.21,0.78-4.64,1.57c-6.78,3.76-12.8,8.58-19.04,13.12
			c-3.3,2.4-6.6,4.87-9.89,7.28c-2.62,1.92-5.99,3.35-7.59,7.05c2.41,4.93,2.87,10.88,6.56,15.56c1.07,0,2.07-0.08,3.05,0.01
			c4.36,0.4,7.63-1.61,10.63-4.5c3.03-2.91,4.71-6.75,6.81-10.2c2.47-4.06,4.4-8.48,6.88-12.6c2.47-4.09,3.57-8.84,5.98-13
			C398.57,223.61,398.7,221.99,399.09,220.57z"/>
		<path class="st6" d="M321.14,237.16c0.08-0.99-0.9-1.28-1.24-0.95c-1.25,1.2-2.7,0.93-4.13,0.94c-2.67,0.02-5.37-0.26-7.99,0.08
			c-2.55,0.33-4.62-1.82-7.08-1.04c-1.4,0.44-2.04-0.83-3.05-1.17c-4.97-1.7-10.26-2.34-15.03-4.73c-1.05-0.53-2.54-0.24-3.37-1.51
			c-0.65-0.98-2.2-0.61-2.93-2.15c0-1.06,0-2.52,0-4.32c0.53-1.13,2.38-0.98,3.26-2.09c3.21-0.5,6.57,0.8,9.62-1.05
			c0.24-0.15,0.7-0.13,0.98,0c2.93,1.32,6.23,0.29,9.03,1.17c2.46,0.77,4.76,0.71,7.14,0.78c3.33,0.11,6.69-0.23,9.99,0.09
			c5.11,0.49,9.95,1.86,13.47,6.07c0.53,0.64,0.2,1.26,0.33,1.87c-1.93,3-4.85,5.07-7.19,7.69
			C322.42,237.44,321.74,237.04,321.14,237.16z"/>
		<path class="st1" d="M321.14,237.16c0.6-0.12,1.28,0.28,1.81-0.31c2.34-2.62,5.26-4.69,7.19-7.69c1.28,0,2.55,0,3.84,0
			c-0.24,4.02-0.24,4.02-12.35,16c-1.8-0.4-3.49,0.46-5.18,1.25c-0.28,0.13-0.3,0.83-0.56,1.64c-2.18,0.35-5.33-0.42-6.21,3.07
			c-1.13-0.36-1.54,1.08-2.54,1.04c-0.69-0.03-1.03,0.31-1,1c-0.69-0.03-1.03,0.31-1,1c-6.1,5.05-12.98,8.99-19.28,13.74
			c-1.22,0.92-2.92,1.81-4.12,1.93c-2.04,0.2-3.01,1.72-4.6,2.33c-0.58,0-1.17,0-2,0c0,0.83,0,1.42,0,2c-1.93-0.31-3.46,0.66-5,1.57
			c0,0.49,0,0.96,0,1.43c-1.93,2.07-4.47,2.02-7,2c0-1.33,0-2.67,0-4c2.42-1.72,5.42-2.14,7.89-3.93
			c7.99-5.79,16.58-10.71,24.64-16.36c3.15-2.21,6.53-4.17,9.47-6.71c0.59,0,1.18,0,1.62,0c0.5-0.86,0.52-1.4-0.08-1.96
			c-0.68,0-1.53-0.27-1.54,0.96c-0.76-0.15-1.91,0.5-2-1c0.12-0.94-0.28-1.93,0.34-2.86c1.49,1.02,3.04,1.28,4.66,0.41
			c0-0.57,0-1.06,0-1.55c3.22,0,6.44,0,9.42,0c1.58-1.06,1.59-3.27,3.57-3.6C321.2,238.55,321.14,237.65,321.14,237.16z"/>
		<path class="st1" d="M232.14,228.16c-0.61-0.12-1.36,0.33-1.81-0.33c-0.57-0.84-1.39-0.66-2.19-0.67c0-0.5,0-1,0-1.65
			c-3.78-0.7-7.52-1.66-11.51-3.87c8.6-2.41,16.08-0.19,23.51,2.52c0.09,1.5,1.24,0.85,2,1c5.86,0.87,11.05,3.89,16.75,5.28
			c3.3,0.8,6.53,1.92,9.84,2.69c3.66,0.85,7.37,1.45,11.05,2.21c0.17,0.03,0.24,0.54,0.36,0.82c-0.12,0.61,0.3,1.31-0.42,1.91
			c-3.62,0.72-6.85-2.44-10.58-1.68c0,0.79,0,1.28,0,1.77c-2.17,0.7-3.95-0.99-6-1c-0.12-0.61,0.3-1.31-0.33-1.84
			c-0.97,0.02-2.28-1.04-2.67,0.84c-1.09-0.15-2.1-0.13-3.24-0.6c-5.25-2.18-10.79-3.57-16-5.95c-2.45-1.12-5.37-1.38-7.98-2.4
			C232.51,227.05,232.02,227.53,232.14,228.16z"/>
		<path class="st24" d="M255.14,163.16c0,3.83,0,7.66,0,11.48c-1.21,0.71-1.37,2.14-1.92,3.21c-1.47,2.88-3.55,4.24-6.77,4.34
			c-6.78,0.22-13.09-1.69-19.31-4.03c0.5-1.69-1.79-2.79-0.78-4.86c1.37-0.11,2.79-0.55,4.27,0.78c1.98,1.76,4.8,1.15,7.17,1.82
			c2.62,0.74,5.49,2.16,8.5,1.18c2.84-1.01,3.33-3.89,3.66-6.14c0.42-2.85,2.19-5.21,2.25-8.12c0.02-0.83,1.11-1.48,1.75-1.75
			C255.6,161.44,254.99,162.45,255.14,163.16z"/>
		<path class="st24" d="M228.14,192.16c4.83-0.13,9.43,1.38,14.13,2.09c2.58,0.39,4.48,2.29,4.81,5.1c0.12,1.03,0.35,1.86,1,2.33
			c-1.09,4.62-2.17,9.01-2.95,13.48c-1.37,0.01-0.91,1.06-1,1.79c-0.18,1.57-1.12,2.17-2.67,2.26c-1.38-6.46,0.54-12.48,1.81-18.14
			c-0.88-1.92-2.75-1.73-3.65-2.9c-1.99,0-3.99,0-5.98,0c-1.43-1.53-3.81-1.5-5.3-3.31C227.83,194.12,228.27,193.11,228.14,192.16z"
			/>
		<path class="st24" d="M290.14,189.16c-2.15,0-4.83,0.79-6.3-0.21c-1.67-1.14-3.34-0.62-4.96-1.33c-4.79-2.12-7.74-5.92-10.58-9.4
			c-0.82-4.26,1.33-7.44,2.28-10.84c0.31-1.1,0.4-2.14,0.55-3.22c1.14-0.46,2.12-1.5,3.71-0.88c0.38,1.27,0.67,2.61-0.26,3.94
			c-0.8,1.16-0.54,2.64-1.34,3.92c-0.66,1.07,0.51,2.94-1.04,3.54c2.36,2.34,4.55,4.52,7.75,7.68c2.97,0.96,7.25,2.88,11.2,5.41
			C291.12,188.56,291.11,189.24,290.14,189.16z"/>
		<path class="st24" d="M259.14,216.16c-0.11-3.24,1.69-5.96,2.52-8.95c0.61-2.2,1.74-4.27,2.74-6.65c1.21-0.62,2.71-1.39,4.59-2.36
			c1.97-0.23,4.36-0.21,6.58,0.96c2.41,1.27,5.01,0.97,7.58,0.99c-0.16,0.63,0.42,0.83,0.77,1.29c0.05,0.83-0.85,1.08-1.24,1.69
			c-4.3,0-8.61,0-13.08,0c-2.64,3.24-4.02,7.19-5.42,11.09C262.95,217.63,262.66,217.83,259.14,216.16z"/>
		<path class="st6" d="M156.81,232.39c2.24-7.08,7.13-10.96,12.68-14.51c1.08,1.55,0.52,3.06,0.62,4.46
			c0.1,1.32,0.02,2.66,0.02,3.99c-2.02,3-1.83,7.6-6.39,8.79c-1.31,0-2.63,0-3.96,0C158.87,234.27,157.92,233.4,156.81,232.39z"/>
		<path class="st20" d="M269.14,238.16c0-0.49,0-0.98,0-1.77c3.74-0.76,6.96,2.4,10.58,1.68c0.71-0.6,0.29-1.3,0.42-1.91
			c1,0,2,0,3,0c0.12,0.61-0.29,1.31,0.58,2.05c0.39-0.31,1.42,0.36,1.42-1.05c1.27-0.49,1.94,0.86,3,1c-0.33,3.06,2.25,2.84,4,3.33
			c0,1.04,0,1.85,0,2.67c-1.26-0.05-2.42-0.52-3.59-0.84c-4.79-1.29-9.61-2.58-14.57-3.22
			C272.29,239.88,270.38,239.72,269.14,238.16z"/>
		<path class="st1" d="M292.14,244.16c0-0.82,0-1.63,0-2.67c-1.75-0.49-4.33-0.27-4-3.33c1.15,0,2.31,0,3.6,0
			c0.83,1.94,3.16,1.74,4.15,3.06c1.35-0.21,2.3-2.39,3.25-0.06c-0.95,1.18-1.12,2.55-1,4
			C296.09,245.08,293.95,245.63,292.14,244.16z"/>
		<path class="st20" d="M298.14,245.16c-0.12-1.45,0.05-2.82,1-4c3.09-0.49,5.88,1.76,9,1c0,0.49,0,0.98,0,1.55
			c-1.63,0.86-3.18,0.61-4.66-0.41c-0.62,0.93-0.22,1.93-0.34,2.86c-1.27,0-2.54,0-3.8,0C298.65,246.16,298.07,246.05,298.14,245.16
			z"/>
		<path class="st20" d="M270.14,277.16c0-0.47,0-0.95,0-1.43c1.54-0.91,3.07-1.87,5-1.57C274.23,276.43,272.19,276.81,270.14,277.16
			z"/>
		<circle class="st20" cx="276.14" cy="273.16" r="1.41"/>
		<path class="st1" d="M285.14,237.16c0,1.41-1.02,0.74-1.42,1.05c-0.88-0.74-0.46-1.45-0.58-2.05
			C283.89,236.31,285.05,235.67,285.14,237.16z"/>
		<path class="st20" d="M242.14,225.16c-0.76-0.15-1.91,0.5-2-1C240.89,224.31,242.05,223.67,242.14,225.16z"/>
		<path class="st20" d="M305.14,254.16c-0.03-0.69,0.31-1.03,1-1C306.16,253.85,305.83,254.19,305.14,254.16z"/>
		<path class="st20" d="M306.14,253.16c-0.03-0.69,0.31-1.03,1-1C307.16,252.85,306.83,253.19,306.14,253.16z"/>
		<path class="st8" d="M181.14,233.16c-0.09-0.48,0.13-0.78,0.59-0.89c0.08-0.02,0.31,0.22,0.29,0.29
			C181.92,233.02,181.62,233.24,181.14,233.16z"/>
		<path class="st25" d="M205.14,332.16c1.33,1,2.67,2,4,3c0,0.49-0.21,1.23,0.03,1.42c3.37,2.74,5.24,6.8,8.53,9.58
			c0.82,0,1.63,0,2.44,0c1.77-0.17,3.16,1.51,5,1c1.28,1.84,3.59,2.16,5.24,3.58c2.94,2.53,5.72,6.95,5.75,10.55
			c0.02,2.15,0,4.3,0,6.38c-1.46,1.24-1.38,3.24-2.55,4.52c-0.78,0.86-1.64,1.65-2.45,2.46c0,1.68,0,3.34,0,5
			c-1.15,1.31-2.22,2.12-4.15,0.95c-1.94-1.18-4.14-2.74-6.45-0.45c-2.43-0.21-4.73,0.57-7.08,0.87c-2.69,0.34-5.2,1.54-8.05,1.2
			c-2.79-0.33-5.65,0.09-8.46-0.12c-2.71-0.2-5.43,0.66-8.18-0.7c-2.24-1.1-4.98,0.22-7.52-1.11c-1.67-0.87-3.97-0.07-6.06-0.99
			c-1.55-0.68-3.43-0.88-4.52-2.23c-1.47-1.82-1.99-4.21-2.4-6.44c-0.3-1.6-0.63-3.44,0.78-5.14c0.65-0.79,0.11-2.56,0.28-3.72
			c1.45-5.86,6.38-7.9,10.98-10.24c2.46-1.25,4.96-2.75,7.6-3.22c1.91-0.34,2.82-1.4,4.15-2.55c-0.21-2.31,0.79-4.48,1.66-6.62
			c0.87-2.13,1.9-4.25,3.2-6.13c0.64-0.92,2.06-1.3,2.96-1.83C201.88,330.85,203.27,332.73,205.14,332.16z M213.14,350.16
			c-2.4-5.5-6.66-9.38-10.8-13.1c-0.95,0.24-1.31,0.49-1.2,1.1c-1.31,1.01-2.08,2.29-2,4c-1.51,0.62-1.84,2.15-1.92,3.36
			c-0.21,3.34-2.18,6.14-2.49,9.47c-0.31,3.36-2.11,6.57-1.3,10.78c1.5-2.9,4.94-2.75,5.71-5.61c2.49-0.75,4.56,1.43,7,1
			c0.25,2.12,2.38,0.38,3.39,1.64c0.59,0.73,2.1,1.73,3.61,1.36c0.31,1.7,2.24,0.97,3,2c2.22,1.63,4.43,3.27,6.84,5.04
			c0.07-0.76,0.29-1.3,0.14-1.69c-2.22-5.72-4.64-11.36-7.79-16.64c-0.22-0.37-0.55-0.87-1.18-0.71
			C213.98,351.4,214.63,350.25,213.14,350.16z M198.14,368.16c-3.14,2.19-5.52,5.36-9.08,7c-0.93-0.1-1.22-1.02-1.72-1.36
			c-1.23-7.82,1.88-15.07,2.8-23.25c-3.88,2.05-7.11,3.84-10.41,5.49c-3.48,1.73-5.43,4.4-6.75,8.12c-0.94,2.63-0.5,5.07-0.76,6.72
			c0.78,2.69,1.99,4.14,3.59,5.28c1.16,0,2.6-0.44,3.44,0.08c2.32,1.44,4.81,0.45,7.11,0.98c2.35,0.55,4.64,1.05,7.09,0.97
			c4.15-0.13,8.33-0.24,12.47,0.03c2.98,0.19,5.6-1.74,8.57-1.07c1.03-1.31,3.65-0.86,3.65-3.36c-0.93-0.76-2.04-1.46-3.04-2
			c-2.55-1.38-4.51-4.22-7.96-3.63C203.04,365.18,202.23,365.18,198.14,368.16z M232.14,366.66c0-2.33,0-4.66,0-6.49
			c-1.41-2.75-2.03-6.16-4.65-6.81c-2.58-0.64-4.03-4.46-7.76-2.64c4.01,6.25,6.05,13.17,9,19.5
			C231.2,369.87,230.86,367.58,232.14,366.66z"/>
		<path class="st7" d="M220.14,346.16c-0.81,0-1.62,0-2.44,0c-3.29-2.78-5.16-6.84-8.53-9.58c-0.24-0.19-0.03-0.93-0.03-1.42
			c3.14,0.5,5.48,2.46,7.16,4.84c1.18,1.68,2.55,3.15,3.81,4.73C220.34,345.03,220.14,345.68,220.14,346.16z"/>
		<path class="st20" d="M260.14,236.16c0.39-1.88,1.7-0.82,2.67-0.84c0.63,0.53,0.21,1.23,0.33,1.84
			C262.15,236.78,260.6,238.09,260.14,236.16z"/>
		<path class="st20" d="M305.14,247.16c0.01-1.23,0.86-0.97,1.54-0.96c0.6,0.56,0.58,1.11,0.08,1.96c-0.44,0-1.03,0-1.62,0
			C305.14,247.83,305.14,247.49,305.14,247.16z"/>
		<path class="st21" d="M363.14,155.16c0,0.61,0,1.22,0,1.77c-1.13,0.28-1.93,0.49-2-0.77
			C361.22,154.67,362.38,155.31,363.14,155.16z"/>
		<path class="st15" d="M399.09,220.57c-0.39,1.42-0.52,3.04-1.25,4.31c-2.41,4.16-3.51,8.91-5.98,13
			c-2.48,4.11-4.41,8.54-6.88,12.6c-2.1,3.45-3.78,7.29-6.81,10.2c-3,2.89-6.27,4.9-10.63,4.5c-0.98-0.09-1.98-0.01-3.05-0.01
			c-3.69-4.68-4.15-10.63-6.56-15.56c1.6-3.71,4.98-5.13,7.59-7.05c3.29-2.41,6.59-4.88,9.89-7.28c6.24-4.54,12.26-9.37,19.04-13.12
			C395.88,221.35,396.77,219.15,399.09,220.57z"/>
		<path class="st26" d="M207.14,368.16c3.45-0.59,5.41,2.25,7.96,3.63c1,0.54,2.11,1.24,3.04,2c-0.01,2.5-2.63,2.05-3.65,3.36
			c-2.97-0.67-5.59,1.26-8.57,1.07c-4.14-0.27-8.32-0.16-12.47-0.03c-2.45,0.08-4.73-0.42-7.09-0.97c-2.3-0.53-4.79,0.45-7.11-0.98
			c-0.84-0.52-2.28-0.08-3.44-0.08c-1.6-1.14-2.81-2.59-3.59-5.28c0.26-1.64-0.18-4.08,0.76-6.72c1.32-3.72,3.28-6.39,6.75-8.12
			c3.3-1.64,6.53-3.43,10.41-5.49c-0.91,8.18-4.03,15.43-2.8,23.25c0.5,0.33,0.79,1.26,1.72,1.35c3.56-1.64,5.94-4.81,9.08-7
			c2.04,2.19,4.3,2.75,6.93,1.01C205.7,368.76,206.44,368.49,207.14,368.16z"/>
		<path class="st27" d="M199.14,342.16c-0.08-1.71,0.69-2.99,2-4c3.65,3.52,4.93,8.82,8.5,12c1.52,0,2.51,0,3.5,0
			c0.15,0.76-0.5,1.91,1,2c0.06,1.24-0.43,2.68,1,3.48c1.11,0.61,0.75,2.06,1.7,2.72c0.36,0.25,0.34,0.46-0.09,0.69
			c-0.44,0.11-0.88,0.22-1.52,0.38c-0.64,2.33,1.81,4.35,0.9,6.74c-0.76-1.03-2.69-0.3-3-2c-0.5-3.44-3.51-5.27-4.85-8.5
			c-1.66,1.88-2.39,3.51-2.15,5.5c-2.44,0.43-4.51-1.75-7-1c-2.68-1.89-2.39-4.84-1.85-7.28c0.52-2.35,2.19-4.5,5.13-5.27
			C201.35,345.65,200.74,343.63,199.14,342.16z"/>
		<path class="st28" d="M232.14,366.66c-1.27,0.92-0.93,3.21-3.42,3.57c-2.95-6.34-4.99-13.25-9-19.5c3.74-1.82,5.18,2,7.76,2.64
			c2.62,0.65,3.24,4.05,4.65,6.81C232.14,362,232.14,364.33,232.14,366.66z"/>
		<path class="st28" d="M199.14,342.16c1.6,1.47,2.22,3.49,3.27,5.46c-2.94,0.77-4.61,2.91-5.13,5.27
			c-0.54,2.44-0.82,5.39,1.85,7.28c-0.78,2.87-4.22,2.72-5.71,5.61c-0.81-4.21,0.99-7.41,1.3-10.78c0.31-3.33,2.28-6.13,2.49-9.47
			C197.29,344.31,197.62,342.78,199.14,342.16z"/>
		<path class="st28" d="M216.14,366.16c0.91-2.38-1.54-4.41-0.9-6.74c0.63-0.16,1.07-0.27,1.52-0.38c0.43-0.23,0.45-0.44,0.09-0.69
			c-0.95-0.66-0.6-2.1-1.7-2.72c-1.43-0.8-0.94-2.23-1-3.48c0.63-0.16,0.96,0.34,1.18,0.71c3.15,5.29,5.58,10.92,7.79,16.64
			c0.15,0.39-0.06,0.92-0.14,1.69C220.57,369.43,218.35,367.79,216.14,366.16z"/>
		<path class="st28" d="M213.14,350.16c-0.99,0-1.98,0-3.5,0c-3.57-3.18-4.85-8.48-8.5-12c-0.11-0.61,0.25-0.86,1.2-1.1
			C206.47,340.78,210.73,344.66,213.14,350.16z"/>
		<path class="st26" d="M206.14,361.16c-0.25-1.99,0.48-3.62,2.15-5.5c1.34,3.23,4.35,5.06,4.85,8.5c-1.51,0.37-3.02-0.63-3.61-1.36
			C208.52,361.54,206.39,363.28,206.14,361.16z"/>
		<path class="st27" d="M207.14,368.16c-0.69,0.33-1.43,0.59-2.07,1.01c-2.63,1.73-4.89,1.17-6.93-1.01
			C202.23,365.18,203.04,365.18,207.14,368.16z"/>
		<path class="st28" d="M214.14,352.16c-1.5-0.09-0.85-1.24-1-2C214.63,350.25,213.98,351.4,214.14,352.16z"/>
	</g>
</g>
</svg>
